<svg id="Capa_2" data-name="Capa 2" xmlns="http://www.w3.org/2000/svg" width="120" height="120" viewBox="0 0 120 120">
  <rect id="Rectángulo_5257" data-name="Rectángulo 5257" width="120" height="120" fill="none"/>
  <path id="Trazado_101262" data-name="Trazado 101262" d="M60,10h0a50,50,0,0,1,50,50v50H60A50,50,0,0,1,10,60h0A50,50,0,0,1,60,10Z" transform="translate(120 120) rotate(180)" fill="#043f45"/>
  <g id="Grupo_54102" data-name="Grupo 54102">
    <g id="Grupo_54101" data-name="Grupo 54101">
      <path id="Trazado_101263" data-name="Trazado 101263" d="M50.36,27.71l-2.87,2.87V25.8A11.46,11.46,0,0,1,59,14.35h7.63v3.82a5.73,5.73,0,0,1,5.73,5.73v6.68L69.5,27.71a26.62,26.62,0,0,1-9.55,1.91A26.53,26.53,0,0,1,50.36,27.71Z" fill="#f2884b"/>
      <path id="Trazado_101264" data-name="Trazado 101264" d="M66.58,21a2.88,2.88,0,0,1,2.87,2.87v3.81l2.86,2.87V23.9a5.73,5.73,0,0,0-5.73-5.73V14.35H63.72v3.82A2.86,2.86,0,0,0,66.58,21Z" fill="#f26d3d"/>
      <path id="Trazado_101265" data-name="Trazado 101265" d="M72.31,34.39a12.41,12.41,0,0,1-24.82,0V30.58l2.87-2.87a26.53,26.53,0,0,0,9.54,1.91,26.62,26.62,0,0,0,9.55-1.91l2.86,2.87Z" fill="#f0c8a0"/>
      <path id="Trazado_101266" data-name="Trazado 101266" d="M69.45,27.71h0v6.68a12.42,12.42,0,0,1-6.68,11,12.24,12.24,0,0,1-4.29,1.3,11.32,11.32,0,0,0,1.43.09,12.38,12.38,0,0,0,12.4-12.39V30.58Z" fill="#c8b39e"/>
      <path id="Trazado_101267" data-name="Trazado 101267" d="M50.38,48.71l2.87,4.79-1.94,1,4.78,5.7H43.68V55.39a6.67,6.67,0,0,1,6.68-6.68Z" fill="#419ca6"/>
      <path id="Trazado_101268" data-name="Trazado 101268" d="M54.19,48.72l2.86,11.44h-1l-4.78-5.7,1.94-1-2.87-4.79h3.81Z" fill="#89eaf5"/>
      <path id="Trazado_101269" data-name="Trazado 101269" d="M59,52.36h0l-1,7.79H57L54.19,48.72l3.34,1.9Z" fill="#e6e9ed"/>
      <path id="Trazado_101270" data-name="Trazado 101270" d="M59.9,46.8a12.44,12.44,0,0,0,5.73-1.39v3.3L62.3,50.62l-2.4-1-2.37,1-3.34-1.9h0v-3.3A12.44,12.44,0,0,0,59.9,46.8Z" fill="#f5f7fa"/>
      <path id="Trazado_101271" data-name="Trazado 101271" d="M60.87,52.34l1,7.82H58l1-7.79Z" fill="#f26d3d"/>
      <path id="Trazado_101272" data-name="Trazado 101272" d="M65.63,48.71,62.78,60.16h-1l-1-7.82,1.43-1.72Z" fill="#e6e9ed"/>
      <path id="Trazado_101273" data-name="Trazado 101273" d="M66.58,53.5l1.93,1-4.77,5.7h-1l2.85-11.45h3.82Z" fill="#89eaf5"/>
      <path id="Trazado_101274" data-name="Trazado 101274" d="M69.45,48.71a6.68,6.68,0,0,1,6.68,6.68v4.77H63.74l4.77-5.7-1.93-1Z" fill="#419ca6"/>
      <path id="Trazado_101275" data-name="Trazado 101275" d="M60.86,52.36h0l1.43-1.72-2.4-1-2.37,1L59,52.36Z" fill="#f26d3d"/>
    </g>
    <line id="Línea_165" data-name="Línea 165" x2="68.3" transform="translate(25.75 63.83)" fill="none" stroke="#fff" stroke-miterlimit="10" stroke-width="3"/>
    <line id="Línea_166" data-name="Línea 166" y2="9.94" transform="translate(27.1 63.83)" fill="none" stroke="#fff" stroke-linecap="square" stroke-miterlimit="10" stroke-width="3"/>
    <line id="Línea_167" data-name="Línea 167" y2="9.94" transform="translate(59.9 63.83)" fill="none" stroke="#fff" stroke-linecap="square" stroke-miterlimit="10" stroke-width="3"/>
    <line id="Línea_168" data-name="Línea 168" y2="9.94" transform="translate(92.72 63.83)" fill="none" stroke="#fff" stroke-linecap="square" stroke-miterlimit="10" stroke-width="3"/>
    <rect id="Rectángulo_5258" data-name="Rectángulo 5258" width="16.22" height="10.52" transform="translate(19.17 73.77)" fill="#77cfd9" stroke="#fff" stroke-linecap="square" stroke-miterlimit="10" stroke-width="3"/>
    <rect id="Rectángulo_5259" data-name="Rectángulo 5259" width="16.22" height="10.52" transform="translate(84.61 73.77)" fill="#77cfd9" stroke="#fff" stroke-linecap="square" stroke-miterlimit="10" stroke-width="3"/>
    <rect id="Rectángulo_5260" data-name="Rectángulo 5260" width="16.22" height="10.52" transform="translate(51.81 73.77)" fill="#77cfd9" stroke="#fff" stroke-linecap="square" stroke-miterlimit="10" stroke-width="3"/>
  </g>
</svg>
