<svg id="cf1_paso_copia" data-name="cf1_paso copia" xmlns="http://www.w3.org/2000/svg" xmlns:xlink="http://www.w3.org/1999/xlink" width="160" height="160" viewBox="0 0 160 160">
  <defs>
    <clipPath id="clip-path">
      <path id="Trazado_101452" data-name="Trazado 101452" d="M80,20h0a60,60,0,0,1,60,60v60H80A60,60,0,0,1,20,80h0A60,60,0,0,1,80,20Z" transform="translate(160 160) rotate(180)" fill="none"/>
    </clipPath>
    <linearGradient id="linear-gradient" x1="0.983" y1="0.007" x2="0.506" y2="0.458" gradientUnits="objectBoundingBox">
      <stop offset="0" stop-color="#f0d0b4"/>
      <stop offset="0.29" stop-color="#f5d8bf"/>
      <stop offset="1" stop-color="#ffe9d5"/>
    </linearGradient>
    <linearGradient id="linear-gradient-2" x1="251.995" y1="1.122" x2="251.995" y2="0.33" gradientUnits="objectBoundingBox">
      <stop offset="0.01" stop-color="#dff2f8"/>
      <stop offset="0.09" stop-color="#e9f6fa"/>
      <stop offset="0.27" stop-color="#f5fbfd"/>
      <stop offset="0.5" stop-color="#fdfeff"/>
      <stop offset="1" stop-color="#fff"/>
    </linearGradient>
    <linearGradient id="linear-gradient-3" x1="0.499" y1="0.536" x2="0.499" y2="1.245" gradientUnits="objectBoundingBox">
      <stop offset="0" stop-color="#233166"/>
      <stop offset="1" stop-color="#fff"/>
    </linearGradient>
    <linearGradient id="linear-gradient-4" x1="645.322" y1="0.019" x2="645.322" y2="1.011" xlink:href="#linear-gradient-3"/>
    <radialGradient id="radial-gradient" cx="0.499" cy="0.499" r="0.595" gradientTransform="translate(0.13) scale(0.741 1)" gradientUnits="objectBoundingBox">
      <stop offset="0" stop-color="#fff"/>
      <stop offset="0.45" stop-color="#aba2ab"/>
      <stop offset="1" stop-color="#4a3649"/>
    </radialGradient>
    <linearGradient id="linear-gradient-5" x1="1.135" y1="0.091" x2="0.428" y2="0.472" xlink:href="#linear-gradient"/>
  </defs>
  <g id="Capa_2" data-name="Capa 2">
    <rect id="Rect치ngulo_5278" data-name="Rect치ngulo 5278" width="120" height="120" transform="translate(0 20)" fill="none"/>
    <path id="Trazado_101426" data-name="Trazado 101426" d="M80,20h0a60,60,0,0,1,60,60v60H80A60,60,0,0,1,20,80h0A60,60,0,0,1,80,20Z" transform="translate(160 160) rotate(180)" fill="#419ca6"/>
    <rect id="Rect치ngulo_5279" data-name="Rect치ngulo 5279" width="160" height="160" fill="none"/>
    <g id="Grupo_54137" data-name="Grupo 54137" clip-path="url(#clip-path)">
      <g id="Grupo_54136" data-name="Grupo 54136">
        <path id="Trazado_101427" data-name="Trazado 101427" d="M9.22,154.07h0c-2,0-2.9-.34-4-.35a.21.21,0,0,0-.21.17V154a.4.4,0,0,0,.25.37l3.21,1.27a5.07,5.07,0,0,0,5-.14l.6-.29-.52,2.42,1.05.42,1.86-4.72h0l-5,1.12a2.81,2.81,0,0,1-1.44-.08Z" fill="#f26d3d"/>
        <path id="Trazado_101428" data-name="Trazado 101428" d="M41.87,111.54l-.23-10.15s-9.44-.6-13,7.66L13.87,151.72h0a1.941,1.941,0,0,1-.26.23l-2.26,1.62a2.38,2.38,0,0,1-1.24.44H9.2v.79l2,.29a1.22,1.22,0,0,0,.6-.06l4.68-1.8a5.5,5.5,0,0,1,.2-.74c6.46-12.9,16.35-27.6,19-41Z" fill="url(#linear-gradient)"/>
        <path id="Trazado_101429" data-name="Trazado 101429" d="M43.91,161.39h0c-1.66,1.2-2.55,1.43-3.47,2.07a.22.22,0,0,0-.07.26v.06a.4.4,0,0,0,.43.15l3.33-.85a5.07,5.07,0,0,0,3.95-3l.32-.59,1,2.27,1.09-.28-1.25-4.91h0l-3.41,3.84a2.82,2.82,0,0,1-1.22.78Z" fill="#f26d3d"/>
        <path id="Trazado_101430" data-name="Trazado 101430" d="M67.44,69.48c2.67-6.17,8.67-10.25,11.28-16.39,2.78-6.51-.18-13.83,2.15-20.44A13.23,13.23,0,0,1,82.62,29l5.64,3.09a55.931,55.931,0,0,1,.67,9.49c6.13,9.75,2.77,29.15,2.77,29.15C90.31,75.5,85.46,84,80,84.84,72.44,86,64.41,76.49,67.44,69.48Z" fill="#12263f"/>
        <path id="Trazado_101431" data-name="Trazado 101431" d="M79.32,79.85,89,52l-2.8-1.64-5.72,6.36S72.72,66.75,78,81.46l-2.26,19.66s.18,8.15,6,10.32-2.15-31.65-2.15-31.65Z" fill="#f2884b"/>
        <path id="Trazado_101432" data-name="Trazado 101432" d="M98.57,94.44s4.85,11.78-3.66,16.2a8,8,0,0,1-3.71.9H59.32s2.81-6.14-.57-12l21-1.59Z" fill="#f2884b"/>
        <g id="Grupo_54134" data-name="Grupo 54134">
          <path id="Trazado_101433" data-name="Trazado 101433" d="M60.29,70.23l-4.3-14.15L43.75,67.94Z" fill="#f26d3d"/>
          <path id="Trazado_101434" data-name="Trazado 101434" d="M55.99,56.08l-.98-.24L43.75,67.94l.92-.2Z" fill="#12263f"/>
          <path id="Trazado_101435" data-name="Trazado 101435" d="M66.03,63.01l.79-.51L77.93,94.31l-.75.73Z" fill="#fff"/>
          <path id="Trazado_101436" data-name="Trazado 101436" d="M57.77,64.5l-2.3-7.44-.63-.11L44.88,67.67l21.15-4.66.79-.51Z" fill="#fff"/>
          <path id="Trazado_101437" data-name="Trazado 101437" d="M67.92,63.01,79.07,95.04,57.34,98.47,45.64,67.94Z" fill="#12263f"/>
        </g>
        <path id="Trazado_101438" data-name="Trazado 101438" d="M77.93,73.66a.6.6,0,0,0-.08-.08C76.27,71.75,75,69.54,75,68c-.08-3.35,3.6-6.58,5.16-8.29,2.25-2.48,6.43-8.41,6.43-8.41H99c4.35,2,6.26,1.25,7.62,7.93,1,4.69,1.46,10.26-1.4,14.1C102.83,76.54,100,80,98.8,83.82a40.161,40.161,0,0,0-1.29,5.67c-.18,1.11.1,4,1.06,5h0c-4.22,1.81-11.4,4.19-18.83,3.55-.23-12.6-.69-23.25-.69-23.25S78.29,74.07,77.93,73.66Z" fill="url(#linear-gradient-2)"/>
        <path id="Trazado_101439" data-name="Trazado 101439" d="M89.61,41.35l4,10.09s-8.23,7.71-11.14,16c0,0,1.12-8.3,4.26-13.69l-3.37-8.31Z" fill="#ffe9d5"/>
        <path id="Trazado_101440" data-name="Trazado 101440" d="M106.48,58.48a2.464,2.464,0,0,0-.14-.61h0V57.8c-1.71-4.28-8.42-4.27-12.82-4.93.92,2.2,1.82,3.92,3.06,6.61-2.16.59-1.87-.52-4,.07.08,2-1.8,6.09-1.89,8-.13,2.6-4.69,3.65-6,5.75-3.44,5.51.27,10.39,1.47,16.12A66.539,66.539,0,0,0,88,96.34a32.85,32.85,0,0,0,3.61,7.72,7.722,7.722,0,0,1-6.69,3.49c-4.59.15-9.07,2.58-14.51,4H91.2a8,8,0,0,0,3.71-.9c5.52-2.86,5.42-8.82,4.67-12.66a6.1,6.1,0,0,1-.56-.9,6.82,6.82,0,0,1-.69-2.94,8.46,8.46,0,0,1-.82-4.65,40.16,40.16,0,0,1,1.29-5.67c1.24-3.85,4-7.28,6.44-10.53,2.86-3.84,2.35-9.41,1.4-14.1a3.051,3.051,0,0,0-.15-.68Z" opacity="0.5" fill="url(#linear-gradient-3)"/>
        <path id="Trazado_101441" data-name="Trazado 101441" d="M98.72,94.39a6.169,6.169,0,0,0,.72,1.11c3.07,3.79,6.24,6.9,8.75,11.2-12,6.31-17.46-3.61-20.55-13a64.091,64.091,0,0,1-1.83-6.92c-1.21-5.73-3.49-9.15,0-14.66,1.31-2.1,4.44-4.62,4.57-7.21.09-1.91.92-7.8.84-9.82,2.16-.58,2.92,2.34,5.08,1.75-1.24-2.69-2.14-4.42-3.06-6.61,4.4.66,11.11.65,12.82,4.93,1.57,3.92,2.19,10.6.72,14.92-1.79,5.24-5.66,9.46-7.35,14.84C98.42,87.93,97.26,91.49,98.72,94.39Z" fill="#f2884b"/>
        <path id="Trazado_101442" data-name="Trazado 101442" d="M100.42,69.88l4.18-8.58c.09.36,1.81-1,2.26-.94a31.272,31.272,0,0,1,.5,4.24h0v3.33a14.189,14.189,0,0,1-.52,2.09,24.5,24.5,0,0,1-1.17,2.79c-.1.16-.2.31-.31.46h0c-.28.39-.56.78-.82,1.16h0l-.24.36h0l-.54.82h0l-.27.45h0l-.45.74h0l-.28.49h0c-.13.23-.25.46-.37.69-.45.83-.86,1.68-1.24,2.54a1.079,1.079,0,0,1-.08.19h0l-.34.81h0v.09c-.21.51-.4,1-.58,1.55s-.44,1.11-.62,1.68a24,24,0,0,0-1.34,6A.45.45,0,0,0,98,91v1.09a5.29,5.29,0,0,0,.2,1.7,1.72,1.72,0,0,0,.4.7l.35.31a5.3,5.3,0,0,0,.52.75c3.07,3.79,6.24,6.9,8.75,11.2a13.34,13.34,0,0,1-6.06,1.66,62.829,62.829,0,0,0-4.19-10.93,18.83,18.83,0,0,1-2.34-9.72,56.58,56.58,0,0,1,1.89-12Z" opacity="0.5" fill="url(#linear-gradient-4)"/>
        <path id="Trazado_101443" data-name="Trazado 101443" d="M86.51,53.17l-.3-2.48.2-.54a5.13,5.13,0,0,0,.09-2.7L84.78,49Z" fill="#f0d0b4" opacity="0.6"/>
        <path id="Trazado_101444" data-name="Trazado 101444" d="M66.79,84.44c-.2.23,0,.65.11.86a3.61,3.61,0,0,0,1,.82c.28.22.43.31,0,.46a6.18,6.18,0,0,1-2.14-.38c-.4-.1-1.42-.41-1.7-.49s-.72-.23-.87.23.73.63.93.72.71.23.94.32,1.33.4,1.3.63-.91.09-1.23.07-1,0-1.25,0h-.91c-.25,0-.57.09-.57.43a.372.372,0,0,0,.4.39c.13.01.66,0,.88,0s.83.07,1.17.11,1.12.08,1.36.07.34.21.17.3-1.43.51-1.68.57-.8.16-1.21.3-.51.33-.44.54a.4.4,0,0,0,.42.28c.17,0,1-.25,1.31-.3a13.527,13.527,0,0,0,1.36-.32c.3-.09.7-.13.76,0s-.27.32-.51.49a14.923,14.923,0,0,1-1.3.84c-.38.21-.4.47-.34.61s.28.22.59.11a9,9,0,0,0,1.25-.71c.26-.16,1-.58,1-.58a5.324,5.324,0,0,0,.87-.13,6.36,6.36,0,0,1,1-.18c.84,0,1.39-.9,1.74-1.31l3.18.12-.14-2H71a3.77,3.77,0,0,0-1.63-1.67,3.89,3.89,0,0,1-.81-.35,12.931,12.931,0,0,0-1.18-.69C67.09,84.45,67,84.21,66.79,84.44Z" fill="#ffe9d5"/>
        <path id="Trazado_101445" data-name="Trazado 101445" d="M95.43,55.45A5.89,5.89,0,0,0,95,61.14l8.24,24.63L72,87v2.59l34.5,3a4.33,4.33,0,0,0,4.67-4.93L106.94,58.2a8,8,0,0,0-5.87-5.31,5.8,5.8,0,0,0-5.64,2.56Z" fill="#f2884b"/>
        <g id="Grupo_54135" data-name="Grupo 54135">
          <path id="Trazado_101446" data-name="Trazado 101446" d="M75.25,47.78a.59.59,0,0,1-.42-.3.63.63,0,0,1,0-.52L76,43.57a1.09,1.09,0,0,0-.09-1V42.5a4.08,4.08,0,0,1-.4-3.16l.81-2.77c0,1.22,1.15,2.44,2.23,3.32a3.28,3.28,0,0,0,3.5.44h0l1.53,1.46.09-.59a.979.979,0,0,1,1.42-.74,1.24,1.24,0,0,1,.68,1.22L85.6,43.3s.15,1.05.9,4.12c.5,2.07-4.2,5.92-6,5.1a2,2,0,0,1-1-1c-.22-.53-.35-.89-.35-.89L78.51,50a.53.53,0,0,1-.77.2.62.62,0,0,1-.28-.69.56.56,0,0,1-.5,0,.64.64,0,0,1-.23-.83.56.56,0,0,1,.22-.21L76.54,48Z" fill="#ffe9d5"/>
          <path id="Trazado_101447" data-name="Trazado 101447" d="M86.5,47.45c-.75-3.07-.9-4.12-.9-4.12l.17-1.62a1.24,1.24,0,0,0-.68-1.22.979.979,0,0,0-1.42.74l-.09.59-1.53-1.46a3.17,3.17,0,0,1-2.4.15,21.3,21.3,0,0,1-2-1.46,10.3,10.3,0,0,1-1.14-1.57,2.31,2.31,0,0,1-.18-.88l-.13.4h0c-.06.26-.14.52-.21.78l-.4,1.37a.322.322,0,0,1-.07.24.3.3,0,0,0,0,.1,3.378,3.378,0,0,0-.08.34,1.231,1.231,0,0,0,0,.2v.47a2.26,2.26,0,0,0,0,.26,1.49,1.49,0,0,0,0,.21,3.21,3.21,0,0,0,.07.43h0a4,4,0,0,1-1.09,0,.14.14,0,0,0,0-.06,4.17,4.17,0,0,1-1.56-7.76,5,5,0,0,1,.57-.27A4.13,4.13,0,0,1,75.18,33c.13-.23.27-.46.41-.69v-.05l.29-.43.09-.12.27-.36c0-.05.09-.1.13-.16l.26-.3.16-.17.26-.27.19-.18.26-.25.21-.17.26-.22.5-.38a10.28,10.28,0,0,1,1.55-.9,10.561,10.561,0,0,1,1.29-.53l.4-.12.29-.07c.31-.08.62-.15.93-.2h0l.36-.05h.41a10.65,10.65,0,0,1,4.77.65h.13a5.67,5.67,0,0,1,1.53.73c.2.12.4.24.59.37a10.77,10.77,0,0,1,3.92,4.67c.41,1,3.7,1.9,4.61,2.62,2.62,2.06,2.22,4.32,2,7.27-.21,2.43,2.79.92,4.35,1a6.19,6.19,0,0,1,4.18,1.65c1.22,1.28,1,3.08,2.56,4.15l.11.08a30,30,0,0,1,5.42,3.09,4.12,4.12,0,0,0,5.34-.89A6.72,6.72,0,0,1,125,51.25a6.81,6.81,0,0,1,9.33,2.43c1.71,2.91.9,5.41-1.17,7.81-2.63,3-5.7,2.94-8.87,4.91s-3.89,6.68-8,7.2a30.26,30.26,0,0,1-4,.16,33,33,0,0,0,3.41,1.88C109.68,77.27,101.47,71,98,68c-5.6-4.84-8.73-11.1-10.74-17.89C87.15,49.73,86.61,47.92,86.5,47.45Z" fill="#12263f"/>
          <path id="Trazado_101448" data-name="Trazado 101448" d="M79.61,43l-1.82,1.17c-.63.2-1-.26-.86-.61a.32.32,0,0,1,.24-.21Z" fill="#223166"/>
          <path id="Trazado_101449" data-name="Trazado 101449" d="M134.37,53.68a6.861,6.861,0,0,0-.81-1.11,7.08,7.08,0,0,0-1-.91,6.49,6.49,0,0,0-.55-.36,6.8,6.8,0,0,0-7,0,6.72,6.72,0,0,0-1.81,1.53,4.12,4.12,0,0,1-5.34.89,30,30,0,0,0-5.42-3.09l-.11-.08a3.27,3.27,0,0,1-1-1.18,7.589,7.589,0,0,1-.37-.82,6.1,6.1,0,0,0-1.16-2.15,4.88,4.88,0,0,0-1.4-1,5.83,5.83,0,0,0-1.08-.4,8.33,8.33,0,0,0-1.7-.26,4,4,0,0,0-.48,0c-1.45.14-3.58,1-3.85-.45a1.69,1.69,0,0,1,0-.33h0a1.7,1.7,0,0,1,0-.22c.24-2.91.63-5.16-1.87-7.2l-.26-.19c-1.09-.7-4.06-1.59-4.45-2.5h0a11.32,11.32,0,0,0-1-1.84,10.8,10.8,0,0,0-2.89-2.83c-.19-.13-.39-.25-.59-.37l-.36-.23a4.93,4.93,0,0,0-.77-.36l-.4-.14h-.13l-.56-.2c-.24-.07-.47-.14-.71-.19a10.26,10.26,0,0,0-1.66-.27,6.08,6.08,0,0,0-.61,0,10.109,10.109,0,0,0-1.23,0h-.41l-.36.05h0l-.1.06a14.72,14.72,0,0,1,9.35,6.64c.54,1.45,1,2.9,1.44,4.11A18.48,18.48,0,0,1,93.9,48.6c-.93,4,1.38,9.23,5.44,10.43,3.9,1.16,8.5.2,12.51.23a17.82,17.82,0,0,1,6.48,1c3,1.23,4.83,3.57,6.38,5.93h0c1.83-1,3.62-1.48,5.3-2.28h.09c.14-.06.27-.14.41-.21l.14-.07.37-.22.16-.1.35-.24.17-.12c.12-.08.23-.17.34-.26l.17-.15.35-.32.15-.14c.17-.16.33-.34.49-.52a11.32,11.32,0,0,0,1-1.36q.28-.47.51-.93a5.62,5.62,0,0,0-.34-5.59Z" opacity="0.3" fill="url(#radial-gradient)"/>
        </g>
        <path id="Trazado_101450" data-name="Trazado 101450" d="M35.66,111.54h1.05l-2.44-7.06s-3.14,2.72-1.9,10.26l.12,2s-3.85,12.6-6.31,18.11C30.35,127,34.14,119.08,35.66,111.54Z" opacity="0.7" fill="url(#linear-gradient-5)"/>
        <path id="Trazado_101451" data-name="Trazado 101451" d="M58.75,99.59l-19.41,1.89a6.94,6.94,0,0,0-6,8.82l13,45.9a2.5,2.5,0,0,1-.11.9l-.89,2.63a2.33,2.33,0,0,1-.74,1.08l-.71.58.42.66,1.76-.9a1.13,1.13,0,0,0,.44-.4l2.75-4.2a6.88,6.88,0,0,1-.38-1.08c-1.39-16.17-3.21-35.23-7-43.93H59.32S62.13,105.4,58.75,99.59Z" fill="#ffe9d5"/>
      </g>
    </g>
  </g>
</svg>
