<svg id="Capa_2" data-name="Capa 2" xmlns="http://www.w3.org/2000/svg" xmlns:xlink="http://www.w3.org/1999/xlink" width="160" height="160" viewBox="0 0 160 160">
  <defs>
    <clipPath id="clip-path">
      <path id="Trazado_101424" data-name="Trazado 101424" d="M80,20h0a60,60,0,0,1,60,60v60H80A60,60,0,0,1,20,80h0A60,60,0,0,1,80,20Z" transform="translate(160 160) rotate(180)" fill="none"/>
    </clipPath>
  </defs>
  <rect id="Rectángulo_5271" data-name="Rectángulo 5271" width="160" height="160" fill="none"/>
  <rect id="Rectángulo_5272" data-name="Rectángulo 5272" width="120" height="120" transform="translate(0 20)" fill="none"/>
  <path id="Trazado_101404" data-name="Trazado 101404" d="M80,20h0a60,60,0,0,1,60,60v60H80A60,60,0,0,1,20,80h0A60,60,0,0,1,80,20Z" transform="translate(160 160) rotate(180)" fill="#419ca6"/>
  <g id="Grupo_54132" data-name="Grupo 54132" clip-path="url(#clip-path)">
    <g id="Grupo_54131" data-name="Grupo 54131">
      <path id="Trazado_101405" data-name="Trazado 101405" d="M57.62,167.05s-11.09-8.5-24.68-.26l20.3-30.92Z" fill="#091320"/>
      <path id="Trazado_101406" data-name="Trazado 101406" d="M56.64,174.9l3,44.5c-.67,5.32-.28,17.64.48,31.5.56,9.89,1.32,20.56,2.06,30H72.65l5.29-125.18-20.56-.09H52.32S47.6,165.24,56.64,174.9Z" fill="#12263f"/>
      <path id="Trazado_101407" data-name="Trazado 101407" d="M81.17,146.21c-.45-3.34-2.75-16.75-1.81-19.2,3.47-9,4.84-12.33.82-23a17.13,17.13,0,0,0-8.55-9.31l-.2,1.45,3.66,28.13.39,3L75,134.17v.43l-.72,10.5a20.63,20.63,0,0,1-.34,2.59L71.68,159c-2,3.72-3.12,7-1.64,8.31h0c.67.53,1.82.68,3.61.29C84.67,165.27,82.39,155.17,81.17,146.21Z" fill="#12263f"/>
      <path id="Trazado_101408" data-name="Trazado 101408" d="M56.64,174.9l3,44.5c-.67,5.32-.28,17.64.48,31.5a173.349,173.349,0,0,1,2.63-30.4L70.2,218H63V174.26A22.46,22.46,0,0,1,58.55,156l-1.17-.35H52.32S47.6,165.24,56.64,174.9Z" fill="#091320"/>
      <g id="Grupo_54129" data-name="Grupo 54129">
        <rect id="Rectángulo_5273" data-name="Rectángulo 5273" width="1.96" height="4.88" transform="translate(77.102 66.17) rotate(-39.12)" fill="#091320"/>
        <rect id="Rectángulo_5274" data-name="Rectángulo 5274" width="2.84" height="7.05" transform="translate(113.097 35.494) rotate(-39.12)" fill="#091320"/>
        <rect id="Rectángulo_5275" data-name="Rectángulo 5275" width="17.74" height="3.55" transform="translate(78.278 66.072) rotate(-39.12)" fill="#091320"/>
        <rect id="Rectángulo_5276" data-name="Rectángulo 5276" width="31.67" height="5.65" transform="translate(90.778 54.554) rotate(-39.12)" fill="#091320"/>
      </g>
      <path id="Trazado_101409" data-name="Trazado 101409" d="M103.68,44.39a10.241,10.241,0,0,0-.89-1.19c-.81-1.17-2.61-1.66-3.19-.07-1.41-.32-1.8,1.29-1.8,1.29A1.66,1.66,0,0,0,96,45.91a1.32,1.32,0,0,0-1.49,1.42,2.28,2.28,0,0,0-1.4-.14c-.76.89,0,1.3,0,1.3l1.14,1.35c.55,1.7,1.66,1.62,1.66,1.62a9.75,9.75,0,0,1,1.83.86,7.7,7.7,0,0,0,2.23,1.2h2.91l1,6,4.6-3-1.59-6.1Z" fill="#f9d4e3"/>
      <path id="Trazado_101410" data-name="Trazado 101410" d="M62.36,99.62l.06.2a8.23,8.23,0,0,0,4.13,5,8.36,8.36,0,0,0,6.45.52l19.18-6.25,16.39-5.34a6.37,6.37,0,0,0,4.07-4L108.39,51l-6.19,2.53.8,28.83L79,87.18l-.35.07L68.52,89.38a8,8,0,0,0-6.16,10.24Z" fill="#12263f"/>
      <path id="Trazado_101411" data-name="Trazado 101411" d="M62.36,99.62l.06.2a8.23,8.23,0,0,0,4.13,5,8.36,8.36,0,0,0,6.45.52l19.18-6.25C82,98.47,79.26,89.8,78.65,87.25L68.52,89.38a8,8,0,0,0-6.16,10.24Z" fill="#091320"/>
      <path id="Trazado_101412" data-name="Trazado 101412" d="M78.37,79.88l-3.68,15-2-1.61-4.9-3.93-3-2,2.23-9.79,6,.6A12.2,12.2,0,0,1,78.37,79.88Z" fill="#f6c2d7"/>
      <path id="Trazado_101413" data-name="Trazado 101413" d="M66.35,156.94c-4.26-.71-8.28,1.11-12.52,1.24a2.79,2.79,0,0,1-2.41-1.27,2.75,2.75,0,0,1-.19-2.69,10.91,10.91,0,0,0,.77-6.88c-.2-1.57-.5-3.24-.87-5-.65-3.16-1.53-6.56-2.41-10-.56-2.18-1.11-4.37-1.63-6.52-.42-1.76-.73-3.74-1-5.4-.75-3.88.2-7.1.87-10.88a35.22,35.22,0,0,1,3.53-10.33A20.62,20.62,0,0,1,53.85,94c2.3-2.55,7.84-7.49,11-6.69,2.13.55,4.11,4.14,6.08,6.34A6.94,6.94,0,0,0,72.33,95a11.07,11.07,0,0,1,3.38,3.33c.24.39.4.67.63,1.1s.38.75.53,1.07l.12.27c.3.66.59,1.36.85,2.07a33.731,33.731,0,0,1,1.56,5.49,4.76,4.76,0,0,0,.13.77,34.4,34.4,0,0,1,.52,7.46c-.06,2.51-2.54,6.87-3.49,7.77-.13,1.67-.81,5.81-.45,7.62.3,1.48,1.21,8.8,1.53,10.3.66,3.17,1,10,1.64,13.56a2.05,2.05,0,0,1-1.4,2.34C75.06,159,69.38,157.92,66.35,156.94Z" fill="#fff"/>
      <path id="Trazado_101414" data-name="Trazado 101414" d="M29.17,170.55c2-1.42,3.29-2.43,4.91-3.76,1.24-1,2.36-1.91,3.38-2.81l.79-.72c1-.88,1.83-1.73,2.66-2.55,8.88-8.94,9.29-14.79,14.28-21.84.3-.45.64-.91,1-1.36.12-.14.23-.28.35-.44,1.61-2,3.5-3.81,5.28-5.69.54-.58,1.08-1.14,1.6-1.71a40.55,40.55,0,0,0,3.74-4.81l.06-.07c.57-.87,1.1-1.76,1.56-2.63.25-.43.47-.88.67-1.32,3.41-7.18,2.91-14-.22-21.39a70.809,70.809,0,0,0-6.86-12S57,89.45,55.16,91a19.43,19.43,0,0,0-7.27,10.67c-.12.46-.21.94-.3,1.43L46,110.36l-.51,2.37a31.06,31.06,0,0,0-.58,9.71c.6,6,1.46,10.73,1.51,11.06v.06s-.6.61-1.47,1.59-2.06,2.2-3.29,3.48c-.17.21-.39.42-.57.62-1.76,1.88-3.44,3.72-4.17,4.51a.31.31,0,0,0-.1.14.079.079,0,0,0-.07.06,1.23,1.23,0,0,0-.23.28c-.53.53-1.06,1.07-1.55,1.58a25.481,25.481,0,0,0-3.07,3.41c-.19.28-.38.55-.6.83a30.227,30.227,0,0,0-2,3.22,14.14,14.14,0,0,0-1.07,2.62C26.71,160.87,27.44,165.67,29.17,170.55Z" fill="#12263f"/>
      <path id="Trazado_101415" data-name="Trazado 101415" d="M64.62,85.22,62.36,87.4,76.34,99.41v-5.3Z" fill="#fff"/>
      <path id="Trazado_101416" data-name="Trazado 101416" d="M49.35,128.41a14.93,14.93,0,0,0,5.84,10.46c-5,7-5.4,12.9-14.28,21.84-.83.82-1.71,1.67-2.66,2.55l-.79.72c-1,.9-2.14,1.83-3.38,2.81-1.62,1.33-2.87,2.34-4.91,3.76-1.73-4.88-2.46-9.68-1-14.65a14.14,14.14,0,0,1,1.07-2.62,30.231,30.231,0,0,1,2-3.22c.22-.28.41-.55.6-.83a25.481,25.481,0,0,1,3.07-3.41c.49-.51,1-1,1.55-1.58a1.23,1.23,0,0,1,.23-.28.062.062,0,0,1,.07-.06.31.31,0,0,1,.1-.14c.73-.79,2.41-2.63,4.17-4.51.18-.2.4-.41.57-.62,1.23-1.28,2.4-2.54,3.29-3.48s1.47-1.59,1.47-1.59v-.06c0-.33-.91-5.06-1.51-11.06a31.06,31.06,0,0,1,.58-9.71l.51-2.37,1.61-7.26c.09-.49.18-1,.3-1.43l15.43-6.51a1.33,1.33,0,0,1,1.86.6,8.88,8.88,0,0,1,0,9.28Z" fill="#091320"/>
      <path id="Trazado_101417" data-name="Trazado 101417" d="M35.18,128.47a7.59,7.59,0,0,1,.79-4.79l15.27-28.5a7.67,7.67,0,0,1,11.07-2.93,7.92,7.92,0,0,1,2.19,11.41l-18,25,3.95,39.82L42,169.66Z" fill="#12263f"/>
      <g id="Grupo_54130" data-name="Grupo 54130">
        <path id="Trazado_101418" data-name="Trazado 101418" d="M72.7,63.89c2.16.89,3.6,2.66,4.74,5.06l.27.46,3.21,2.32a.62.62,0,0,1,.16.86l-.8,1.16L81.61,79l-4.35,1L68.5,74.84l-4.07-5.31-.09-3.19,4.4-2.6Z" fill="#f6c2d7"/>
        <path id="Trazado_101419" data-name="Trazado 101419" d="M79.3,75.5a1.94,1.94,0,0,1-1.44,1.59A5.46,5.46,0,0,1,74,76.68l-1.53-.78c-4-1.41-2.37-6.33-2.37-6.33.31-2.43-3-2.34-3-2.34l5.64-3.34c-.35-4.17-4.48-5.46-4.48-5.46a4.31,4.31,0,0,0-5.28,1.63c-1.26,1.87-4.42,2.86-4.42,2.86a2.12,2.12,0,0,0-.62,2.74l-3.42,2c-2.33,1.76,0,3.52,0,3.52-1.06,1.38-.82,4.11-.82,4.11,0,3.22,4.32,4.55,4.32,4.55l7.37,5.35,1.81-6.91,2.35-1.52,1.4,2.79-.13.54a1.93,1.93,0,0,0,1,2.2c3,1.6,4.65.63,4.65.63l.57-.17a.9.9,0,0,1,1,.4c2.18,3.68,8.13.38,5.86-3.46l-1.32-2.23-.82-1.38-1.39-2.35A2.48,2.48,0,0,0,79.3,75.5Z" fill="#091320"/>
        <path id="Trazado_101420" data-name="Trazado 101420" d="M65.74,74.9l8.39-5c-.47-1.17-.49-2.2,0-2.5s1.39.22,2.19,1.19l.72-.43A12.47,12.47,0,0,0,76,66.49a.68.68,0,0,1,.23-.27c.65-.38,1.92.56,2.83,2.1A5.32,5.32,0,0,1,79.89,71l-2.18-1.57-.09-.15-.6.36c.88,1.52,1.08,3,.44,3.42s-1.88-.53-2.79-2l-8.32,4.92Z" fill="#fff" opacity="0.7"/>
        <path id="Trazado_101421" data-name="Trazado 101421" d="M66.9,74.16a2.32,2.32,0,0,0-2.63,1.72c-.24.94-.14,2.32,1.85,3.26,0,0,3,1.47,4.75.43,0,0,1.31-.52.11-1.93l-2-2.38a3.24,3.24,0,0,0-1.25-.88,4.11,4.11,0,0,0-.83-.22Z" fill="#f6c2d7"/>
      </g>
      <path id="Trazado_101422" data-name="Trazado 101422" d="M76.34,94.11l2.27,4.24-2.27,1.06Z" fill="#d35a73"/>
      <path id="Trazado_101423" data-name="Trazado 101423" d="M77.64,153.72c-.09-.5-.16-1-.2-1.5s-.15-1.25-.19-1.88c-.07-1.24-.14-2.47-.12-3.69s.06-2.41.11-3.61c.14-2.39.4-4.74.75-7.07.17-1.17.36-2.32.58-3.48l.35-1.73.4-1.77v-.21l.49-1.71a14.94,14.94,0,0,0,.37-1.79,13.67,13.67,0,0,0,.26-1.83l.16-1.87v-1.91c0-.64,0-1.28-.06-1.92,0-1.29-.21-2.59-.34-3.88a37.619,37.619,0,0,0-.66-3.89c-.27-1.29-.54-2.58-.88-3.87s-.7-2.56-1.11-3.83-.83-2.54-1.32-3.76l1.49-.72c.68,1.21,1.29,2.43,1.87,3.68s1.14,2.49,1.66,3.77,1,2.56,1.45,3.88.85,2.64,1.23,4a35.928,35.928,0,0,1,.93,4.11c.12.7.29,1.39.35,2.1l.26,2.13.11,2.17a17.937,17.937,0,0,1,0,2.2,21.079,21.079,0,0,1-.16,2.23l-.33,2.25v-.21l-.14,1.57-.1,1.63c-.06,1.08-.1,2.17-.11,3.26,0,2.17,0,4.33.18,6.45.1,1.06.17,2.12.33,3.15s.32,2,.51,3c.1.5.24,1,.35,1.46a14.5,14.5,0,0,0,.4,1.41l-3.22,4.8Z" fill="#f26d3d"/>
    </g>
  </g>
</svg>
