<svg xmlns="http://www.w3.org/2000/svg" width="820" height="583.353" viewBox="0 0 820 583.353">
  <g id="Capa_2" data-name="Capa 2" transform="translate(-31.21 -34.91)">
    <path id="Trazado_100469" data-name="Trazado 100469" d="M79,0h79V79a79,79,0,0,1-79,79h0A79,79,0,0,1,0,79H0A79,79,0,0,1,79,0Z" transform="translate(851.21 192.917) rotate(180)" fill="#89eaf5"/>
    <path id="Trazado_100470" data-name="Trazado 100470" d="M0,0H150.129C300.623,0,422.588,121.981,422.567,272.438V663.317H272.4C121.958,663.317,0,541.358,0,390.915Z" transform="translate(694.527 189.984) rotate(90)" fill="#3ea7b5"/>
    <path id="Trazado_100471" data-name="Trazado 100471" d="M407.21,345.881a33.286,33.286,0,0,0-5.786,5.223l3.263,7.886a25.333,25.333,0,0,0-2.663,5.611l-8.2,2.473a32.058,32.058,0,0,0-.439,3.877,31.45,31.45,0,0,0,.037,3.9l7.9,3.285a25.662,25.662,0,0,0,2.077,5.852l-4.067,7.52a32.477,32.477,0,0,0,5.223,5.786l7.908-3.263a25.434,25.434,0,0,0,5.6,2.663l2.451,8.208a35.3,35.3,0,0,0,3.877.439,31.45,31.45,0,0,0,3.9-.037l3.277-7.908a25.073,25.073,0,0,0,5.852-2.078l7.535,4.075a33.259,33.259,0,0,0,5.786-5.223l-3.27-7.915a24.979,24.979,0,0,0,2.67-5.6l8.2-2.443a33.613,33.613,0,0,0,.446-3.877,32.911,32.911,0,0,0-.044-3.9l-7.908-3.285a24.688,24.688,0,0,0-2.078-5.852l4.067-7.542a32.874,32.874,0,0,0-5.216-5.779l-7.908,3.263a25.457,25.457,0,0,0-5.6-2.67l-2.451-8.2a33.613,33.613,0,0,0-3.877-.439,33.061,33.061,0,0,0-3.906.044l-3.277,7.908a25.513,25.513,0,0,0-5.852,2.07Zm19.458,15.42a11.353,11.353,0,1,1-11.931,10.753A11.353,11.353,0,0,1,426.668,361.3Z" transform="translate(-97.226 -81.882)" fill="#8dc4ca"/>
    <g id="Grupo_53767" data-name="Grupo 53767" transform="translate(73.184 343.142)">
      <path id="Trazado_100472" data-name="Trazado 100472" d="M255.288,570.035l26.174-9.3c.2-2.59.336-5.2.336-7.849s-.132-5.252-.336-7.849l-26.174-9.3L246.9,515.442l11.924-25.084a96.931,96.931,0,0,0-11.1-11.1l-25.091,11.924-20.285-8.4-9.3-26.166c-2.6-.212-5.2-.351-7.849-.351s-5.252.139-7.849.351l-9.3,26.166-20.285,8.4L120,479.262c-3.987,3.394-5.033,7.1-8.427,11.1l11.931,25.084L115.1,535.727l-26.166,9.3c-.212,2.6-.344,5.2-.344,7.849s.132,5.26.344,7.849l26.166,9.3,8.4,20.285L111.567,615.4a97.476,97.476,0,0,0,11.1,11.112l25.091-11.924L168.047,623l9.3,26.159c2.6.219,5.208.351,7.849.351s5.252-.132,7.849-.351l9.3-26.159,20.285-8.405,25.084,11.924a96.944,96.944,0,0,0,11.1-11.1L246.9,590.313Zm-29.817-.476-23.591,23.6H168.515l-23.6-23.6V536.2l23.6-23.591H201.88L225.471,536.2Z" transform="translate(-88.59 -456.27)" fill="none" stroke="#77cfd9" stroke-miterlimit="10" stroke-width="3"/>
      <path id="Trazado_100473" data-name="Trazado 100473" d="M233.24,581.04a19.89,19.89,0,1,1-19.89-19.89A19.89,19.89,0,0,1,233.24,581.04Z" transform="translate(-116.746 -484.429)" fill="none" stroke="#77cfd9" stroke-miterlimit="10" stroke-width="3"/>
    </g>
    <path id="Trazado_100474" data-name="Trazado 100474" d="M303.779,385.247v-5.7h-14.93a29.558,29.558,0,0,0-1.148-5.816l13.774-5.728-2.195-5.26L285.5,368.474a29.538,29.538,0,0,0-3.248-4.857l10.556-10.549-4.031-4.031-10.548,10.541a29.756,29.756,0,0,0-4.93-3.277l5.691-13.811-5.267-2.195-5.691,13.811a28.726,28.726,0,0,0-5.742-1.134V338.05h-5.7v14.938a29.456,29.456,0,0,0-5.816,1.149l-5.757-13.775-5.26,2.195,5.764,13.745a30.034,30.034,0,0,0-4.872,3.248L230.093,349.03l-4.031,4.031,10.556,10.556a29.992,29.992,0,0,0-3.285,4.938l-13.8-5.706-2.195,5.267,13.8,5.7a29.776,29.776,0,0,0-1.127,5.742H215.09v5.7h14.938a29.264,29.264,0,0,0,1.148,5.808l-13.782,5.728,2.195,5.267,13.782-5.728a30.329,30.329,0,0,0,3.255,4.865L226.07,411.75l4.031,4.023,10.526-10.563a29.5,29.5,0,0,0,4.93,3.284L239.9,422.3l5.26,2.195,5.713-13.818a29.262,29.262,0,0,0,5.742,1.134v14.93h5.7v-14.93a29.372,29.372,0,0,0,5.808-1.149l5.735,13.782,5.26-2.195-5.735-13.782a29.149,29.149,0,0,0,4.872-3.255L288.8,415.766l4.031-4.023-10.578-10.556a30.108,30.108,0,0,0,3.284-4.93l13.8,5.691,2.195-5.26-13.8-5.7a29.262,29.262,0,0,0,1.134-5.742Zm-44.344,8.259a11.112,11.112,0,1,1,11.112-11.112,11.112,11.112,0,0,1-11.112,11.112Z" transform="translate(-49.369 -81.388)" fill="#419ca6" stroke="#31757d" stroke-miterlimit="10" stroke-width="1"/>
    <path id="Trazado_100475" data-name="Trazado 100475" d="M403.331,463.7a43.014,43.014,0,0,0,0-10.5l-10.878-3.87a34,34,0,0,0-3.211-7.739l4.96-10.431a44.928,44.928,0,0,0-7.432-7.432l-10.431,4.989a34.42,34.42,0,0,0-7.732-3.211l-3.87-10.87a42.125,42.125,0,0,0-10.512,0l-3.87,10.87a34.279,34.279,0,0,0-7.732,3.211l-10.431-4.96a44.62,44.62,0,0,0-7.432,7.432l4.952,10.4a33.977,33.977,0,0,0-3.2,7.739l-10.885,3.87a43.014,43.014,0,0,0,0,10.5l10.885,3.87a33.976,33.976,0,0,0,3.2,7.74l-4.952,10.461a44.372,44.372,0,0,0,7.432,7.432l10.431-4.96a33.924,33.924,0,0,0,7.732,3.2l3.87,10.885a44.075,44.075,0,0,0,10.512,0l3.87-10.885a34.062,34.062,0,0,0,7.732-3.2l10.431,4.931a44.623,44.623,0,0,0,7.432-7.4l-4.96-10.431a34.005,34.005,0,0,0,3.211-7.739Zm-18.251-8.61H374.421a15.362,15.362,0,0,0-11.58-11.58V432.844a25.822,25.822,0,0,1,22.238,22.245Zm-25.6,9.766a6.408,6.408,0,1,1,6.408-6.408A6.408,6.408,0,0,1,359.476,464.855Zm-3.365-32.011v10.665a15.318,15.318,0,0,0-11.573,11.58H333.873A25.83,25.83,0,0,1,356.111,432.844Zm-22.238,28.968h10.666a15.362,15.362,0,0,0,11.573,11.58V484.05A25.823,25.823,0,0,1,333.873,461.812Zm28.968,22.238V473.392a15.362,15.362,0,0,0,11.58-11.58h10.658A25.815,25.815,0,0,1,362.841,484.05Z" transform="translate(-76.274 -101.86)" fill="none" stroke="#12263f" stroke-miterlimit="10" stroke-width="2" opacity="0.17"/>
    <g id="Grupo_53768" data-name="Grupo 53768" transform="translate(363.347 537.418)">
      <path id="Trazado_100476" data-name="Trazado 100476" d="M519.776,729.458a7.6,7.6,0,1,0-2.226,5.382A7.608,7.608,0,0,0,519.776,729.458Z" transform="translate(-490.434 -721.85)" fill="#fedba5"/>
      <path id="Trazado_100477" data-name="Trazado 100477" d="M539.369,762.545a2.443,2.443,0,0,0,2.3,2.568c1.258,0,1.587-1.148,1.587-2.568s-.329-2.575-1.587-2.575A2.443,2.443,0,0,0,539.369,762.545Z" transform="translate(-499.779 -732.085)" fill="#fedba5"/>
      <path id="Trazado_100478" data-name="Trazado 100478" d="M535.146,763.143a4.389,4.389,0,0,1,0-8.537v-6.818a30.276,30.276,0,0,0-18.676,0v21.55a30.277,30.277,0,0,1,18.676,0Z" transform="translate(-493.632 -728.418)" fill="#f26d3d"/>
      <path id="Trazado_100479" data-name="Trazado 100479" d="M489.134,762.545a2.443,2.443,0,0,0-2.29-2.575c-1.273,0-1.595,1.148-1.595,2.575s.322,2.568,1.595,2.568A2.436,2.436,0,0,0,489.134,762.545Z" transform="translate(-485.25 -732.085)" fill="#fedba5"/>
      <path id="Trazado_100480" data-name="Trazado 100480" d="M506.586,769.339v-21.55a30.277,30.277,0,0,0-18.676,0v6.818a4.389,4.389,0,0,1,0,8.537v6.2a30.277,30.277,0,0,1,18.676,0Z" transform="translate(-485.964 -728.418)" fill="#f26d3d"/>
      <path id="Trazado_100481" data-name="Trazado 100481" d="M502.46,777.61l.081,31.1a4.1,4.1,0,0,0,8.193,0V784.289a8.955,8.955,0,0,0,1.77,0v24.425a4.1,4.1,0,0,0,8.2,0l.08-31.1a28.75,28.75,0,0,0-7.688,1.353l-1.353.439v.11l-.168-.058-.161.058v-.11l-1.353-.439A28.588,28.588,0,0,0,502.46,777.61Z" transform="translate(-489.871 -736.821)" fill="#12263f"/>
      <path id="Trazado_100482" data-name="Trazado 100482" d="M502.45,744.415a31.626,31.626,0,0,1,8.434,1.463l.732.234.731-.234a31.551,31.551,0,0,1,8.464-1.463v-.585H502.45Z" transform="translate(-489.868 -727.751)" fill="#12263f"/>
    </g>
    <g id="Grupo_53778" data-name="Grupo 53778" transform="translate(581.572 134.529)">
      <g id="Grupo_53777" data-name="Grupo 53777">
        <g id="Grupo_53775" data-name="Grupo 53775">
          <g id="Grupo_53773" data-name="Grupo 53773">
            <g id="Grupo_53771" data-name="Grupo 53771" transform="translate(0 2.182)">
              <g id="Grupo_53770" data-name="Grupo 53770">
                <g id="Grupo_53769" data-name="Grupo 53769" transform="translate(0 20.786)">
                  <path id="Trazado_100483" data-name="Trazado 100483" d="M791.931,231.6c-1.463,2.436-3.614,3.438-5.94,2.48h0c-2.341-.958-2.926-3.8-2.012-6.13l8.3-14.564L809.3,202.49c5.486,7.4-2.838,13.577-2.838,13.577l-7.944,4.089Z" transform="translate(-783.568 -202.49)" fill="#12263f"/>
                  <path id="Trazado_100484" data-name="Trazado 100484" d="M826.9,269.6a5.121,5.121,0,0,0,.929,7.2h0a5.121,5.121,0,0,0,7.2-.929l10.717-15.128a5.5,5.5,0,0,0,1.149-3.372,5.413,5.413,0,0,0-2.019-3.987L826.655,240.62c-6.364,8.251-5.121,8.251-5.121,8.251l13.233,9.166Z" transform="translate(-793.735 -212.727)" fill="#12263f"/>
                </g>
                <path id="Trazado_100485" data-name="Trazado 100485" d="M817.409,182.147a9.51,9.51,0,1,0,3.78-6.234A9.51,9.51,0,0,0,817.409,182.147Z" transform="translate(-792.624 -174.075)" fill="#fedba5"/>
              </g>
              <path id="Trazado_100486" data-name="Trazado 100486" d="M829.973,213.9h0c.944-6.123-2.729-11.836-8.339-12.838s-11.039,3.065-12.282,9.137h0a2.491,2.491,0,0,1-.066.3l-2.977,16.554h.037c-.951,6.123,2.721,11.836,8.325,12.838s11.046-3.065,12.289-9.137h0a1.45,1.45,0,0,1,.073-.307Z" transform="translate(-789.643 -181.281)" fill="#12263f"/>
            </g>
            <g id="Grupo_53772" data-name="Grupo 53772" transform="translate(35.648)">
              <path id="Trazado_100487" data-name="Trazado 100487" d="M863.411,178.893a4.557,4.557,0,0,0,0-6.445h0a4.557,4.557,0,0,0-6.452,0L832.3,196.977c6.511,6.51,4.1,9.415,4.1,9.415Z" transform="translate(-832.3 -171.097)" fill="#12263f"/>
              <path id="Trazado_100488" data-name="Trazado 100488" d="M865.334,172.444l-1.814,1.814,4.9,8.047,3.365-3.431a4.56,4.56,0,0,0-6.452-6.445Z" transform="translate(-840.682 -171.092)" fill="#fedba5"/>
            </g>
            <path id="Trazado_100489" data-name="Trazado 100489" d="M795.438,282.609a5.12,5.12,0,0,1-6.62,2.985h0a5.12,5.12,0,0,1-2.977-6.584l14.806-39.4c9.693,3.658,8.12,9.3,8.12,9.3Z" transform="translate(-784.09 -189.488)" fill="#12263f"/>
          </g>
          <g id="Grupo_53774" data-name="Grupo 53774" transform="translate(30.754 25.719)">
            <path id="Trazado_100490" data-name="Trazado 100490" d="M830.438,210.588h0l1.192.124,1.3-1.068-.71-3.124-1.368-.139h0l-1.368-.132-1.317,2.919,1.083,1.3Z" transform="translate(-826.297 -206.25)" fill="#f26d3d"/>
            <path id="Trazado_100491" data-name="Trazado 100491" d="M830.884,213.2l-1.2-.124v.015l-1.192-.117-2.882,11.968,2.319,5.867h0l3.431-5.3Z" transform="translate(-825.61 -208.054)" fill="#f26d3d"/>
          </g>
        </g>
        <g id="Grupo_53776" data-name="Grupo 53776" transform="translate(57.411 2.625)">
          <rect id="Rectángulo_5161" data-name="Rectángulo 5161" width="15.859" height="24.52" transform="translate(0.805 0.812)" fill="#fff"/>
          <path id="Trazado_100492" data-name="Trazado 100492" d="M879.511,200.81H862.05V174.68h17.461ZM863.652,199.2h14.257V176.3H863.652Z" transform="translate(-862.05 -174.68)" fill="#f26d3d"/>
        </g>
      </g>
      <path id="Trazado_100493" data-name="Trazado 100493" d="M784.735,235.5,784,236.809c-.951,2.334-.329,5.172,2.012,6.13s4.492-.044,5.94-2.48l.417-.731Z" transform="translate(-783.57 -188.384)" fill="#fedba5"/>
    </g>
    <g id="Grupo_53790" data-name="Grupo 53790" transform="translate(452.848 448.932)">
      <g id="Grupo_53789" data-name="Grupo 53789">
        <g id="Grupo_53781" data-name="Grupo 53781">
          <g id="Grupo_53780" data-name="Grupo 53780">
            <g id="Grupo_53779" data-name="Grupo 53779">
              <path id="Trazado_100494" data-name="Trazado 100494" d="M611.919,609.456a8.42,8.42,0,1,0,8.259-8.566A8.42,8.42,0,0,0,611.919,609.456Z" transform="translate(-608.759 -600.888)" fill="#fedba5"/>
              <path id="Trazado_100495" data-name="Trazado 100495" d="M626.239,635.762h0c-.1-5.472-4.17-9.883-9.2-9.912s-9.151,4.338-9.32,9.8h0v.278l-.117,14.9h0c.1,5.472,4.17,9.883,9.2,9.912s9.144-4.345,9.312-9.81h0v-.271Z" transform="translate(-607.6 -607.59)" fill="#12263f"/>
            </g>
            <path id="Trazado_100496" data-name="Trazado 100496" d="M622.636,695.8a4.543,4.543,0,0,1-4.536,4.543h0a4.543,4.543,0,0,1-4.535-4.543l-.1-37.19c9.166,0,9.166,10.322,9.166,10.322Z" transform="translate(-609.176 -616.385)" fill="#12263f"/>
          </g>
          <path id="Trazado_100497" data-name="Trazado 100497" d="M641.587,646.26c2,1.514,2.67,3.511,1.6,5.464h0c-1.061,1.953-3.657,2.231-5.574,1.163l-11.09-8.193L615.94,627.138c7.03-4.1,11.653,3.826,11.653,3.826l5.04,8.654Z" transform="translate(-609.839 -607.62)" fill="#12263f"/>
        </g>
        <g id="Grupo_53784" data-name="Grupo 53784" transform="translate(33.874 0)">
          <g id="Grupo_53783" data-name="Grupo 53783" transform="translate(13.873)">
            <g id="Grupo_53782" data-name="Grupo 53782">
              <path id="Trazado_100498" data-name="Trazado 100498" d="M689.71,609.456a8.42,8.42,0,1,1-8.266-8.566A8.42,8.42,0,0,1,689.71,609.456Z" transform="translate(-672.872 -600.888)" fill="#fedba5"/>
              <path id="Trazado_100499" data-name="Trazado 100499" d="M674.72,635.762h0c.1-5.472,4.162-9.883,9.2-9.912s9.144,4.338,9.32,9.8h0v.278l.117,14.9h0c-.1,5.472-4.17,9.883-9.2,9.912s-9.151-4.345-9.312-9.81h0v-.271Z" transform="translate(-673.368 -607.59)" fill="#12263f"/>
            </g>
            <path id="Trazado_100500" data-name="Trazado 100500" d="M681.79,695.8a4.535,4.535,0,0,0,4.535,4.543h0a4.543,4.543,0,0,0,4.536-4.543l.1-37.19c-9.166,0-9.166,10.322-9.166,10.322Z" transform="translate(-675.266 -616.385)" fill="#12263f"/>
          </g>
          <path id="Trazado_100501" data-name="Trazado 100501" d="M656.016,646.26c-2.012,1.514-2.67,3.511-1.6,5.464h0c1.061,1.953,3.621,2.231,5.574,1.163l11.083-8.193,10.592-17.556c-7.03-4.1-11.653,3.826-11.653,3.826l-5.062,8.654Z" transform="translate(-653.907 -607.62)" fill="#12263f"/>
        </g>
        <g id="Grupo_53788" data-name="Grupo 53788" transform="translate(21.28 59.942)">
          <g id="Grupo_53786" data-name="Grupo 53786">
            <g id="Grupo_53785" data-name="Grupo 53785" transform="translate(0 3.453)">
              <path id="Trazado_100502" data-name="Trazado 100502" d="M662.922,691.142v-1.7a1.887,1.887,0,0,0-1.887-1.895h-22.45a1.887,1.887,0,0,0-1.895,1.895v1.7l13.123,3.782Z" transform="translate(-636.69 -687.55)" fill="#f26d3d"/>
              <path id="Trazado_100503" data-name="Trazado 100503" d="M651.415,697.974v1.938a.556.556,0,0,1-.563.563H648.76a.556.556,0,0,1-.556-.563v-1.938L636.69,694.66v13.467a1.9,1.9,0,0,0,1.895,1.895h22.472a1.9,1.9,0,0,0,1.887-1.895V694.66Z" transform="translate(-636.69 -689.459)" fill="#f26d3d"/>
            </g>
            <path id="Trazado_100504" data-name="Trazado 100504" d="M658.035,683.4a.563.563,0,0,1-.563.563h-9.678a.571.571,0,0,1-.563-.563h0a.571.571,0,0,1,.563-.571h9.714a.563.563,0,0,1,.563.571Z" transform="translate(-639.52 -682.83)" fill="#f26d3d"/>
          </g>
          <g id="Grupo_53787" data-name="Grupo 53787" transform="translate(8.003 0.439)">
            <rect id="Rectángulo_5162" data-name="Rectángulo 5162" width="0.549" height="3.972" transform="translate(9.685)" fill="#f26d3d"/>
            <rect id="Rectángulo_5163" data-name="Rectángulo 5163" width="0.549" height="3.972" transform="translate(0 0.132)" fill="#f26d3d"/>
          </g>
        </g>
      </g>
      <path id="Trazado_100505" data-name="Trazado 100505" d="M655.979,653.75c-1.975,1.507-2.633,3.5-1.565,5.435s3.621,2.231,5.574,1.163l.731-.527Z" transform="translate(-620.032 -615.081)" fill="#fedba5"/>
      <path id="Trazado_100506" data-name="Trazado 100506" d="M650.955,659.148c1.068-1.953.4-3.95-1.6-5.464l-.088-.073-4.455,6.276.571.424C647.334,661.379,649.894,661.1,650.955,659.148Z" transform="translate(-617.59 -615.043)" fill="#fedba5"/>
    </g>
    <g id="Grupo_53796" data-name="Grupo 53796" transform="translate(50.979 534.228)">
      <g id="Grupo_53795" data-name="Grupo 53795" transform="translate(0.004)">
        <g id="Grupo_53791" data-name="Grupo 53791">
          <path id="Trazado_100507" data-name="Trazado 100507" d="M107.018,797.5a4.214,4.214,0,1,0,8.427,0l.088-34.491h0V747.65h1.148l.051,19.685h0v1.39a3.753,3.753,0,0,0,7.5,0V748.638s0-8.383-7.4-8.508h-21.4C88,740.254,88,748.638,88,748.638v20.044h0a3.745,3.745,0,1,0,7.483,0v-1.4h0l.051-19.685h1.148v15.362h0l.08,34.491a4.221,4.221,0,0,0,8.442,0V772.39c.293,0,.6.044.907.044a6.23,6.23,0,0,0,.907-.044V797.5Z" transform="translate(-66.229 -723.569)" fill="#f26d3d"/>
          <path id="Trazado_100508" data-name="Trazado 100508" d="M117.664,725.325a7.827,7.827,0,1,0-7.827,7.82,7.827,7.827,0,0,0,7.827-7.82Z" transform="translate(-69.992 -717.49)" fill="#fedba5"/>
          <path id="Trazado_100509" data-name="Trazado 100509" d="M86.153,731.288a7.352,7.352,0,1,0-7.359,7.315A7.352,7.352,0,0,0,86.153,731.288Z" transform="translate(-61.787 -719.211)" fill="#fedba5"/>
          <path id="Trazado_100510" data-name="Trazado 100510" d="M133.91,731.315A7.315,7.315,0,1,0,141.291,724a7.315,7.315,0,0,0-7.381,7.315Z" transform="translate(-78.556 -719.238)" fill="#fedba5"/>
          <path id="Trazado_100511" data-name="Trazado 100511" d="M137.823,749.614v20.051a5.735,5.735,0,0,1-5.735,5.728h-.2l.059,23.745a3.965,3.965,0,0,0,7.922,0V775.524a8.209,8.209,0,0,0,.849.044,8.424,8.424,0,0,0,.863-.044.834.834,0,0,1,0,.124v23.474a3.965,3.965,0,0,0,7.922,0l.08-32.406h0V752.24h1.083l.044,18.537h0v1.295a3.526,3.526,0,0,0,6.979.688,3.7,3.7,0,0,0,.073-.731V753.206s0-7.871-6.957-8h-13.84A12.839,12.839,0,0,1,137.823,749.614Z" transform="translate(-78.014 -724.932)" fill="#12263f"/>
          <path id="Trazado_100512" data-name="Trazado 100512" d="M61.759,775.6a3.519,3.519,0,0,0,3.526-3.526v-1.295h0l.044-18.537h1.083v14.47h0l.073,32.406a3.965,3.965,0,1,0,7.93,0V775.53a8.4,8.4,0,0,0,.856.044,8.282,8.282,0,0,0,.856-.044.839.839,0,0,1,0,.124v23.474a3.965,3.965,0,0,0,7.93,0l.059-23.745h-.2a5.728,5.728,0,0,1-5.72-5.728V749.619a12.809,12.809,0,0,1,.834-4.389H65.2c-6.949.124-6.957,8-6.957,8v17.556h0v1.295a3.519,3.519,0,0,0,3.519,3.526Z" transform="translate(-58.24 -724.938)" fill="#12263f"/>
        </g>
        <g id="Grupo_53792" data-name="Grupo 53792" transform="translate(37.41 20.19)">
          <path id="Trazado_100513" data-name="Trazado 100513" d="M112.023,748.733h1.039l1.031-1.024-.878-2.619h-2.377l-.878,2.619,1.031,1.024Z" transform="translate(-109.536 -745.09)" fill="#12263f"/>
          <path id="Trazado_100514" data-name="Trazado 100514" d="M112.906,750.88h-1.039v.007h-1.031l-1.456,10.519,2.487,4.835h0l2.494-4.835Z" transform="translate(-109.38 -746.645)" fill="#12263f"/>
        </g>
        <path id="Trazado_100515" data-name="Trazado 100515" d="M114.04,741.84l1.573,2.56,3.767-2.56Z" transform="translate(-73.221 -724.028)" fill="#fff"/>
        <path id="Trazado_100516" data-name="Trazado 100516" d="M109.467,741.84l-1.573,2.56-3.775-2.56Z" transform="translate(-70.558 -724.028)" fill="#fff"/>
        <g id="Grupo_53793" data-name="Grupo 53793" transform="translate(60.767 23.13)">
          <path id="Trazado_100517" data-name="Trazado 100517" d="M143.448,752.043h.827l.827-.827-.695-2.107h-1.924l-.7,2.107.827.827Z" transform="translate(-141.436 -749.11)" fill="#f26d3d"/>
          <path id="Trazado_100518" data-name="Trazado 100518" d="M144.148,753.77h-.827v.007h-.841l-1.17,8.464,2.012,3.892h0l2-3.892Z" transform="translate(-141.31 -750.361)" fill="#f26d3d"/>
        </g>
        <path id="Trazado_100519" data-name="Trazado 100519" d="M145.05,746.5l1.273,2.056,3.036-2.056Z" transform="translate(-81.547 -725.279)" fill="#fff"/>
        <path id="Trazado_100520" data-name="Trazado 100520" d="M141.379,746.5l-1.273,2.056L137.07,746.5Z" transform="translate(-79.405 -725.279)" fill="#fff"/>
        <g id="Grupo_53794" data-name="Grupo 53794" transform="translate(15.04 23.928)">
          <path id="Trazado_100521" data-name="Trazado 100521" d="M80.931,753.133h.834l.827-.827-.7-2.107H79.972l-.7,2.107.827.827Z" transform="translate(-78.926 -750.2)" fill="#f26d3d"/>
          <path id="Trazado_100522" data-name="Trazado 100522" d="M81.638,754.86H79.97l-1.17,8.464,2,3.892h0l2-3.892Z" transform="translate(-78.8 -751.451)" fill="#f26d3d"/>
        </g>
        <path id="Trazado_100523" data-name="Trazado 100523" d="M82.54,747.59l1.273,2.048,3.036-2.048Z" transform="translate(-64.764 -725.571)" fill="#fff"/>
        <path id="Trazado_100524" data-name="Trazado 100524" d="M78.869,747.59,77.6,749.638,74.56,747.59Z" transform="translate(-62.622 -725.571)" fill="#fff"/>
      </g>
      <path id="Trazado_100525" data-name="Trazado 100525" d="M58.239,781.49v.322a3.526,3.526,0,1,0,7.044,0v-.322Z" transform="translate(-58.235 -734.673)" fill="#fedba5"/>
      <path id="Trazado_100526" data-name="Trazado 100526" d="M157.589,781.49v.322a3.526,3.526,0,1,0,7.044,0v-.322Z" transform="translate(-84.909 -734.673)" fill="#fedba5"/>
      <path id="Trazado_100527" data-name="Trazado 100527" d="M88,779v.146h0a3.745,3.745,0,1,0,7.483,0V779Z" transform="translate(-66.225 -734.005)" fill="#fedba5"/>
      <path id="Trazado_100528" data-name="Trazado 100528" d="M127.26,779v.146h0a3.745,3.745,0,1,0,7.491,0V779Z" transform="translate(-76.767 -734.005)" fill="#fedba5"/>
    </g>
    <g id="Grupo_53809" data-name="Grupo 53809" transform="translate(309.109 381.246)">
      <g id="Grupo_53808" data-name="Grupo 53808" transform="translate(0.022)">
        <g id="Grupo_53802" data-name="Grupo 53802" transform="translate(0 49.794)">
          <g id="Grupo_53800" data-name="Grupo 53800">
            <g id="Grupo_53799" data-name="Grupo 53799">
              <g id="Grupo_53798" data-name="Grupo 53798" transform="translate(0 20.79)">
                <path id="Trazado_100529" data-name="Trazado 100529" d="M426.08,604.85v28.866a11.873,11.873,0,0,0,23.745,0V604.85Z" transform="translate(-415.148 -604.85)" fill="#12263f"/>
                <path id="Trazado_100530" data-name="Trazado 100530" d="M420.648,604.85c-9.51,0-9.51,10.775-9.51,10.775V640.87a4.718,4.718,0,1,0,9.429,0v-4.835Z" transform="translate(-411.135 -604.85)" fill="#12263f"/>
                <g id="Grupo_53797" data-name="Grupo 53797" transform="translate(10.933 28.771)">
                  <path id="Trazado_100531" data-name="Trazado 100531" d="M443.86,687.72a5.311,5.311,0,0,0,5.311,5.311h0a5.3,5.3,0,0,0,5.3-5.311l.124-43.54c-10.739,0-10.739,12.085-10.739,12.085Z" transform="translate(-430.854 -644.18)" fill="#12263f"/>
                  <path id="Trazado_100532" data-name="Trazado 100532" d="M436.8,687.72a5.3,5.3,0,0,1-5.3,5.311h0a5.3,5.3,0,0,1-5.311-5.311l-.11-43.54c10.717,0,10.717,12.085,10.717,12.085Z" transform="translate(-426.08 -644.18)" fill="#12263f"/>
                </g>
                <path id="Trazado_100533" data-name="Trazado 100533" d="M452.529,608.413c0,1.96-.644,5.911-2.195,5.911H421.806c-1.529,0-1.565-3.95-1.565-5.911h0c0-1.946,1.244-3.563,2.765-3.563h26.759C451.293,604.85,452.529,606.467,452.529,608.413Z" transform="translate(-413.58 -604.85)" fill="#12263f"/>
              </g>
              <path id="Trazado_100534" data-name="Trazado 100534" d="M448.512,586.284a9.839,9.839,0,1,1-2.879-6.969,9.846,9.846,0,0,1,2.879,6.969Z" transform="translate(-415.883 -576.43)" fill="#fedba5"/>
            </g>
            <path id="Trazado_100535" data-name="Trazado 100535" d="M464.162,589.889v9.656h-8.171s-.051-.11-.1,0c-1.865.1-10.358.988-10.358,9.473h22.728a2.911,2.911,0,0,0,.439,0,4.389,4.389,0,0,0,4.389-4.389V589.9h0a4.492,4.492,0,1,0-8.961,0Z" transform="translate(-420.37 -578.755)" fill="#12263f"/>
          </g>
          <g id="Grupo_53801" data-name="Grupo 53801" transform="translate(19.725 25.054)">
            <path id="Trazado_100536" data-name="Trazado 100536" d="M441.4,615.237h1.288l1.295-1.28-1.09-3.277h-2.977l-1.1,3.277,1.28,1.28Z" transform="translate(-438.293 -610.68)" fill="#f26d3d"/>
            <path id="Trazado_100537" data-name="Trazado 100537" d="M442.5,617.92h-1.287v.007h-1.3L438.1,631.08l3.109,6.05h0l3.109-6.05Z" transform="translate(-438.1 -612.624)" fill="#f26d3d"/>
          </g>
          <path id="Trazado_100538" data-name="Trazado 100538" d="M443.91,606.63l1.968,3.189,4.718-3.189Z" transform="translate(-419.935 -584.538)" fill="#fff"/>
          <path id="Trazado_100539" data-name="Trazado 100539" d="M438.2,606.63l-1.968,3.189-4.711-3.189Z" transform="translate(-416.608 -584.538)" fill="#fff"/>
        </g>
        <g id="Grupo_53807" data-name="Grupo 53807" transform="translate(5.234)">
          <g id="Grupo_53803" data-name="Grupo 53803" transform="translate(6.913 7.11)">
            <path id="Trazado_100540" data-name="Trazado 100540" d="M440.984,566.373a1.6,1.6,0,0,1-1.734-1.529.812.812,0,0,1,.812-.8.8.8,0,0,1,.8.732.425.425,0,0,0,.293,0,.732.732,0,0,1,.775-.732.834.834,0,0,1,.775.871A1.6,1.6,0,0,1,440.984,566.373Z" transform="translate(-430.83 -530.419)" fill="#7abfba"/>
            <path id="Trazado_100541" data-name="Trazado 100541" d="M437.893,543.961c-3.292,0-7.14-.988-7.14-3.76a25.5,25.5,0,0,0-.995-3.511l-.044-.132c-.885-2.714-1.975-6.1-1.975-8.332a10.146,10.146,0,1,1,20.292,0c0,2.26-1.141,5.772-1.975,8.339a25.712,25.712,0,0,0-1.031,3.658C445.026,542.974,441.178,543.961,437.893,543.961Z" transform="translate(-427.74 -518.08)" fill="#f2884b"/>
            <path id="Trazado_100542" data-name="Trazado 100542" d="M439.42,555.916a11.587,11.587,0,0,1-3.84-.585c-1.873-.688-2.151-1.778-2.151-2.377a.812.812,0,1,1,1.617,0c0,.556,1.661,1.346,4.389,1.346s4.389-.79,4.389-1.346a.8.8,0,1,1,1.609,0C445.389,555.141,442.17,555.916,439.42,555.916Z" transform="translate(-429.266 -527.204)" fill="#7abfba"/>
            <path id="Trazado_100543" data-name="Trazado 100543" d="M439.421,560.315a11.4,11.4,0,0,1-3.84-.585c-1.873-.695-2.151-1.785-2.151-2.385a.812.812,0,0,1,1.617,0c0,.563,1.661,1.353,4.389,1.353s4.389-.79,4.389-1.353a.8.8,0,1,1,1.609,0C445.39,559.539,442.172,560.315,439.421,560.315Z" transform="translate(-429.268 -528.406)" fill="#7abfba"/>
            <path id="Trazado_100544" data-name="Trazado 100544" d="M439.42,564.664a11.573,11.573,0,0,1-3.84-.593c-1.873-.695-2.151-1.785-2.151-2.377a.812.812,0,1,1,1.617,0c0,.556,1.661,1.339,4.389,1.339s4.389-.783,4.389-1.339a.8.8,0,0,1,1.609,0C445.389,563.874,442.17,564.664,439.42,564.664Z" transform="translate(-429.266 -529.551)" fill="#7abfba"/>
            <path id="Trazado_100545" data-name="Trazado 100545" d="M442.265,541.145l-1.317-6.167-.534,1.917-1.595,2.9-1.4-4.4-.432,2.019-2.751-.827.337-1.141,1.529.461,1.1-5.135,1.909,6.049.212-.38,1.792-6.4,1.368,6.43.234-.783,2.173-.256.124,1.178-1.4.168Z" transform="translate(-429.485 -521.291)" fill="#dd4919"/>
          </g>
          <g id="Grupo_53804" data-name="Grupo 53804" transform="translate(0 16.54)">
            <path id="Trazado_100546" data-name="Trazado 100546" d="M458.629,532.016a.52.52,0,0,1-.519-.527h0a.512.512,0,0,1,.519-.519h3.789a.52.52,0,0,1,.527.519h0a.527.527,0,0,1-.527.527Z" transform="translate(-428.981 -530.97)" fill="#f2884b"/>
            <path id="Trazado_100547" data-name="Trazado 100547" d="M418.809,532.024a.519.519,0,0,1-.519-.527h0a.519.519,0,0,1,.519-.5h3.76a.519.519,0,0,1,.519.519h0a.519.519,0,0,1-.519.527Z" transform="translate(-418.29 -530.978)" fill="#f2884b"/>
          </g>
          <g id="Grupo_53805" data-name="Grupo 53805" transform="translate(4.758 4.847)">
            <path id="Trazado_100548" data-name="Trazado 100548" d="M453.908,518.544a.512.512,0,0,1-.731,0h0a.534.534,0,0,1,0-.732l2.663-2.67a.5.5,0,0,1,.732,0h0a.519.519,0,0,1,0,.732Z" transform="translate(-432.376 -514.986)" fill="#f2884b"/>
            <path id="Trazado_100549" data-name="Trazado 100549" d="M425.676,546.877a.512.512,0,0,1-.732,0h0a.519.519,0,0,1,0-.732l2.655-2.67a.527.527,0,0,1,.732,0h0a.541.541,0,0,1,0,.731Z" transform="translate(-424.794 -522.595)" fill="#f2884b"/>
          </g>
          <g id="Grupo_53806" data-name="Grupo 53806" transform="translate(4.764 4.853)">
            <path id="Trazado_100550" data-name="Trazado 100550" d="M453.184,544.2a.512.512,0,0,1,0-.731h0a.512.512,0,0,1,.732,0l2.655,2.67a.534.534,0,0,1,0,.732h0a.512.512,0,0,1-.732,0Z" transform="translate(-432.381 -522.596)" fill="#f2884b"/>
            <path id="Trazado_100551" data-name="Trazado 100551" d="M424.947,515.876a.534.534,0,0,1,0-.731h0a.519.519,0,0,1,.732,0l2.663,2.67a.556.556,0,0,1,0,.732h0a.541.541,0,0,1-.732,0Z" transform="translate(-424.802 -514.994)" fill="#f2884b"/>
          </g>
          <path id="Trazado_100552" data-name="Trazado 100552" d="M440.75,508.879a.512.512,0,0,1,.512-.519h0a.519.519,0,0,1,.527.519v3.782a.52.52,0,0,1-.519.519h0a.527.527,0,0,1-.519-.519Z" transform="translate(-424.32 -508.36)" fill="#f2884b"/>
        </g>
      </g>
      <path id="Trazado_100553" data-name="Trazado 100553" d="M411.109,652.89v.878a4.718,4.718,0,1,0,9.429,0v-.878Z" transform="translate(-411.105 -547.164)" fill="#f2884b"/>
      <path id="Trazado_100554" data-name="Trazado 100554" d="M479.9,590.722v-.878a4.521,4.521,0,1,0-9.034,0v.878Z" transform="translate(-427.15 -528.975)" fill="#f2884b"/>
    </g>
    <g id="Grupo_53815" data-name="Grupo 53815" transform="translate(486.706 233.837)">
      <g id="Grupo_53814" data-name="Grupo 53814" transform="translate(0.013)">
        <g id="Grupo_53813" data-name="Grupo 53813">
          <g id="Grupo_53812" data-name="Grupo 53812">
            <g id="Grupo_53811" data-name="Grupo 53811">
              <g id="Grupo_53810" data-name="Grupo 53810" transform="translate(0 17.653)">
                <path id="Trazado_100555" data-name="Trazado 100555" d="M708.132,341.77c2.429.607,3.833,2.195,3.606,4.389h0c-.219,2.195-2.465,3.475-4.674,3.255L693.655,346.2,677.05,334.17c4.872-6.518,12.216-1.024,12.216-1.024l8.047,6Z" transform="translate(-660.117 -330.981)" fill="#12263f"/>
                <path id="Trazado_100556" data-name="Trazado 100556" d="M661.5,361.435c-.9,2.341-2.648,3.533-4.813,3.05h0c-2.194-.483-3.145-2.868-2.663-5.04l5.069-13.9,13.211-12.026c5.852,5.633-.461,12.246-.461,12.246l-6.306,4.74Z" transform="translate(-653.902 -331.663)" fill="#12263f"/>
                <path id="Trazado_100557" data-name="Trazado 100557" d="M703.052,388.038a4.536,4.536,0,0,0,4.265,4.784h0a4.536,4.536,0,0,0,4.792-4.265l.292-16.386a4.8,4.8,0,0,0-.849-3.029,4.747,4.747,0,0,0-3.453-1.909L688.428,367c-.534,9.188-.044,8.668-.044,8.668h14.63Z" transform="translate(-663.105 -340.652)" fill="#12263f"/>
              </g>
              <path id="Trazado_100558" data-name="Trazado 100558" d="M674.33,315.4a8.412,8.412,0,1,0,8.281-8.551A8.412,8.412,0,0,0,674.33,315.4Z" transform="translate(-659.386 -306.849)" fill="#fedba5"/>
            </g>
            <path id="Trazado_100559" data-name="Trazado 100559" d="M691.524,340.974h0c-.073-5.464-3.811-9.9-8.464-9.934s-8.464,4.323-8.639,9.788h0v.278l-.132,14.857h0c.073,5.472,1.522,10.007,6.174,10.044s11.061,0,11.061,0l-.124-9.9h0v-.278Z" transform="translate(-659.376 -313.344)" fill="#12263f"/>
          </g>
          <path id="Trazado_100560" data-name="Trazado 100560" d="M676.922,403.535a4.543,4.543,0,0,1-5.121,3.877h0a4.535,4.535,0,0,1-3.877-5.121l4.945-36.861c9.085,1.251,8.266,7.732,8.266,7.732Z" transform="translate(-657.655 -322.577)" fill="#12263f"/>
          <path id="Trazado_100561" data-name="Trazado 100561" d="M686.72,420.04H663.75V418.5h21.426V403.83h24.133v1.544H686.72Z" transform="translate(-656.546 -332.887)" fill="#f26d3d"/>
        </g>
        <rect id="Rectángulo_5164" data-name="Rectángulo 5164" width="24.133" height="1.551" transform="translate(28.63 70.943)" fill="#f26d3d"/>
        <rect id="Rectángulo_5165" data-name="Rectángulo 5165" width="24.125" height="1.536" transform="translate(51.648 70.969) rotate(-45)" fill="#f26d3d"/>
        <path id="Trazado_100562" data-name="Trazado 100562" d="M753.048,373.54l-7.8,3.723,4.075,4.082Z" transform="translate(-678.428 -324.754)" fill="#f26d3d"/>
      </g>
      <path id="Trazado_100563" data-name="Trazado 100563" d="M654.737,366.29l-.732,1.953c-.483,2.195.49,4.557,2.663,5.04s3.914-.732,4.813-3.05l.38-1.046Z" transform="translate(-653.884 -322.808)" fill="#fedba5"/>
      <path id="Trazado_100564" data-name="Trazado 100564" d="M718.544,345.628l-1.163-.278-1.551,7.542,1.646.4c2.194.219,4.455-1.039,4.674-3.255S720.973,346.235,718.544,345.628Z" transform="translate(-670.516 -317.186)" fill="#fedba5"/>
    </g>
    <g id="Grupo_53817" data-name="Grupo 53817" transform="translate(560.528 354.026)">
      <g id="Grupo_53816" data-name="Grupo 53816">
        <path id="Trazado_100565" data-name="Trazado 100565" d="M777.47,491.311a10.08,10.08,0,1,0-10.08-10.08A10.08,10.08,0,0,0,777.47,491.311Z" transform="translate(-758.18 -471.15)" fill="#fedba5"/>
        <path id="Trazado_100566" data-name="Trazado 100566" d="M798.757,562.558a5.435,5.435,0,0,0,5.706-5.121l.2-19.619a5.472,5.472,0,0,0-5.187-5.852h-12.86a13.006,13.006,0,0,0,.183-1.865h0v-5.918h-6.371a7.088,7.088,0,0,1-3.8-3.511l-6.167-11.9a5.706,5.706,0,0,1,2.589-7.637,5.787,5.787,0,0,1,2.487-.571,5.713,5.713,0,0,1,5.12,3.181l5.333,10.316h.871v-2.1h0c-.168-6.547-5.062-11.8-11.09-11.8s-10.929,5.252-11.083,11.8h0v18.076h0c.161,6.437,4.894,11.616,10.768,11.8H793.7l-.044,14.981A5.435,5.435,0,0,0,798.757,562.558Z" transform="translate(-757.455 -478.939)" fill="#12263f"/>
        <path id="Trazado_100567" data-name="Trazado 100567" d="M779.34,557.19Z" transform="translate(-761.389 -494.25)" fill="#12263f"/>
        <path id="Trazado_100568" data-name="Trazado 100568" d="M758.355,549.146h27.439v16.079h3.548V545.6H758.355V510.09H754.8v55.134h3.555Z" transform="translate(-754.8 -481.605)" fill="#f26d3d"/>
        <path id="Trazado_100569" data-name="Trazado 100569" d="M859.94,534.67H805.12v3.54H816.7l-.249,33.613h3.555l.241-33.613h24.806v33.613h3.555V538.211H859.94Z" transform="translate(-768.31 -488.204)" fill="#f26d3d"/>
        <path id="Trazado_100570" data-name="Trazado 100570" d="M833.47,524.314H812.38V525.8H834.6v-.256l7.893-20.746-1.383-.527Z" transform="translate(-770.259 -480.042)" fill="#f26d3d"/>
        <path id="Trazado_100571" data-name="Trazado 100571" d="M801.07,516.449H787.464L781.612,505.2a3.972,3.972,0,1,0-7.14,3.475l6.181,11.946a5.119,5.119,0,0,0,3.987,2.926h15.984a3.8,3.8,0,0,0,4.133-3.336,3.745,3.745,0,0,0-3.687-3.76Z" transform="translate(-759.959 -479.661)" fill="#12263f"/>
      </g>
      <path id="Trazado_100572" data-name="Trazado 100572" d="M810.554,521.44H809.34v7.081h.812a3.8,3.8,0,0,0,4.133-3.336A3.745,3.745,0,0,0,810.554,521.44Z" transform="translate(-769.443 -484.652)" fill="#fedba5"/>
    </g>
    <g id="Grupo_53822" data-name="Grupo 53822" transform="translate(402.586 342.256)">
      <g id="Grupo_53821" data-name="Grupo 53821">
        <g id="Grupo_53819" data-name="Grupo 53819" transform="translate(0.527)">
          <g id="Grupo_53818" data-name="Grupo 53818">
            <path id="Trazado_100573" data-name="Trazado 100573" d="M571.222,484.016c2.268-2.063,4.828-2.4,6.92-.673h0c2.1,1.726,1.843,4.857.117,6.957l-9.129,14.967a4.821,4.821,0,0,1-3.592,1.287,4.871,4.871,0,0,1-3.475-1.573L548.94,486.964c1.083-2.195,2.436-2.926,4.287-2.89a11.148,11.148,0,0,1,4.162.98,7.389,7.389,0,0,1,2.926,2.136l4.879,7.776Z" transform="translate(-542.115 -462.356)" fill="#12263f"/>
            <path id="Trazado_100574" data-name="Trazado 100574" d="M539.61,465.338a10.241,10.241,0,1,0,2.987-7.265,10.241,10.241,0,0,0-2.987,7.265Z" transform="translate(-539.61 -455.06)" fill="#fedba5"/>
          </g>
          <path id="Trazado_100575" data-name="Trazado 100575" d="M595.377,482.286c-8.778-8.1-13.9-11.112-22.677-10.585v-2.926c8.778.527,13.9-2.494,22.677-10.585Z" transform="translate(-548.494 -455.9)" fill="#f26d3d"/>
        </g>
        <g id="Grupo_53820" data-name="Grupo 53820" transform="translate(0 21.675)">
          <path id="Trazado_100576" data-name="Trazado 100576" d="M561.589,496.789h0c-.124-6.679-5.121-12.077-11.236-12.1s-11.163,5.289-11.368,11.968h0v.336l-.1,18.142h0c.124,6.679,5.121,12.07,11.229,12.1s11.163-5.3,11.368-11.975h0v-.337Z" transform="translate(-538.89 -484.69)" fill="#12263f"/>
          <path id="Trazado_100577" data-name="Trazado 100577" d="M557.2,570.072a5.538,5.538,0,0,1-5.545,5.53h0a5.53,5.53,0,0,1-5.53-5.537L546,524.66c11.192,0,11.192,12.6,11.192,12.6Z" transform="translate(-540.799 -495.421)" fill="#12263f"/>
        </g>
        <path id="Trazado_100578" data-name="Trazado 100578" d="M607.089,480.826a.439.439,0,1,1,0-.878,8.9,8.9,0,1,0,0-17.8.439.439,0,0,1-.432-.439.432.432,0,0,1,.432-.432,9.773,9.773,0,0,1,0,19.546Z" transform="translate(-557.083 -456.73)" fill="#f26d3d"/>
        <path id="Trazado_100579" data-name="Trazado 100579" d="M607.092,479.383a.439.439,0,0,1-.432-.439.424.424,0,0,1,.432-.424,6.62,6.62,0,0,0,0-13.24.439.439,0,0,1,0-.87,7.491,7.491,0,1,1,0,14.974Z" transform="translate(-557.085 -457.569)" fill="#f26d3d"/>
        <path id="Trazado_100580" data-name="Trazado 100580" d="M607.092,477.855a.439.439,0,0,1,0-.87,4.206,4.206,0,1,0,0-8.405.439.439,0,0,1-.432-.439.432.432,0,0,1,.432-.432,5.077,5.077,0,1,1,0,10.146Z" transform="translate(-557.085 -458.455)" fill="#f26d3d"/>
      </g>
      <path id="Trazado_100581" data-name="Trazado 100581" d="M579.22,484.025l-.49.885,7.7,5.164c1.558-2.085,1.741-5.055-.285-6.723S581.488,481.962,579.22,484.025Z" transform="translate(-549.587 -462.365)" fill="#fedba5"/>
    </g>
    <g id="Grupo_53831" data-name="Grupo 53831" transform="translate(735.124 56.965)">
      <g id="Grupo_53830" data-name="Grupo 53830" transform="translate(0 0)">
        <g id="Grupo_53828" data-name="Grupo 53828">
          <g id="Grupo_53825" data-name="Grupo 53825" transform="translate(0 22.962)">
            <path id="Trazado_100582" data-name="Trazado 100582" d="M1024.63,122.62v24.615a10.139,10.139,0,0,0,20.27,0V122.62Z" transform="translate(-1001.842 -103.476)" fill="#12263f"/>
            <g id="Grupo_53823" data-name="Grupo 53823">
              <path id="Trazado_100583" data-name="Trazado 100583" d="M1062.2,103.37l-17.886,17.783c5.757,5.75,3.658,8.317,3.658,8.317l23.862-24.286a4.065,4.065,0,0,0,1.024-1.814Z" transform="translate(-1007.126 -98.307)" fill="#12263f"/>
              <path id="Trazado_100584" data-name="Trazado 100584" d="M994.657,103.326a4.023,4.023,0,0,1,0-5.691h0a4.016,4.016,0,0,1,5.7,0l21.785,21.66c-5.757,5.75-3.658,8.317-3.658,8.317Z" transform="translate(-993.478 -96.449)" fill="#12263f"/>
            </g>
            <g id="Grupo_53824" data-name="Grupo 53824" transform="translate(22.788 43.694)">
              <path id="Trazado_100585" data-name="Trazado 100585" d="M1039.81,193.356a4.543,4.543,0,0,0,4.535,4.535h0a4.535,4.535,0,0,0,4.535-4.535l.1-37.176c-9.166,0-9.166,10.314-9.166,10.314Z" transform="translate(-1028.706 -156.18)" fill="#12263f"/>
              <path id="Trazado_100586" data-name="Trazado 100586" d="M1033.8,193.356a4.535,4.535,0,0,1-4.535,4.535h0a4.521,4.521,0,0,1-4.528-4.535l-.1-37.176c9.166,0,9.166,10.314,9.166,10.314Z" transform="translate(-1024.63 -156.18)" fill="#12263f"/>
            </g>
            <path id="Trazado_100587" data-name="Trazado 100587" d="M1043.825,106.73a8.405,8.405,0,1,1-2.459-5.955A8.413,8.413,0,0,1,1043.825,106.73Z" transform="translate(-1002.478 -96.949)" fill="#fedba5"/>
          </g>
          <g id="Grupo_53827" data-name="Grupo 53827" transform="translate(44.594)">
            <path id="Trazado_100588" data-name="Trazado 100588" d="M1061.6,65.06c0,9,4.74,16.291,10.578,16.291s10.578-7.315,10.578-16.291Z" transform="translate(-1056.362 -65.06)" fill="#f26d3d"/>
            <rect id="Rectángulo_5166" data-name="Rectángulo 5166" width="1.719" height="8.749" transform="translate(14.952 13.197)" fill="#f26d3d"/>
            <path id="Trazado_100589" data-name="Trazado 100589" d="M1079.461,99.23H1068.73l4.111-4.17h2.509Z" transform="translate(-1058.276 -73.115)" fill="#f26d3d"/>
            <g id="Grupo_53826" data-name="Grupo 53826" transform="translate(0 2.026)">
              <path id="Trazado_100590" data-name="Trazado 100590" d="M1090.219,76.447a4.309,4.309,0,1,1,4.309-4.309A4.309,4.309,0,0,1,1090.219,76.447Zm0-7.249a2.926,2.926,0,1,0,2.926,2.926A2.926,2.926,0,0,0,1090.219,69.2Z" transform="translate(-1062.889 -67.83)" fill="#f26d3d"/>
              <path id="Trazado_100591" data-name="Trazado 100591" d="M1058.749,76.447a4.309,4.309,0,1,1,4.309-4.309A4.309,4.309,0,0,1,1058.749,76.447Zm0-7.249a2.926,2.926,0,1,0,2.926,2.926A2.926,2.926,0,0,0,1058.749,69.2Z" transform="translate(-1054.44 -67.83)" fill="#f26d3d"/>
            </g>
          </g>
        </g>
        <g id="Grupo_53829" data-name="Grupo 53829" transform="translate(30.308 46.085)">
          <path id="Trazado_100592" data-name="Trazado 100592" d="M1037.739,131.952h1.1l1.1-1.1-.929-2.794h-2.546l-.936,2.794,1.1,1.1Z" transform="translate(-1035.076 -128.06)" fill="#f26d3d"/>
          <path id="Trazado_100593" data-name="Trazado 100593" d="M1038.67,134.24h-1.1v.007h-1.112l-1.551,11.236,2.663,5.164h0l2.655-5.164Z" transform="translate(-1034.91 -129.719)" fill="#f26d3d"/>
        </g>
        <path id="Trazado_100594" data-name="Trazado 100594" d="M1039.87,124.59l1.69,2.729,4.023-2.729Z" transform="translate(-1005.934 -81.043)" fill="#fff"/>
        <path id="Trazado_100595" data-name="Trazado 100595" d="M1035,124.59l-1.683,2.729-4.031-2.729Z" transform="translate(-1003.093 -81.043)" fill="#fff"/>
      </g>
      <path id="Trazado_100596" data-name="Trazado 100596" d="M1004.112,101.331l-3.716-3.694a4.027,4.027,0,0,0-5.7,5.691l3.658,3.738Z" transform="translate(-993.489 -73.489)" fill="#f2884b"/>
      <path id="Trazado_100597" data-name="Trazado 100597" d="M1079.266,103.37h-10.622l-.315.307,5.742,5.742,4.169-4.235a4.066,4.066,0,0,0,1.024-1.814Z" transform="translate(-1013.575 -75.346)" fill="#f2884b"/>
    </g>
    <g id="Grupo_53836" data-name="Grupo 53836" transform="translate(111.15 215.989)">
      <path id="Trazado_100598" data-name="Trazado 100598" d="M503.3,282.45l8.537,17.293,19.078,2.772-13.8,13.467,3.255,19L503.3,326.012l-17.074,8.976,3.263-19L475.68,302.515l19.085-2.772Z" transform="translate(-230.483 -282.45)" fill="#f2884b"/>
      <g id="Grupo_53835" data-name="Grupo 53835" transform="translate(0 169.873)">
        <path id="Trazado_100599" data-name="Trazado 100599" d="M244.791,565.386c22.158-22.158,29.517-50.716,29.517-50.716s-28.529,7.367-50.716,29.517c-4.587,4.587-16.562,16.583-18.222,18.222-12.129,11.982-17.213,26.5-11.353,32.435h.044l.059.044c5.933,5.757,20.395.841,32.45-11.068C228.464,582,240.439,569.775,244.791,565.386Zm-15.64-5.8a2.82,2.82,0,1,0,0-.007Z" transform="translate(-154.208 -514.67)" fill="#fff"/>
        <g id="Grupo_53834" data-name="Grupo 53834" transform="translate(0 59.098)">
          <g id="Grupo_53832" data-name="Grupo 53832" transform="translate(0 13.176)">
            <path id="Trazado_100600" data-name="Trazado 100600" d="M168.26,668.627s19.956-11.185,27.117-18.288l-8.734-8.639C179.474,648.774,168.26,668.627,168.26,668.627Z" transform="translate(-147.946 -621.049)" fill="#e3a327"/>
            <path id="Trazado_100601" data-name="Trazado 100601" d="M140.49,640.478s19.948-11.221,27.066-18.288l-8.625-8.72C151.836,620.536,140.49,640.478,140.49,640.478Z" transform="translate(-140.49 -613.47)" fill="#e3a327"/>
          </g>
          <g id="Grupo_53833" data-name="Grupo 53833" transform="translate(14.74)">
            <path id="Trazado_100602" data-name="Trazado 100602" d="M185.387,596.506c-3.424-3.467-14.506,1.96-24.747,12.077l12.494,12.436C183.376,610.858,188.811,599.973,185.387,596.506Z" transform="translate(-160.64 -595.458)" fill="#fff"/>
            <path id="Trazado_100603" data-name="Trazado 100603" d="M213.188,624.619c-3.416-3.46-14.564,2.019-24.828,12.158l12.37,12.516C210.993,639.132,216.626,628.043,213.188,624.619Z" transform="translate(-168.082 -603.009)" fill="#fff"/>
          </g>
        </g>
        <path id="Trazado_100604" data-name="Trazado 100604" d="M251.906,539.57c-1.573,1.134-3.16,2.319-4.726,3.57l20.263,20.27c1.258-1.573,2.436-3.16,3.57-4.733Z" transform="translate(-169.135 -521.355)" fill="#e3a327"/>
        <path id="Trazado_100605" data-name="Trazado 100605" d="M220.844,609.544a58.6,58.6,0,0,0,4.7-3.6L204.458,584.87c-1.324,1.529-2.538,3.094-3.658,4.652Z" transform="translate(-156.682 -533.518)" fill="#e3a327"/>
        <path id="Trazado_100606" data-name="Trazado 100606" d="M253.233,572.9a9.985,9.985,0,1,0-14.126,0A9.985,9.985,0,0,0,253.233,572.9ZM241.126,561.01a6.8,6.8,0,1,1,0,9.627A6.8,6.8,0,0,1,241.126,561.01Z" transform="translate(-166.183 -525.729)" fill="#12263f"/>
      </g>
    </g>
    <g id="Grupo_53842" data-name="Grupo 53842" transform="translate(266.824 189.516)">
      <g id="Grupo_53837" data-name="Grupo 53837" transform="translate(0 340.996)">
        <line id="Línea_138" data-name="Línea 138" y2="42.625" transform="translate(0 42.625)" fill="none" stroke="#fff" stroke-linecap="square" stroke-miterlimit="10" stroke-width="5"/>
        <line id="Línea_139" data-name="Línea 139" x2="42.625" transform="translate(0 42.625)" fill="none" stroke="#fff" stroke-linecap="square" stroke-miterlimit="10" stroke-width="5"/>
        <line id="Línea_140" data-name="Línea 140" x2="42.618" transform="translate(42.625)" fill="none" stroke="#fff" stroke-linecap="square" stroke-miterlimit="10" stroke-width="5"/>
        <line id="Línea_141" data-name="Línea 141" y2="42.625" transform="translate(42.625)" fill="none" stroke="#fff" stroke-linecap="square" stroke-miterlimit="10" stroke-width="5"/>
      </g>
      <g id="Grupo_53838" data-name="Grupo 53838" transform="translate(85.244 255.745)">
        <line id="Línea_142" data-name="Línea 142" y2="42.625" transform="translate(0 42.625)" fill="none" stroke="#fff" stroke-linecap="square" stroke-miterlimit="10" stroke-width="5"/>
        <line id="Línea_143" data-name="Línea 143" x2="42.625" transform="translate(0 42.625)" fill="none" stroke="#fff" stroke-linecap="square" stroke-miterlimit="10" stroke-width="5"/>
        <line id="Línea_144" data-name="Línea 144" x2="42.625" transform="translate(42.625)" fill="none" stroke="#fff" stroke-linecap="square" stroke-miterlimit="10" stroke-width="5"/>
        <line id="Línea_145" data-name="Línea 145" y2="42.625" transform="translate(42.625)" fill="none" stroke="#fff" stroke-linecap="square" stroke-miterlimit="10" stroke-width="5"/>
      </g>
      <g id="Grupo_53839" data-name="Grupo 53839" transform="translate(170.494 170.502)">
        <line id="Línea_146" data-name="Línea 146" y2="42.618" transform="translate(0 42.625)" fill="none" stroke="#fff" stroke-linecap="square" stroke-miterlimit="10" stroke-width="5"/>
        <line id="Línea_147" data-name="Línea 147" x2="42.625" transform="translate(0 42.625)" fill="none" stroke="#fff" stroke-linecap="square" stroke-miterlimit="10" stroke-width="5"/>
        <line id="Línea_148" data-name="Línea 148" x2="42.625" transform="translate(42.625)" fill="none" stroke="#fff" stroke-linecap="square" stroke-miterlimit="10" stroke-width="5"/>
        <line id="Línea_149" data-name="Línea 149" y2="42.625" transform="translate(42.625)" fill="none" stroke="#fff" stroke-linecap="square" stroke-miterlimit="10" stroke-width="5"/>
      </g>
      <g id="Grupo_53840" data-name="Grupo 53840" transform="translate(255.745 85.251)">
        <line id="Línea_150" data-name="Línea 150" y2="42.625" transform="translate(0 42.625)" fill="none" stroke="#fff" stroke-linecap="square" stroke-miterlimit="10" stroke-width="5"/>
        <line id="Línea_151" data-name="Línea 151" x2="42.625" transform="translate(0 42.625)" fill="none" stroke="#fff" stroke-linecap="square" stroke-miterlimit="10" stroke-width="5"/>
        <line id="Línea_152" data-name="Línea 152" x2="42.625" transform="translate(42.625)" fill="none" stroke="#fff" stroke-linecap="square" stroke-miterlimit="10" stroke-width="5"/>
        <line id="Línea_153" data-name="Línea 153" y2="42.625" transform="translate(42.625)" fill="none" stroke="#fff" stroke-linecap="square" stroke-miterlimit="10" stroke-width="5"/>
      </g>
      <g id="Grupo_53841" data-name="Grupo 53841" transform="translate(340.996)">
        <line id="Línea_154" data-name="Línea 154" y2="42.625" transform="translate(0 42.625)" fill="none" stroke="#fff" stroke-linecap="square" stroke-miterlimit="10" stroke-width="5"/>
        <line id="Línea_155" data-name="Línea 155" x2="42.618" transform="translate(0 42.625)" fill="none" stroke="#fff" stroke-linecap="square" stroke-miterlimit="10" stroke-width="5"/>
        <line id="Línea_156" data-name="Línea 156" y2="42.625" transform="translate(42.618)" fill="none" stroke="#fff" stroke-linecap="square" stroke-miterlimit="10" stroke-width="5"/>
      </g>
    </g>
    <g id="Grupo_53843" data-name="Grupo 53843" transform="translate(434.934 445.261)">
      <line id="Línea_157" data-name="Línea 157" x2="1.829" fill="none" stroke="#89eaf5" stroke-miterlimit="10" stroke-width="2"/>
      <line id="Línea_158" data-name="Línea 158" x2="229.067" transform="translate(5.435)" fill="none" stroke="#89eaf5" stroke-miterlimit="10" stroke-width="2" stroke-dasharray="4.93 4.93"/>
      <line id="Línea_159" data-name="Línea 159" x2="1.829" transform="translate(236.302)" fill="none" stroke="#89eaf5" stroke-miterlimit="10" stroke-width="2"/>
    </g>
    <g id="Grupo_53844" data-name="Grupo 53844" transform="translate(351.321 531.616)">
      <line id="Línea_160" data-name="Línea 160" x2="1.829" fill="none" stroke="#89eaf5" stroke-miterlimit="10" stroke-width="2"/>
      <line id="Línea_161" data-name="Línea 161" x2="253.748" transform="translate(5.479)" fill="none" stroke="#89eaf5" stroke-miterlimit="10" stroke-width="2" stroke-dasharray="4.99 4.99"/>
      <line id="Línea_162" data-name="Línea 162" x2="1.829" transform="translate(261.049)" fill="none" stroke="#89eaf5" stroke-miterlimit="10" stroke-width="2"/>
    </g>
  </g>
</svg>
