<svg xmlns="http://www.w3.org/2000/svg" xmlns:xlink="http://www.w3.org/1999/xlink" width="640.385" height="656.793" viewBox="0 0 640.385 656.793">
  <defs>
    <clipPath id="clip-path">
      <path id="Trazado_101119" data-name="Trazado 101119" d="M359.93,294.49s27.5-11.85,32.71-35.09S378,210.57,378,210.57s-82.5,70.64-64.48,85.34c9.29,7.58,46.46,4.27,46.46,4.27" fill="#10272a"/>
    </clipPath>
    <clipPath id="clip-path-2">
      <path id="Trazado_101132" data-name="Trazado 101132" d="M328.16,408.75s-18,27.5-19,31.77c0,0-61.16,3.31-75.39,9.48s-19.43,24.65-7.11,34.13,94.35,12.81,117.11,4.75c0,0,117.58,15.64,137.49-7.12s-36-45-83.44-42.67c0,0-16.6-32.71-25.6-37S328.16,408.75,328.16,408.75Z" fill="#f26d3d"/>
    </clipPath>
    <clipPath id="clip-path-3">
      <path id="Trazado_101135" data-name="Trazado 101135" d="M307.62,315.93c.05.95-2,7.69-4,25.34S291.31,383.14,291.44,386s-6.39,5.52-11.52,17.63S263.8,424.3,261.07,426.8a34,34,0,0,0-11.9-.87c-6.14.76-11.91-.87-12.95-2.72,0,0-2.73,2.5-.25,4.76s8.08.1,9.63,2.87-2,7.22-5.42,6a8,8,0,0,1-5-5c-.54-1.4,1.56-7.19-2.76-8.41,0,0-1.3,7.89-.73,9.76,0,0-6-6.36-9.18-3.36,0,0,5.93,4.94,6.47,6.34,0,0-4.85-2.15-6.14.76,0,0,4.4,2.64,6.31,3s3.36.79,4.38,2.17c0,0-5.26-.71-5.6,2.16,0,0,5.21-.25,7.62.59s11.46,1.36,14.69-.69,47.65-26.43,57.5-49.2c0,0,11.87-40.43,11.9-49.92" fill="#ffa081"/>
    </clipPath>
    <clipPath id="clip-path-4">
      <path id="Trazado_101138" data-name="Trazado 101138" d="M402.13,317.72c-.06.95,1.16,3.75,3.05,21.42s12,41.95,11.82,44.79,6.35,5.57,11.39,17.71,16,20.81,18.68,23.33a33.919,33.919,0,0,1,11.91-.78c6.13.81,11.92-.78,13-2.62,0,0,2.71,2.52.21,4.76s-8.07,0-9.64,2.8,2,7.23,5.37,6a8,8,0,0,0,5-4.95c.56-1.4-1.5-7.21,2.83-8.4,0,0,1.24,7.9.66,9.77,0,0,6-6.32,9.2-3.3,0,0-6,4.9-6.51,6.3,0,0,4.86-2.12,6.13.8,0,0-4.42,2.61-6.34,3s-3.36.77-4.39,2.14c0,0,5.26-.67,5.58,2.2,0,0-5.2-.28-7.62.54s-11.47,1.28-14.68-.8-47.46-26.78-57.14-49.62c0,0-11.58-40.51-11.54-50" fill="#ffa081"/>
    </clipPath>
    <clipPath id="clip-path-5">
      <path id="Trazado_101141" data-name="Trazado 101141" d="M327.22,410.65l-9-64.48-11.28-26.6s-2.2-6.74,23.13-18.92c25.61-12.31,70.64,2.37,72.29,18.59,1.82,17.86-11.13,23.61-11.13,23.61l-10,67.8S358,422.5,327.22,410.65Z" fill="#ffa081"/>
    </clipPath>
    <clipPath id="clip-path-6">
      <path id="Trazado_101143" data-name="Trazado 101143" d="M332.76,300.58c-.79,2.37,13.35-14.66,12-39.28h16s0,30.65,16.22,40.22C377,301.52,351.51,325.17,332.76,300.58Z" fill="#ffa081"/>
    </clipPath>
    <clipPath id="clip-path-7">
      <path id="Trazado_101153" data-name="Trazado 101153" d="M309.59,314c.58,0,79.36,29,94.24,14,0,0,3,24.07,6.36,33.34,3.79,10.43,7.58,22.28,7.58,22.76,0,0-5.21-1-21.33,15.17-21.8,21.79-69,2-97.81-36.22C298.63,363.05,301.93,313.57,309.59,314Z" fill="#fad9c5"/>
    </clipPath>
    <clipPath id="clip-path-8">
      <path id="Trazado_101156" data-name="Trazado 101156" d="M384,250.93c0,19.61-21.94,35.5-31.17,35.5s-31.17-15.89-31.17-35.5,13.38-44.15,30.59-44.15S384,231.33,384,250.93Z" fill="#ffa081"/>
    </clipPath>
    <clipPath id="clip-path-9">
      <path id="Trazado_101159" data-name="Trazado 101159" d="M352.34,218.16s-16.12,10.43-23.7,34.13c0,0-4.27,10.43-1.42,16.12S341,281.69,338.59,288.8a27.09,27.09,0,0,1-10.43,20.86s10.43-4.27,19.44,12.33c0,0,19-10,32.72,7.58,0,0,9.95-11.38,19.91,3.32,0,0,9-6.16,13.75,5.69,0,0,7.11-5.69,4.74,10,0,0,8.06,6.63-1.9,12.8,0,0,1.43,3.32-4.26,6.64l-2.85-8.06s1.42-1.43,4.74-1.43c0,0-2.84-6.63,1.9-9.95,0,0-7.59-1.9-7.59-10,0,0-8.53,5.69-14.22-4.27,0,0-13.75,11.38-24.65-3.79,0,0-21.81,14.7-31.77-4.74,0,0-27,12.33-28.45-11.85,0,0-14.22-19.44,3.8-30.82,0,0-16.55-21.88-6.64-41.25,10.43-20.39,20.39-50.73,43.14-37.93,0,0,39.83-17.54,34.14,47.89C384.11,251.82,364.2,236.65,352.34,218.16Z" fill="#10272a"/>
    </clipPath>
  </defs>
  <g id="cf1_areas-vida" transform="translate(-28.786 -24.203)">
    <g id="Capa_2" data-name="Capa 2">
      <g id="Grupo_54092" data-name="Grupo 54092">
        <g id="Grupo_54070" data-name="Grupo 54070">
          <path id="Trazado_101099" data-name="Trazado 101099" d="M347.84,50a299,299,0,0,0-208,85.92l208,208Z" fill="#419ca6"/>
          <path id="Trazado_101100" data-name="Trazado 101100" d="M352.84,50V344L560.52,136.29A299,299,0,0,0,352.84,50Z" fill="#419ca6"/>
          <path id="Trazado_101101" data-name="Trazado 101101" d="M344.31,352.5H50a299,299,0,0,0,86.26,208Z" fill="#419ca6"/>
          <path id="Trazado_101102" data-name="Trazado 101102" d="M344.31,347.5l-208-208A299,299,0,0,0,50,347.5Z" fill="#419ca6"/>
          <path id="Trazado_101103" data-name="Trazado 101103" d="M352.84,356V650a299,299,0,0,0,207.68-86.25Z" fill="#419ca6"/>
          <path id="Trazado_101104" data-name="Trazado 101104" d="M356.38,347.5H650a299,299,0,0,0-85.92-207.67Z" fill="#419ca6"/>
          <path id="Trazado_101105" data-name="Trazado 101105" d="M347.84,356l-208,208a299,299,0,0,0,208,85.92Z" fill="#419ca6"/>
          <path id="Trazado_101106" data-name="Trazado 101106" d="M356.38,352.5,564.05,560.17A299,299,0,0,0,650,352.5Z" fill="#419ca6"/>
        </g>
        <g id="Grupo_54071" data-name="Grupo 54071">
          <path id="Trazado_101107" data-name="Trazado 101107" d="M347.84,148.58a200.8,200.8,0,0,0-138.32,57.06L347.84,344Z" fill="#77cfd9"/>
          <path id="Trazado_101108" data-name="Trazado 101108" d="M352.84,148.59V344l138-138a200.81,200.81,0,0,0-138-57.41Z" fill="#92d9e1"/>
          <path id="Trazado_101109" data-name="Trazado 101109" d="M344.31,347.5,206,209.17A200.74,200.74,0,0,0,148.59,347.5Z" fill="#92d9e1"/>
          <path id="Trazado_101110" data-name="Trazado 101110" d="M344.31,352.5H148.59A200.74,200.74,0,0,0,206,490.83Z" fill="#77cfd9"/>
          <path id="Trazado_101111" data-name="Trazado 101111" d="M347.84,356,209.52,494.36a200.8,200.8,0,0,0,138.32,57.06Z" fill="#ade2e8"/>
          <path id="Trazado_101112" data-name="Trazado 101112" d="M352.84,356V551.41a200.81,200.81,0,0,0,138-57.39Z" fill="#77cfd9"/>
          <path id="Trazado_101113" data-name="Trazado 101113" d="M356.38,347.5h195a200.72,200.72,0,0,0-57-138Z" fill="#77cfd9"/>
          <path id="Trazado_101114" data-name="Trazado 101114" d="M356.38,352.5l138,138a200.72,200.72,0,0,0,57-138Z" fill="#92d9e1"/>
        </g>
        <g id="Grupo_54091" data-name="Grupo 54091">
          <path id="Trazado_101115" data-name="Trazado 101115" d="M289.29,396.42l5.21-4.26c-2.32-5.32-7.9-6.21-11-6.27l-5.34,2.78C279.67,396.42,289.29,396.42,289.29,396.42Z" fill="#10272a"/>
          <path id="Trazado_101116" data-name="Trazado 101116" d="M332.67,391s-8.54-5.21-14.23,1.42c0,0-5.21-4.26-14.22,2.37l-3.32,1.43s9,7.11,19,1.89c0,0,15.64,2.37,16.12-1.89a4.64,4.64,0,0,0-3.35-5.22Z" fill="#10272a"/>
          <g id="Grupo_54073" data-name="Grupo 54073">
            <path id="Trazado_101117" data-name="Trazado 101117" d="M359.93,294.49s27.5-11.85,32.71-35.09S378,210.57,378,210.57s-82.5,70.64-64.48,85.34c9.29,7.58,46.46,4.27,46.46,4.27" fill="#10272a"/>
            <g id="Grupo_54072" data-name="Grupo 54072" clip-path="url(#clip-path)">
              <path id="Trazado_101118" data-name="Trazado 101118" d="M327.22,268.41s9,22.76,25.6,21.81,28.27-22.12,29.3-32.87-56.8-.79-54.9,11.06" fill="#10272a"/>
            </g>
          </g>
          <g id="Grupo_54076" data-name="Grupo 54076">
            <path id="Trazado_101120" data-name="Trazado 101120" d="M328.16,408.75s-18,27.5-19,31.77c0,0-61.16,3.31-75.39,9.48s-19.43,24.65-7.11,34.13,94.35,12.81,117.11,4.75c0,0,117.58,15.64,137.49-7.12s-36-45-83.44-42.67c0,0-16.6-32.71-25.6-37S328.16,408.75,328.16,408.75Z" fill="#f26d3d"/>
            <g id="Grupo_54075" data-name="Grupo 54075" clip-path="url(#clip-path-2)">
              <path id="Trazado_101121" data-name="Trazado 101121" d="M351.67,489.82a99.8,99.8,0,0,1-44.84-17.06s13.27,18.49,28.45,21.33S351.67,489.82,351.67,489.82Z" fill="#ef5a5c" opacity="0.23"/>
              <path id="Trazado_101122" data-name="Trazado 101122" d="M262.26,451.42c-.9,1-5.69,3.32-.95,5.22s30.82,16.12,37.46,14.22S267,446.21,262.26,451.42Z" fill="#ef5a5c" opacity="0.23"/>
              <path id="Trazado_101123" data-name="Trazado 101123" d="M402.53,468.42c1,.07,21.4-5.15,30.41-8.94s10.91-6.64,13.28-6.64,1.89-4.74-4.74-4.26-34.14,12.32-34.14,12.32l-4.81,8.21" fill="#ef5a5c" opacity="0.23"/>
              <path id="Trazado_101124" data-name="Trazado 101124" d="M396,456.64s-21.81,4.74-25.13,4.26,6.64-20.86,29.87-22.75c0,0-22.75-.48-37.93,16.59s-28-4.27-37.45-9c0,0,15.24,19.22,15.91,21.7,0,0,23.6-3,30.39-1.94,0,0,17.23.15,25.53-9.09Z" fill="#ef5a5c" opacity="0.23"/>
              <path id="Trazado_101125" data-name="Trazado 101125" d="M314.72,465.8c6.91,3.1,14.54,3.09,21.94,2.44,8.31-.73,16.58-1.75,24.92-2.14a202.18,202.18,0,0,1,26.05.37,50.582,50.582,0,0,1,7.77,1c2.26.55,4.5,1.19,6.74,1.84,4.64,1.36,9.36,2.7,13.88,4.45.42.17.61-.52.19-.69-3.87-1.5-7.9-2.65-11.88-3.85s-8-2.59-12.05-3c-17.06-1.93-34.2-1-51.23.87-8.65.94-17.81,1.77-26-1.9-.42-.19-.78.43-.36.61Z" fill="#c43239"/>
              <path id="Trazado_101126" data-name="Trazado 101126" d="M308.15,474.83a129.73,129.73,0,0,0,40,15.22c.45.09.64-.59.19-.68a129.531,129.531,0,0,1-39.88-15.15.352.352,0,0,0-.35.61Z" fill="#c43239"/>
              <path id="Trazado_101127" data-name="Trazado 101127" d="M283.74,460c-7.27-1.8-15-3.52-22.29-.86-.43.16-.25.85.19.69,7.17-2.62,14.76-.92,21.91.86C283.99,460.8,284.18,460.11,283.74,460Z" fill="#c43239"/>
              <g id="Grupo_54074" data-name="Grupo 54074" opacity="0.49">
                <path id="Trazado_101128" data-name="Trazado 101128" d="M340.4,466.89q-4-5.73-7.93-11.47" fill="#ef5a5c"/>
              </g>
              <path id="Trazado_101129" data-name="Trazado 101129" d="M401.89,437.55a39.61,39.61,0,0,0-9.58,1.85,48.665,48.665,0,0,0-9.08,3.68c-.4.22,0,.83.36.61a48.348,48.348,0,0,1,8.9-3.6,38.73,38.73,0,0,1,9.4-1.83C402.34,438.26,402.35,437.53,401.89,437.55Z" fill="#c43239"/>
              <path id="Trazado_101130" data-name="Trazado 101130" d="M306.83,440.42a19.6,19.6,0,0,1,13.32,6c.32.33.82-.17.5-.5a20.34,20.34,0,0,0-13.82-6.19.36.36,0,0,0,0,.71Z" fill="#c43239"/>
              <path id="Trazado_101131" data-name="Trazado 101131" d="M393.45,459.49c-6,3.09-12.22,5.48-19.06,5.56a.36.36,0,0,0,0,.71c7-.08,13.3-2.51,19.42-5.65.41-.21.05-.83-.36-.62Z" fill="#c43239"/>
            </g>
          </g>
          <g id="Grupo_54078" data-name="Grupo 54078">
            <path id="Trazado_101133" data-name="Trazado 101133" d="M307.62,315.93c.05.95-2,7.69-4,25.34S291.31,383.14,291.44,386s-6.39,5.52-11.52,17.63S263.8,424.3,261.07,426.8a34,34,0,0,0-11.9-.87c-6.14.76-11.91-.87-12.95-2.72,0,0-2.73,2.5-.25,4.76s8.08.1,9.63,2.87-2,7.22-5.42,6a8,8,0,0,1-5-5c-.54-1.4,1.56-7.19-2.76-8.41,0,0-1.3,7.89-.73,9.76,0,0-6-6.36-9.18-3.36,0,0,5.93,4.94,6.47,6.34,0,0-4.85-2.15-6.14.76,0,0,4.4,2.64,6.31,3s3.36.79,4.38,2.17c0,0-5.26-.71-5.6,2.16,0,0,5.21-.25,7.62.59s11.46,1.36,14.69-.69,47.65-26.43,57.5-49.2c0,0,11.87-40.43,11.9-49.92" fill="#ffa081"/>
            <g id="Grupo_54077" data-name="Grupo 54077" clip-path="url(#clip-path-3)">
              <path id="Trazado_101134" data-name="Trazado 101134" d="M298.77,363.23s10,20.39,22.76,28.45-6.17-43.14-22.76-28.45" fill="#e8815f" opacity="0.21"/>
            </g>
          </g>
          <g id="Grupo_54080" data-name="Grupo 54080">
            <path id="Trazado_101136" data-name="Trazado 101136" d="M402.13,317.72c-.06.95,1.16,3.75,3.05,21.42s12,41.95,11.82,44.79,6.35,5.57,11.39,17.71,16,20.81,18.68,23.33a33.919,33.919,0,0,1,11.91-.78c6.13.81,11.92-.78,13-2.62,0,0,2.71,2.52.21,4.76s-8.07,0-9.64,2.8,2,7.23,5.37,6a8,8,0,0,0,5-4.95c.56-1.4-1.5-7.21,2.83-8.4,0,0,1.24,7.9.66,9.77,0,0,6-6.32,9.2-3.3,0,0-6,4.9-6.51,6.3,0,0,4.86-2.12,6.13.8,0,0-4.42,2.61-6.34,3s-3.36.77-4.39,2.14c0,0,5.26-.67,5.58,2.2,0,0-5.2-.28-7.62.54s-11.47,1.28-14.68-.8-47.46-26.78-57.14-49.62c0,0-11.58-40.51-11.54-50" fill="#ffa081"/>
            <g id="Grupo_54079" data-name="Grupo 54079" clip-path="url(#clip-path-4)">
              <path id="Trazado_101137" data-name="Trazado 101137" d="M400.7,401.16s9-15.17,17.07-17.06S396.44,365.13,400.7,401.16Z" fill="#e8815f" opacity="0.21"/>
            </g>
          </g>
          <g id="Grupo_54082" data-name="Grupo 54082">
            <path id="Trazado_101139" data-name="Trazado 101139" d="M327.22,410.65l-9-64.48-11.28-26.6s-2.2-6.74,23.13-18.92c25.61-12.31,70.64,2.37,72.29,18.59,1.82,17.86-11.13,23.61-11.13,23.61l-10,67.8S358,422.5,327.22,410.65Z" fill="#ffa081"/>
            <g id="Grupo_54081" data-name="Grupo 54081" clip-path="url(#clip-path-5)">
              <path id="Trazado_101140" data-name="Trazado 101140" d="M321.53,391.68c-.14,1.05,43.71,30.31,64.76,14.21S325.79,357.55,321.53,391.68Z" fill="#e8815f" opacity="0.21"/>
            </g>
          </g>
          <g id="Grupo_54084" data-name="Grupo 54084">
            <path id="Trazado_101142" data-name="Trazado 101142" d="M332.76,300.58c-.79,2.37,13.35-14.66,12-39.28h16s0,30.65,16.22,40.22C377,301.52,351.51,325.17,332.76,300.58Z" fill="#ffa081"/>
            <g id="Grupo_54083" data-name="Grupo 54083" clip-path="url(#clip-path-6)">
              <ellipse id="Elipse_4064" data-name="Elipse 4064" cx="14.46" cy="11.62" rx="14.46" ry="11.62" transform="translate(338.12 266.99)" fill="#e8815f" opacity="0.34"/>
            </g>
          </g>
          <path id="Trazado_101144" data-name="Trazado 101144" d="M313.94,465.64s-1.9-5.21-3.79-10.9-10-6.16-16.12-2.85-19-4.26-23.71-4.74-11.38,0-10,3.8c1.67,4.44,7.59.47,10,3.32s29.87,20.86,37.93,20.86C308.25,475.13,313.94,473.7,313.94,465.64Z" fill="#ffa081"/>
          <path id="Trazado_101145" data-name="Trazado 101145" d="M394.22,458.77s2.39-5,4.83-10.49,10.5-5.18,16.32-1.28,19.29-2.42,24.05-2.44,11.33,1.1,9.54,4.74c-2.08,4.26-7.59-.26-10.22,2.34S407,469.53,399,468.75C399,468.75,393.45,466.79,394.22,458.77Z" fill="#ffa081"/>
          <g id="Grupo_54086" data-name="Grupo 54086">
            <path id="Trazado_101146" data-name="Trazado 101146" d="M309.59,314c.58,0,79.36,29,94.24,14,0,0,3,24.07,6.36,33.34,3.79,10.43,7.58,22.28,7.58,22.76,0,0-5.21-1-21.33,15.17-21.8,21.79-69,2-97.81-36.22C298.63,363.05,301.93,313.57,309.59,314Z" fill="#fad9c5"/>
            <g id="Grupo_54085" data-name="Grupo 54085" clip-path="url(#clip-path-7)">
              <path id="Trazado_101147" data-name="Trazado 101147" d="M294.57,337c9.1-4.43,21.12,2.52,30.3-1.78a14.43,14.43,0,0,1,3.12-1.31,9.67,9.67,0,0,1,3.08.1l29.63,4.28a57.928,57.928,0,0,0,8,.77c3.52,0,7.14-.6,10.49.37,1.59.46,3,1.27,4.61,1.8,4.1,1.41,8.64.88,13,.33l17.7-2.23c1.68-.21,4,0,4.17,1.6s-2.42,2.13-4.25,2.12c-5.44,0-10.75,1.52-16.17,2.06a86.882,86.882,0,0,1-11.75.13q-28.25-1-56.46-2.64c-3.63-.22-7.26-.44-10.84-1a10.389,10.389,0,0,0-3.84-.17c-1.05.24-2,.83-3,1.13-4,1.17-8-2.18-12.11-1.93-1.83.11-3.59.92-5.41.77s-3.64-2.1-2.51-3.44" fill="#ffebe6"/>
              <path id="Trazado_101148" data-name="Trazado 101148" d="M291.12,351.93c.41-2,3.34-2.74,5.48-2.12s3.88,2.08,6,2.85c6.4,2.35,13.37-2.33,20.26-2,4.66.21,9.08,2.72,13.71,2.19,1.36-.15,2.68-.57,4-.73,2.89-.35,5.76.45,8.59,1.07,9.33,2,19,2.2,28.59,2.36l17.59.28c5.29.08,10.67.16,15.77-1.15a25.479,25.479,0,0,1,6-1.23c2,0,4.28.85,5,2.61l-17.68,2.32a86.2,86.2,0,0,1-8.64.84c-4.41.14-8.82-.39-13.23-.57-13.68-.58-27.5,2.14-41,.17-3.56-.52-7.12-1.36-10.71-1.14-3.1.2-6.12,1.18-9.22,1.09a32.733,32.733,0,0,1-6.78-1.29,70.85,70.85,0,0,0-24.11-1.73l-2.94-4.3,3.57-.15" fill="#ffebe6"/>
              <path id="Trazado_101149" data-name="Trazado 101149" d="M291.17,367.3c4.16-2.51,9.68-1.9,14.44-.55s9.44,3.38,14.42,3.41c4.67,0,9.16-1.71,13.83-1.93,7.41-.35,14.69,3.14,22,2.15,3.1-.41,6.05-1.61,9.18-1.83a29.16,29.16,0,0,1,6.9.61l13.74,2.31a18.518,18.518,0,0,0,4.26.39,20.49,20.49,0,0,0,5.37-1.37,100.2,100.2,0,0,1,13.48-3.58c2.48-.47,5.18-.83,7.42.24a15.3,15.3,0,0,0,2.56,1.28c1.82.5,3.68-.47,5.53-.86s4.43.36,4.33,2.1c-5.22,1.72-11,.85-16.52,1.1-5.88.26-11.6,1.79-17.41,2.7a83.8,83.8,0,0,1-27.46-.25,70.211,70.211,0,0,0-9.33-1.38c-3.74-.14-7.44.58-11.14,1-9.26,1.1-18.64.47-27.94-.17l-15.31-1a75.695,75.695,0,0,1-11.76-1.42,3.41,3.41,0,0,1-2.16-1.11c-.46-.65-.08-1.78.77-1.77" fill="#ffebe6"/>
              <path id="Trazado_101150" data-name="Trazado 101150" d="M308.36,384.19c3.56-1.5,7.74-.95,11.48.1s7.36,2.59,11.25,3c11,1.27,22.52-6.39,32.79-2.44,1.79.69,3.55,1.74,5.49,1.66a19,19,0,0,0,4.21-1.14c4-1.09,8.26.39,12.14,1.84a7.39,7.39,0,0,0,4.5.67,27.658,27.658,0,0,0,3-1.57c2.36-1,5.08,0,7.65.35,3.81.52,7.65-.42,11.46-.95s8-.54,11.14,1.54c-2.32,1.63-5.37,2.06-8.28,2.25-9.69.61-19.63-.87-29,1.42a16.761,16.761,0,0,1-4.54.78,18.112,18.112,0,0,1-4.88-1.22c-6.06-2-12.62-2-19-2a77.9,77.9,0,0,0-7.94.24c-6.1.61-12.05,2.67-18.19,2.46-7.41-.27-14.36-3.84-21.78-3.91a8.82,8.82,0,0,1-3.17-.35,2,2,0,0,1-1.43-2.36c.35-.93,2.16-1.06,2.39-.09" fill="#ffebe6"/>
              <path id="Trazado_101151" data-name="Trazado 101151" d="M294.09,325.84c1.92-3.28,6.49-4.5,10.53-4.17s7.82,1.86,11.76,2.7a35.611,35.611,0,0,0,12.48.43c2.21-.32,4.43-.85,6.64-.54s4,1.32,6.09,1.87c7.3,2,14.71-2.29,22.24-3.24,5-.64,10.15.22,15.15,1.11,12.23,2.18,24.71,4.54,37,2.88-.07,2.78-4,3.73-7,3.82a280.857,280.857,0,0,1-35.65-1.16c-5.94-.57-11.89-1.33-17.85-1-4.18.22-8.33,1-12.51.83-7-.25-13.77-3.08-20.81-3.19a96,96,0,0,0-10.82,1,64,64,0,0,1-14.77-.27,4.45,4.45,0,0,1-2.75-1.07c-.65-.73-.4-2.12.61-2.26" fill="#ffebe6"/>
              <path id="Trazado_101152" data-name="Trazado 101152" d="M333.9,398.89c11.14.27,22.33.53,33.36-.85a51.39,51.39,0,0,1,7.41-.66,45.918,45.918,0,0,1,6.51.79q12,2,24.08,3.05c-7,3.09-15.1,2.74-22.76,1.76s-15.36-2.55-23-1.69c-4.43.5-8.78,1.81-13.23,1.66a20.09,20.09,0,0,1-9.64-2.84" fill="#ffebe6"/>
            </g>
          </g>
          <g id="Grupo_54088" data-name="Grupo 54088">
            <path id="Trazado_101154" data-name="Trazado 101154" d="M384,250.93c0,19.61-21.94,35.5-31.17,35.5s-31.17-15.89-31.17-35.5,13.38-44.15,30.59-44.15S384,231.33,384,250.93Z" fill="#ffa081"/>
            <g id="Grupo_54087" data-name="Grupo 54087" clip-path="url(#clip-path-8)">
              <path id="Trazado_101155" data-name="Trazado 101155" d="M352,217.25s11.21,23.64,29.17,32.22h0l-22.3-32.85-13.34-2.86s-19.77,29.6-16.91,38.53h0s16.38-31.73,26.87-34.9-5.68-4.66-5.68-4.66" fill="#b4593c" opacity="0.18"/>
            </g>
          </g>
          <g id="Grupo_54090" data-name="Grupo 54090">
            <path id="Trazado_101157" data-name="Trazado 101157" d="M352.34,218.16s-16.12,10.43-23.7,34.13c0,0-4.27,10.43-1.42,16.12S341,281.69,338.59,288.8a27.09,27.09,0,0,1-10.43,20.86s10.43-4.27,19.44,12.33c0,0,19-10,32.72,7.58,0,0,9.95-11.38,19.91,3.32,0,0,9-6.16,13.75,5.69,0,0,7.11-5.69,4.74,10,0,0,8.06,6.63-1.9,12.8,0,0,1.43,3.32-4.26,6.64l-2.85-8.06s1.42-1.43,4.74-1.43c0,0-2.84-6.63,1.9-9.95,0,0-7.59-1.9-7.59-10,0,0-8.53,5.69-14.22-4.27,0,0-13.75,11.38-24.65-3.79,0,0-21.81,14.7-31.77-4.74,0,0-27,12.33-28.45-11.85,0,0-14.22-19.44,3.8-30.82,0,0-16.55-21.88-6.64-41.25,10.43-20.39,20.39-50.73,43.14-37.93,0,0,39.83-17.54,34.14,47.89C384.11,251.82,364.2,236.65,352.34,218.16Z" fill="#10272a"/>
            <g id="Grupo_54089" data-name="Grupo 54089" clip-path="url(#clip-path-9)">
              <path id="Trazado_101158" data-name="Trazado 101158" d="M327.22,268.41s9,22.76,25.6,21.81,28.27-22.12,29.3-32.87-56.8-.79-54.9,11.06" fill="#10272a"/>
            </g>
          </g>
          <path id="Trazado_101160" data-name="Trazado 101160" d="M329,253.81c.9,3.69-.35,7.16-2.79,7.76s-5.16-1.9-6.07-5.58.35-7.16,2.79-7.76S328.12,250.13,329,253.81Z" fill="#ffa081"/>
          <path id="Trazado_101161" data-name="Trazado 101161" d="M380.88,250.5c-.9,3.68.35,7.15,2.79,7.75s5.17-1.9,6.07-5.58-.35-7.16-2.79-7.76S381.79,246.81,380.88,250.5Z" fill="#ffa081"/>
          <path id="Trazado_101162" data-name="Trazado 101162" d="M301.14,359.44c-10-3.32-14.22,8.54-14.22,8.54-7.12-2.85-9,6.16-9,6.16-6.17,5.21,0,12.33,0,12.33a11.569,11.569,0,0,0,.21,2.2l5.34-2.78a16.59,16.59,0,0,0-2.23.1c2.37-4.74-1.43-9.95-1.43-9.95a9.48,9.48,0,0,0,9.49-5.69c25.6,9.48,32.24-19.92,32.24-19.92S311.1,362.76,301.14,359.44Z" fill="#10272a"/>
          <path id="Trazado_101163" data-name="Trazado 101163" d="M334.46,253a19.015,19.015,0,0,0,12.16-.84,10.54,10.54,0,0,1-12.17.84Z" fill="#2e1f2d"/>
          <path id="Trazado_101164" data-name="Trazado 101164" d="M348.56,274.76a9.84,9.84,0,0,0,8.73-.63.41.41,0,0,0-.41-.7,9.13,9.13,0,0,1-8.11.54c-.49-.2-.7.59-.21.79Z" fill="#b94e2b"/>
          <path id="Trazado_101165" data-name="Trazado 101165" d="M348.66,266.78c.79,0,1.5.06,2.19.07a18.6,18.6,0,0,0,2-.06c.63-.06,1.34-.12,2-.22s1.38-.25,2.15-.38a4.58,4.58,0,0,1-1.82,1.44,6.5,6.5,0,0,1-4.59.32A4.91,4.91,0,0,1,348.66,266.78Z" fill="#b94e2b"/>
          <path id="Trazado_101166" data-name="Trazado 101166" d="M360.09,253.07a19.891,19.891,0,0,0,6.15.58,20.221,20.221,0,0,0,6-1.42,10.54,10.54,0,0,1-12.17.84Z" fill="#2e1f2d"/>
          <path id="Trazado_101167" data-name="Trazado 101167" d="M334.31,248.34a11.6,11.6,0,0,1,11.09-3.86c.71.14,1-1,.3-1.1a12.73,12.73,0,0,0-12.19,4.15c-.48.55.32,1.37.8.81Z" fill="#10272a"/>
          <path id="Trazado_101168" data-name="Trazado 101168" d="M372.6,247.05a12.71,12.71,0,0,0-12.19-4.15c-.72.14-.42,1.24.3,1.1a11.56,11.56,0,0,1,11.09,3.86c.48.55,1.28-.26.8-.81Z" fill="#10272a"/>
          <path id="Trazado_101169" data-name="Trazado 101169" d="M353.27,216.55a36.249,36.249,0,0,0,3.25,8.78,42.11,42.11,0,0,0,12.23,14.44,44.808,44.808,0,0,0,4,2.68c1.37.84,2.84,1.49,4.26,2.26-1.45-.69-3-1.28-4.37-2.06a39.709,39.709,0,0,1-4.15-2.5,41.43,41.43,0,0,1-7.39-6.29,41.869,41.869,0,0,1-5.81-7.85,37.321,37.321,0,0,1-3.87-9.09Z" fill="#10272a"/>
          <path id="Trazado_101170" data-name="Trazado 101170" d="M353.93,214.49a22.291,22.291,0,0,0-1.44,4.95,21.349,21.349,0,0,0-.27,5.24,17.31,17.31,0,0,0,1.1,5.15,18.62,18.62,0,0,0,2.58,4.68,19.32,19.32,0,0,1-3-4.49,18.569,18.569,0,0,1-1.61-5.23,24.09,24.09,0,0,1,.91-11Z" fill="#10272a"/>
          <path id="Trazado_101171" data-name="Trazado 101171" d="M355.51,216.31a20.49,20.49,0,0,0-2.46,1.92,25.408,25.408,0,0,0-2.22,2.3,22.5,22.5,0,0,0-3.46,5.45,23.31,23.31,0,0,1,1.12-3.09,22.267,22.267,0,0,1,1.58-2.92,24.55,24.55,0,0,1,1.95-2.72,22.844,22.844,0,0,1,2.37-2.47Z" fill="#10272a"/>
        </g>
      </g>
      <text id="Trabajo_carrera" data-name="Trabajo/carrera" transform="matrix(0.897, 0.442, -0.442, 0.897, 440.38, 39.52)" fill="#12263f" font-size="16" font-family="SegoeUI-Bold, Segoe UI" font-weight="700"><tspan x="0" y="0" letter-spacing="-0.03em">T</tspan><tspan y="0" letter-spacing="-0.01em">r</tspan><tspan y="0">abajo/car</tspan><tspan y="0" letter-spacing="-0.01em">r</tspan><tspan y="0">e</tspan><tspan y="0" letter-spacing="-0.01em">r</tspan><tspan y="0">a</tspan></text>
      <text id="Finanzas" transform="translate(625.35 188.61) rotate(63.947)" fill="#12263f" font-size="16" font-family="SegoeUI-Bold, Segoe UI" font-weight="700"><tspan x="0" y="0">Finanzas</tspan></text>
      <text id="Sociabilidad" transform="translate(32.38 446.7) rotate(63.947)" fill="#12263f" font-size="16" font-family="SegoeUI-Bold, Segoe UI" font-weight="700"><tspan x="0" y="0">Sociabilidad</tspan></text>
      <text id="Familia_pareja" data-name="Familia/pareja" transform="translate(617.41 546.95) rotate(-63.3)" fill="#12263f" font-size="16" font-family="SegoeUI-Bold, Segoe UI" font-weight="700"><tspan x="0" y="0" letter-spacing="-0.02em">F</tspan><tspan y="0">amilia/pa</tspan><tspan y="0" letter-spacing="-0.01em">r</tspan><tspan y="0">eja</tspan></text>
      <text id="Educación" transform="matrix(0.451, -0.892, 0.892, 0.451, 45.76, 243.79)" fill="#12263f" font-size="16" font-family="SegoeUI-Bold, Segoe UI" font-weight="700"><tspan x="0" y="0" letter-spacing="-0.01em">E</tspan><tspan y="0">ducación</tspan></text>
      <text id="Salud" transform="translate(462.27 657.98) rotate(-22.973)" fill="#12263f" font-size="16" font-family="SegoeUI-Bold, Segoe UI" font-weight="700"><tspan x="0" y="0">Salud</tspan></text>
      <text id="Espiritualidad" transform="translate(168.09 83.22) rotate(-24.775)" fill="#12263f" font-size="16" font-family="SegoeUI-Bold, Segoe UI" font-weight="700"><tspan x="0" y="0">Espiritualidad</tspan></text>
      <text id="Recreación_Diversión" data-name="Recreación/Diversión" transform="translate(136.1 605.04) rotate(26.9)" fill="#12263f" font-size="16" font-family="SegoeUI-Bold, Segoe UI" font-weight="700"><tspan x="0" y="0">Rec</tspan><tspan y="0" letter-spacing="-0.01em">r</tspan><tspan y="0">eación/Di</tspan><tspan y="0" letter-spacing="-0.01em">v</tspan><tspan y="0">ersión</tspan></text>
      <path id="Trazado_101172" data-name="Trazado 101172" d="M151.71,232.13h-4.29v-1.46a1.25,1.25,0,0,0-.9-1.26,35.36,35.36,0,0,0-9.09-1.16c-5.05,0-11.92,1.13-17,6.3-5-5.22-12-6.3-17-6.3a35.25,35.25,0,0,0-9.09,1.16,1.26,1.26,0,0,0-.91,1.26v1.45H89.19a1.25,1.25,0,0,0-1.26,1.26v40.27a1.26,1.26,0,0,0,1.26,1.26,1.33,1.33,0,0,0,.62-.16c.12-.07,12.73-7,30.33-2.53h.3a.809.809,0,0,0,.31,0c17.65-4.47,30.25,2.41,30.33,2.53a1.29,1.29,0,0,0,1.26,0,1.26,1.26,0,0,0,.63-1.09V233.39A1.26,1.26,0,0,0,151.71,232.13ZM90.45,271.64v-37h3v31.62a1.27,1.27,0,0,0,1.25,1.28h.2a56.306,56.306,0,0,1,7.88-.63,32.78,32.78,0,0,1,10.77,1.63,46.34,46.34,0,0,0-23.1,3.1Zm12.34-7.25a56.307,56.307,0,0,0-6.86.45V231.67a34.929,34.929,0,0,1,7.48-.84c4.72,0,11.22,1.09,15.74,6.18v31.41c-2.59-1.72-7.71-4.03-16.36-4.03ZM121.7,237c4.52-5,11-6.18,15.74-6.18a34.931,34.931,0,0,1,7.48.84v33.17a53.788,53.788,0,0,0-6.83-.46c-8.59,0-13.72,2.31-16.39,4Zm28.74,34.63a46.42,46.42,0,0,0-23.16-3.11,33.06,33.06,0,0,1,10.81-1.63,55.29,55.29,0,0,1,7.93.62,1.26,1.26,0,0,0,1.44-1.06.66.66,0,0,0,0-.2v-31.6h3Z" fill="#fff"/>
      <path id="Trazado_101173" data-name="Trazado 101173" d="M243.08,143.35a1.24,1.24,0,0,1-.27,0l-.27-.08-.24-.13a1.181,1.181,0,0,1-.21-.18.91.91,0,0,1-.18-.21c0-.08-.09-.16-.13-.24a2.757,2.757,0,0,1-.08-.27,1.229,1.229,0,0,1,0-.27,1.321,1.321,0,0,1,0-.28,2,2,0,0,1,.08-.26,1.361,1.361,0,0,1,.13-.24,1.24,1.24,0,0,1,.18-.22,1.729,1.729,0,0,1,.21-.17,1.41,1.41,0,0,1,.24-.13,1.38,1.38,0,0,1,.27-.08,1.28,1.28,0,0,1,.55,0,1.12,1.12,0,0,1,.26.08,1.19,1.19,0,0,1,.25.13,1.728,1.728,0,0,1,.21.17,1.843,1.843,0,0,1,.17.22.92.92,0,0,1,.13.24.791.791,0,0,1,.08.26,1.33,1.33,0,0,1,0,.28,1.238,1.238,0,0,1,0,.27.919.919,0,0,1-.08.27,1.409,1.409,0,0,1-.13.24,1.2,1.2,0,0,1-.17.21,1.181,1.181,0,0,1-.21.18l-.25.13-.26.08a1.27,1.27,0,0,1-.28,0Z" fill="#fff"/>
      <path id="Trazado_101174" data-name="Trazado 101174" d="M275.84,112.65a1.41,1.41,0,0,1-1-.42,3.4,3.4,0,0,0-4.78,0,1.414,1.414,0,0,1-2-2,6.22,6.22,0,0,1,8.77,0,1.42,1.42,0,0,1-1,2.41Z" fill="#fff"/>
      <path id="Trazado_101175" data-name="Trazado 101175" d="M287.46,123.65l-.45-1c-1.77-3.76-4.41-9.39-5.07-11.84A28,28,0,0,0,274.52,90a27.28,27.28,0,0,0-19.91-9,29.559,29.559,0,0,0-4.31.3,30.77,30.77,0,0,0-17.12,8,28.35,28.35,0,0,0-8.29,15.9h0a33.5,33.5,0,0,0,2.17,17.32c2.51,6.07,6.69,10.48,11.77,12.42a4.89,4.89,0,0,1,1.57,1.68,1.41,1.41,0,1,0,2.43-1.42,7.69,7.69,0,0,0-2.64-2.73.9.9,0,0,0-.24-.12c-9.53-3.55-13.79-16.63-12.28-26.72,2-11.72,10.61-19.76,23-21.53a28.209,28.209,0,0,1,3.9-.27,24.44,24.44,0,0,1,17.84,8,25.13,25.13,0,0,1,6.66,19,1.289,1.289,0,0,0,0,.44c.63,2.6,3.33,8.37,5.31,12.58l.45,1a.61.61,0,0,1,0,.58.6.6,0,0,1-.52.28h-4.28a1.41,1.41,0,0,0-1.41,1.41V131a3.39,3.39,0,0,1-2.06-.17,1.41,1.41,0,1,0-1.08,2.6,6.13,6.13,0,0,0,2.38.48,6.47,6.47,0,0,0,.76,0v5.78a2.29,2.29,0,0,1-2.29,2.29H265.5a1.41,1.41,0,0,0-1.14.59l-5.65,7.79h-15c.11-.49.22-1.07.33-1.71a1.41,1.41,0,1,0-2.78-.47,31.7,31.7,0,0,1-.69,3.21,1.42,1.42,0,0,0,.24,1.23,1.4,1.4,0,0,0,1.12.56h17.54a1.42,1.42,0,0,0,1.14-.58l5.65-7.8h10.16a5.11,5.11,0,0,0,5.11-5.11V128.52h2.87a3.42,3.42,0,0,0,3.1-4.87Z" fill="#fff"/>
      <path id="Trazado_101176" data-name="Trazado 101176" d="M259.07,114.76a16.927,16.927,0,0,0,1.7-2A15.73,15.73,0,0,0,263.69,101l-.15-1a1.4,1.4,0,0,0-1.6-1.18l-1.09.16h0a16.28,16.28,0,0,0-6.23,2.46,14,14,0,0,0-4.36-5.47l-.34-.27a1.4,1.4,0,0,0-2.07-.08l-.12.1a16.11,16.11,0,0,0-4.55,5.79,16.25,16.25,0,0,0-6.33-2.53h0l-1.08-.16a1.41,1.41,0,0,0-1.61,1.18l-.14,1a15.72,15.72,0,0,0,2.91,11.75,16.89,16.89,0,0,0,1.71,2c-1.82.81-3.48,2-3.48,4,0,4.06,6.9,6.19,13.72,6.19s13.72-2.13,13.72-6.19C262.54,116.81,260.89,115.57,259.07,114.76ZM261,101.9a12.92,12.92,0,0,1-2.46,9.22,13.32,13.32,0,0,1-8,5.15l-.16-.11a13,13,0,0,1,2.47-9.08A13.38,13.38,0,0,1,261,101.9Zm-13.23,17.9Zm2.21-24Zm-1.11,2.72a10.71,10.71,0,0,1,3.46,4.82,15.13,15.13,0,0,0-1.78,2,15.921,15.921,0,0,0-1.69,2.86,15.869,15.869,0,0,0-1.68-2.86,16.109,16.109,0,0,0-1.71-2,12.61,12.61,0,0,1,3.36-4.79Zm-12.15,3.35a13.35,13.35,0,0,1,8.19,5.18,12.91,12.91,0,0,1,2.47,9.08l-.15.11a13.31,13.31,0,0,1-8.05-5.15,12.92,12.92,0,0,1-2.5-9.19Zm12.14,20.25c-7,0-10.9-2.22-10.9-3.37,0-.16.16-1,3.21-2a16.33,16.33,0,0,0,5.75,2.29l.53.46a2.87,2.87,0,0,1,.33.28,1.43,1.43,0,0,0,1.07.5h0a1.44,1.44,0,0,0,1-.43l.11-.1c.18-.15.46-.39.79-.7a16.26,16.26,0,0,0,5.77-2.3c3.05,1,3.21,1.83,3.21,2-.01,1.18-3.85,3.4-10.91,3.4Z" fill="#fff"/>
      <g id="Grupo_54093" data-name="Grupo 54093">
        <path id="Trazado_101177" data-name="Trazado 101177" d="M594.77,227.73h.09S594.79,227.56,594.77,227.73Z" fill="#fff"/>
        <path id="Trazado_101178" data-name="Trazado 101178" d="M573.07,227.73h.09C573.14,227.56,573.07,227.73,573.07,227.73Z" fill="#fff"/>
      </g>
      <path id="Trazado_101179" data-name="Trazado 101179" d="M616.45,233.27a3.49,3.49,0,0,0-2.22-1.58l-4.87-1.12,2.25-.63a3.56,3.56,0,0,0-1.92-6.85L599.19,226a3.45,3.45,0,0,0-1.13-1.24c2.13-4,5.2-10.7,5.2-13.59a1.15,1.15,0,0,0-1.36-1.12,55.821,55.821,0,0,1-11.9,1.22,68.609,68.609,0,0,1-11.88-1.18,1.14,1.14,0,0,0-1.21,1.69,11.93,11.93,0,0,1,1.45,3.9c-3.85.11-7.85-.35-10.87-1.87a1.15,1.15,0,0,0-1.63,1.21,24.56,24.56,0,0,0,4.8,11.58h-.05a3.56,3.56,0,0,0-.46,7.08,41.687,41.687,0,0,1-5,6.26c-4.05,4.51-8.65,9.61-10.19,17.86a26.4,26.4,0,0,0,.07,11,20.331,20.331,0,0,0,4.17,8.37,25.671,25.671,0,0,0,11,7.48,41,41,0,0,0,27.47,0,25.67,25.67,0,0,0,11-7.48,20.33,20.33,0,0,0,4.17-8.37,26.571,26.571,0,0,0,.07-11c-1.55-8.25-6.14-13.35-10.19-17.86a58.284,58.284,0,0,1-3.78-4.46l13.68,3.14a3.55,3.55,0,0,0,3.81-5.35ZM590,213.54a56.721,56.721,0,0,0,10.76-.93,58.448,58.448,0,0,1-5,11.58,3.57,3.57,0,0,0-3.1,2.41h-3.15c-.07-.16-.15-.32-.24-.51-1-2.07-3-6.38-3-10.05a1.15,1.15,0,0,0-1.36-1.11,39.887,39.887,0,0,1-4.29.61,13.8,13.8,0,0,0-.76-2.83A76,76,0,0,0,590,213.54Zm7.35,14.19v4.85a1.29,1.29,0,0,1-2.57,0v-4.85a1.29,1.29,0,0,1,2.57,0Zm-28.82-11a28.521,28.521,0,0,0,10.1,1.26l2.25-.14c1.06-.1,2.13-.24,3.22-.42a30.431,30.431,0,0,0,2.9,9.17H573.58l-.08-.12a21.59,21.59,0,0,1-4.96-9.79Zm32.51,24.77c3.85,4.29,8.22,9.14,9.65,16.75,1.31,7,0,12.89-3.76,17.48-4.69,5.65-13.28,9-23,9s-18.28-3.38-23-9c-3.8-4.59-5.07-10.47-3.75-17.48,1.43-7.61,5.79-12.46,9.65-16.75a37.1,37.1,0,0,0,5.87-7.75h2.77a1.14,1.14,0,1,0,0-2.27h-4.88a1.29,1.29,0,0,1,0-2.57h21.88v2.57H580.94a1.14,1.14,0,1,0,0,2.27H592.7a3.56,3.56,0,0,0,3.37,2.42,3.08,3.08,0,0,0,.53,0,54.739,54.739,0,0,0,4.45,5.29Zm-1.42-13.2,10.67-3a1.29,1.29,0,0,1,.7,2.48l-6.1,1.71h-.15l-5.12-1.18v-.07Zm15.06,7.18a1.29,1.29,0,0,1-1.54,1l-13.59-3.12a4.174,4.174,0,0,0,.07-.71v-1.92l14.09,3.24a1.29,1.29,0,0,1,.98,1.47Z" fill="#fff"/>
      <path id="Trazado_101180" data-name="Trazado 101180" d="M591.23,256.72a3,3,0,0,0,2.95-3V252a8.4,8.4,0,0,0-7.27-8.32v-2a2.95,2.95,0,1,0-5.9,0v2.12a9.31,9.31,0,0,0,2,18.39h1.81a3.41,3.41,0,1,1,0,6.81H582.1a2.5,2.5,0,0,1-2.5-2.5,3,3,0,1,0-5.9,0,8.41,8.41,0,0,0,7.259,8.33v2a3,3,0,1,0,5.9,0v-2.11a9.31,9.31,0,0,0-2-18.4h-1.81a3.41,3.41,0,1,1,0-6.81h2.72a2.5,2.5,0,0,1,2.5,2.5v1.82A3,3,0,0,0,591.23,256.72Zm-5.45-9.54h-2.72a5.68,5.68,0,0,0,0,11.36h1.81a7.011,7.011,0,1,1,.78,14,1.14,1.14,0,0,0-1,1.13v3.07a.68.68,0,0,1-1.36,0v-3a1.14,1.14,0,0,0-1.13-1.14,6.14,6.14,0,0,1-6.13-6.13.68.68,0,0,1,1.36,0,4.78,4.78,0,0,0,4.77,4.77h2.72a5.68,5.68,0,1,0,0-11.35h-1.81a7.011,7.011,0,1,1-.79-14,1.14,1.14,0,0,0,1-1.13v-3.08a.68.68,0,1,1,1.36,0v3a1.14,1.14,0,0,0,1.14,1.13,6.14,6.14,0,0,1,6.13,6.13v1.82a.68.68,0,0,1-1.36,0V252a4.78,4.78,0,0,0-4.77-4.82Z" fill="#fff"/>
      <path id="Trazado_101181" data-name="Trazado 101181" d="M561.38,435.06a1.22,1.22,0,0,0-1.71.18,2.26,2.26,0,0,1-3.67,0,1.22,1.22,0,1,0-1.89,1.53,4.69,4.69,0,0,0,7.45,0,1.22,1.22,0,0,0-.18-1.71Z" fill="#fff"/>
      <path id="Trazado_101182" data-name="Trazado 101182" d="M552.28,427.84a1.22,1.22,0,0,0-1.22,1.22v1.39a1.22,1.22,0,0,0,2.44,0v-1.39A1.22,1.22,0,0,0,552.28,427.84Z" fill="#fff"/>
      <path id="Trazado_101183" data-name="Trazado 101183" d="M563.39,427.84a1.22,1.22,0,0,0-1.21,1.22v1.39a1.22,1.22,0,0,0,2.43,0v-1.39A1.22,1.22,0,0,0,563.39,427.84Z" fill="#fff"/>
      <path id="Trazado_101184" data-name="Trazado 101184" d="M601.67,442a1.21,1.21,0,0,0-1.71.17,2.26,2.26,0,0,1-3.67,0,1.22,1.22,0,0,0-1.89,1.54,4.7,4.7,0,0,0,7.44,0,1.21,1.21,0,0,0-.17-1.71Z" fill="#fff"/>
      <path id="Trazado_101185" data-name="Trazado 101185" d="M592.57,434.79a1.21,1.21,0,0,0-1.22,1.21v1.39a1.22,1.22,0,1,0,2.43,0V436A1.21,1.21,0,0,0,592.57,434.79Z" fill="#fff"/>
      <path id="Trazado_101186" data-name="Trazado 101186" d="M603.68,434.79a1.22,1.22,0,0,0-1.22,1.21v1.39a1.22,1.22,0,1,0,2.43,0V436A1.21,1.21,0,0,0,603.68,434.79Z" fill="#fff"/>
      <path id="Trazado_101187" data-name="Trazado 101187" d="M613,458l-8.92-3.57-.14-.07c6.16-1.4,9.08-3.74,9.21-3.85a1.13,1.13,0,0,0,.4-1,147.848,147.848,0,0,1-1.29-18,15.44,15.44,0,0,0-30.88,0c0,2.33-.11,5.19-.28,7.89l-2.48,1.24-7.3-3.65h-.06a13,13,0,0,0,.65-3.19,3.73,3.73,0,0,0,1.34-6.4v-7.57a6.34,6.34,0,0,0-2.79-5.23,5,5,0,0,0-4.85-3.71h-10.4a10.25,10.25,0,0,0-10.24,10.24v6.27a3.73,3.73,0,0,0,1.34,6.4,12.8,12.8,0,0,0,5.16,9.34v3.15L542,449.05a5,5,0,0,0-3.59,4.83v12.7a1.14,1.14,0,0,0,1.14,1.14h.16v13.16a1.14,1.14,0,1,0,2.27,0V467.72h4.23v13.16a1.14,1.14,0,1,0,2.28,0V461.26a5.071,5.071,0,0,0-.85-2.8l-1.95-2.92a1.14,1.14,0,0,0-1.89,1.27l1.95,2.91a2.81,2.81,0,0,1,.46,1.54v4.18h-5.53V453.88a2.75,2.75,0,0,1,2-2.65l3.91-1.17a12.9,12.9,0,0,0,12.49,9.85,12.77,12.77,0,0,0,6.09-1.53,3.73,3.73,0,0,0,3,1.53h.16v.17a10.26,10.26,0,0,0,5.21,8.91v1.85a.19.19,0,0,1-.11.16l-4.25,1.41a5,5,0,0,0-3.45,4.78v3.69a1.14,1.14,0,0,0,2.28,0v-3.69a2.76,2.76,0,0,1,1.89-2.62l1.25-.42a8.93,8.93,0,0,0,14.85,0l1.25.42a2.76,2.76,0,0,1,1.89,2.62v3.69a1.14,1.14,0,0,0,2.28,0v-3.69a5,5,0,0,0-3.45-4.78L583.74,471a.18.18,0,0,1-.12-.16V469a10.23,10.23,0,0,0,4.82-6.15,11.53,11.53,0,0,0,19.33-4.43l4.35,1.74a2.76,2.76,0,0,1,1.74,2.57V468h-4.23v-1.46a1.14,1.14,0,0,0-2.28,0v14.3a1.14,1.14,0,1,0,2.28,0V470.32h2.93v10.56a1.14,1.14,0,1,0,2.27,0V470.32H615a1.11,1.11,0,0,0,.81-.34,1.14,1.14,0,0,0,.33-.8v-6.46A5,5,0,0,0,613,458Zm-29.35-26.57a13.17,13.17,0,1,1,26.34,0,151.9,151.9,0,0,0,1.21,17.67,24.35,24.35,0,0,1-8,3.11V450.4a14.277,14.277,0,0,0,1.73-1.18,12.84,12.84,0,0,0,4.45-7.14,12.993,12.993,0,0,0,.32-2.85c0-6.43-4.65-7.36-9.15-8.25-2.86-.57-5.82-1.15-8.18-3a1.14,1.14,0,0,0-1.85.89s-.05,3-4.34,4.1a1.134,1.134,0,0,0,.55,2.2c3.59-.89,5.06-2.91,5.66-4.42a23.709,23.709,0,0,0,7.72,2.5c4.81,1,7.31,1.66,7.31,6a10.32,10.32,0,0,1-.26,2.35,10.562,10.562,0,0,1-16.45,6.24,12.878,12.878,0,0,0-3.11-4.8V438a1.16,1.16,0,0,0-.54-1,1.18,1.18,0,0,0-1.11-.05l-2.46,1.23c.07-2.37.13-4.62.13-6.71Zm1.63,8.34v4.12l-4.12-2.06Zm-13.33,0,4.12,2.06-4.12,2.06Zm-6.18,12.46v1.08a3.78,3.78,0,0,0-1.3,2.82,10.49,10.49,0,0,1-5.36,1.47,10.61,10.61,0,0,1-10.3-8.24l2.81-.84a7.63,7.63,0,0,0,14.26,2,13.257,13.257,0,0,0-.14,1.75Zm-12-5.2v-2.64a12.76,12.76,0,0,0,10.72,0v2.64a5.36,5.36,0,0,1-10.72,0Zm5.36-3.74a10.57,10.57,0,0,1-10.56-10.56,1.14,1.14,0,0,0-1.14-1.14,1.46,1.46,0,1,1,0-2.92H550a1.15,1.15,0,0,0,1.08-.78l1-3.14c2.62-.06,10.73-.42,15.29-2.71a1.14,1.14,0,1,0-1-2c-4.9,2.45-15,2.48-15.09,2.48a1.13,1.13,0,0,0-1.08.78l-1,3.12h-1.94v-5.36a8,8,0,0,1,8-8h10.4a2.75,2.75,0,0,1,2.72,2.33,1.13,1.13,0,0,0,.56.81,4.08,4.08,0,0,1,2.09,3.53v6.66h-1.47a1.14,1.14,0,1,0,0,2.28h1.3a1.46,1.46,0,1,1,0,2.92,1.14,1.14,0,0,0-1.13,1.14,10.58,10.58,0,0,1-10.65,10.6Zm7.64,3.74v-4a13.131,13.131,0,0,0,2.93-3v3a12.85,12.85,0,0,0-2.94,4.33.659.659,0,0,1-.04-.29Zm17,26.33a6.67,6.67,0,0,1-10.31,0l.73-.24a2.46,2.46,0,0,0,1.66-2.32v-.91a10,10,0,0,0,5.53,0v.91a2.45,2.45,0,0,0,1.67,2.32Zm4-15.76a1.14,1.14,0,0,0-1.14,1.14v1.3a8,8,0,0,1-15.93,0v-1.3a1.14,1.14,0,0,0-1.14-1.14h-1.3a1.47,1.47,0,0,1-1.46-1.47,1.44,1.44,0,0,1,.73-1.25,1,1,0,0,0,.27-.22c2.82-.08,11.94-.61,17.93-4a1.149,1.149,0,1,0-1.13-2c-5.25,3-13.5,3.6-16.5,3.72v-.14a10.59,10.59,0,0,1,1.8-5.89,1.16,1.16,0,0,0,1,.53,1.129,1.129,0,0,0,.51-.12l7.3-3.65,7.29,3.65a1.13,1.13,0,0,0,.51.12,1.19,1.19,0,0,0,.6-.17,1.13,1.13,0,0,0,.36-.36,10.59,10.59,0,0,1,1.8,5.89v1.67a1.15,1.15,0,0,0,.57,1,1.44,1.44,0,0,1,.73,1.25,1.47,1.47,0,0,1-1.46,1.47Zm9.1,6.5a9.28,9.28,0,0,1-7.78-4.23,3.72,3.72,0,0,0,2.42-6.55v-1.09a12.4,12.4,0,0,0-.08-1.36,12.791,12.791,0,0,0,5.44,1.2,12.93,12.93,0,0,0,4.06-.66v1.66a3.75,3.75,0,0,0,2.35,3.48l2.46,1a9.26,9.26,0,0,1-8.95,6.59Z" fill="#fff"/>
      <path id="Trazado_101188" data-name="Trazado 101188" d="M582.22,462.84a1.22,1.22,0,0,0-1.71.18,2.26,2.26,0,0,1-3.67,0,1.22,1.22,0,1,0-1.89,1.53,4.69,4.69,0,0,0,7.45,0A1.22,1.22,0,0,0,582.22,462.84Z" fill="#fff"/>
      <circle id="Elipse_4065" data-name="Elipse 4065" cx="1.22" cy="1.22" r="1.22" transform="translate(573.31 457.02)" fill="#fff"/>
      <circle id="Elipse_4066" data-name="Elipse 4066" cx="1.22" cy="1.22" r="1.22" transform="translate(581.58 457.02)" fill="#fff"/>
      <path id="Trazado_101189" data-name="Trazado 101189" d="M441.06,163.17a1.19,1.19,0,0,1-.84-.35L435.38,158a1.18,1.18,0,0,1-.34-.84,1.2,1.2,0,0,1,.34-.84l19.37-19.36-.78-.25a4.32,4.32,0,0,1-3-4.79l1.82-11.44H451l-.14.27c-2,4-9.83,19.44-12.71,25.15a4.57,4.57,0,0,1-4.11,2.53,4.439,4.439,0,0,1-.62,0,4.52,4.52,0,0,1-3.7-6.1l1-2.72a1.19,1.19,0,0,1,1.11-.77,1.25,1.25,0,0,1,.42.08,1.15,1.15,0,0,1,.66.62,1.2,1.2,0,0,1,0,.91l-1,2.73a2.14,2.14,0,0,0,1.72,2.89,2,2,0,0,0,.38,0,2.19,2.19,0,0,0,2-1.22c3.3-6.53,13.09-25.88,13.18-26.07a1.19,1.19,0,0,1,1.06-.65h4a1.18,1.18,0,0,1,.9.41,1.16,1.16,0,0,1,.27,1l-2,12.82a1.94,1.94,0,0,0,3.79.82L461,119.33a5,5,0,0,0-4.85-6.38H443.4l-5.66,14.82a1.18,1.18,0,0,1-1.1.77,1.26,1.26,0,0,1-.43-.08,1.18,1.18,0,0,1-.68-1.53l2.22-5.83-.82-.53-4.69,4.69a3.37,3.37,0,0,1-4.77,0L415,112.79a3.38,3.38,0,0,1,0-4.78l9.05-9a3.38,3.38,0,0,1,4.78,0l3.92,3.92.32-.57a4.19,4.19,0,0,1,2.48-2,23.31,23.31,0,0,0,11.71-7.74l.14-.14A8.29,8.29,0,0,1,451.71,90l.76-.17-.46-.62A7.2,7.2,0,1,1,460,91.89l-.8.25.6.58a7.74,7.74,0,0,0,5.4,2.25,7.09,7.09,0,0,0,3.18-.75,12.251,12.251,0,0,0,2.28-1.49l.46-.38a4.12,4.12,0,0,1,2.65-1,3.87,3.87,0,0,1,.48,0,4.14,4.14,0,0,1,2.84,1.6,4.19,4.19,0,0,1-.69,5.81l-.4.34a20.47,20.47,0,0,1-13,4.71,15.138,15.138,0,0,1-1.77-.07h-.38l-2.49,7.11.46.17a7.5,7.5,0,0,1,3.3,2.46,7.35,7.35,0,0,1,1.23,6.47L460,131.68l8.68-8.67a1.183,1.183,0,0,1,1.68,0l6.32,6.32,8.43-8.42-2.32-2.32a1.2,1.2,0,0,1-.3-1.18,1.17,1.17,0,0,1,.9-.82l14.54-2.93h.23a1.19,1.19,0,0,1,.84.35,1.21,1.21,0,0,1,.33,1.07l-2.93,14.53a1.21,1.21,0,0,1-.82.91,1.33,1.33,0,0,1-.34.05h0a1.21,1.21,0,0,1-.84-.35l-2.78-2.78-14.1,14.1a1.17,1.17,0,0,1-1.67,0l-6.33-6.32L460.74,144a1.22,1.22,0,0,1-.84.35,1.187,1.187,0,0,1-.84-2.03l9.62-9.62a1.19,1.19,0,0,1,.84-.35,1.21,1.21,0,0,1,.84.35l6.33,6.33,14.1-14.1a1.17,1.17,0,0,1,1.67,0l2.05,2,2.14-10.61L486,118.48l1.6,1.59a1.2,1.2,0,0,1,0,1.68l-10.11,10.1a1.17,1.17,0,0,1-1.67,0l-6.33-6.33L437.9,157.14l3.16,3.16,8.46-8.46a1.19,1.19,0,0,1,.84-.35,1.22,1.22,0,0,1,.84.35,1.2,1.2,0,0,1,0,1.68l-9.3,9.3a1.21,1.21,0,0,1-.84.35Zm-24.38-53.48a1,1,0,0,0,0,1.42l12.46,12.47a1,1,0,0,0,1.43,0l3.68-3.69-4.47-4.46-.32.15a3.43,3.43,0,0,1-1.52.35,3.49,3.49,0,0,1-2.48-1l-.51-.52a3.44,3.44,0,0,1-1-2.47,3.5,3.5,0,0,1,.35-1.53l.15-.32-4.06-4Zm11.26-2.77a1.19,1.19,0,0,1,.84.35l3.8,3.8a1.2,1.2,0,0,1,0,1.67l-1.06,1.06,4.41,4.41,3.68-3.68a1,1,0,0,0,0-1.42l-5.3-5.31a4.131,4.131,0,0,1-1-1l-6.2-6.21a1,1,0,0,0-1.42,0L422,104.33l4,4,1.06-1.06A1.21,1.21,0,0,1,427.94,106.92Zm-1.32,4.18a1.15,1.15,0,0,0,0,1.61l.52.51a1.13,1.13,0,0,0,.8.33,1.11,1.11,0,0,0,.8-.33l1.32-1.31-2.12-2.12Zm15.14-4.1c-.92.4-1.87.76-2.82,1.07l-.78.25,3.25,3.25,1.3-5Zm11.7-14.77a5.92,5.92,0,0,0-5.72,4.42l-3.62,13.94h11.74l3-8.51a1.18,1.18,0,0,1,1.11-.79h.19a17.422,17.422,0,0,0,2.77.22,18.06,18.06,0,0,0,11.53-4.17l.4-.33a1.87,1.87,0,0,0,.34-2.54,1.8,1.8,0,0,0-1.24-.69h-.2a1.8,1.8,0,0,0-1.15.41l-.45.38a14.429,14.429,0,0,1-2.73,1.79,9.42,9.42,0,0,1-4.25,1,10.14,10.14,0,0,1-7.38-3.24,5.82,5.82,0,0,0-4.34-1.91Zm-9.71,6.85a25.85,25.85,0,0,1-7.54,3.57,1.82,1.82,0,0,0-1.24,2.24,1.84,1.84,0,0,0,.17.38v.06l.59.59h.06a1.75,1.75,0,0,0,.89.24,1.841,1.841,0,0,0,.33,0h.17a29.689,29.689,0,0,0,6.12-2.53l.18-.1,1.35-5.18Zm14.08-18.87a4.815,4.815,0,1,0,0-.02Z" fill="#fff"/>
      <path id="Trazado_101190" data-name="Trazado 101190" d="M455.16,149.13a1.2,1.2,0,1,1,.84-.35A1.2,1.2,0,0,1,455.16,149.13Z" fill="#fff"/>
      <path id="Trazado_101191" data-name="Trazado 101191" d="M434.23,134.85a1.21,1.21,0,0,1-.84-.35,1.19,1.19,0,0,1-.35-.84,1.22,1.22,0,0,1,.35-.84,1.2,1.2,0,0,1,.84-.34,1.181,1.181,0,0,1,.84,2.02A1.21,1.21,0,0,1,434.23,134.85Z" fill="#fff"/>
      <g id="Grupo_54094" data-name="Grupo 54094">
        <path id="Trazado_101192" data-name="Trazado 101192" d="M491.16,610.08h-10.8a1.12,1.12,0,1,0,0,2.24h10.8a1.12,1.12,0,0,0,0-2.24Z" fill="#fff"/>
        <path id="Trazado_101193" data-name="Trazado 101193" d="M491.16,592.83a1.13,1.13,0,0,0,0-2.25h-9.3a2,2,0,0,1-1.66-.86,10.5,10.5,0,0,0-2.56-2.59,1.121,1.121,0,0,0-1.31,1.82,8.67,8.67,0,0,1,2,2.06,4.26,4.26,0,0,0,3.49,1.82Z" fill="#fff"/>
        <path id="Trazado_101194" data-name="Trazado 101194" d="M475.13,610.08H440.41a11,11,0,0,1-7.93-3.4l-13.72-14.37A3.09,3.09,0,0,1,421,587.1h0a3.06,3.06,0,0,1,2.19.92l12.6,12.78a1.1,1.1,0,0,0,.8.34h26.75a1.13,1.13,0,0,0,0-2.25H449.81a3.024,3.024,0,0,1-3.03-3.12,3.09,3.09,0,0,1,3.12-2.94h10.73a4.3,4.3,0,0,0,3.46-1.77l.1-.14a8.69,8.69,0,0,1,6.93-3.61h.9a1.12,1.12,0,1,0,.2-2.23h-1.17a10.886,10.886,0,0,0-8.7,4.53l-.1.14a2,2,0,0,1-1.65.84h-3.95l22.69-22.82a16,16,0,0,0-11.26-27.35H468a16,16,0,0,0-10.68,4.06,16.212,16.212,0,0,0-3.37,4.24,16.211,16.211,0,0,0-3.37-4.24,16,16,0,0,0-10.68-4.06h-.08a16,16,0,0,0-11.26,27.34l3.45,3.47a1.121,1.121,0,0,0,1.58-1.59l-3.45-3.47a13.786,13.786,0,1,1,22.74-14.35,1.12,1.12,0,0,0,2.12,0,13.79,13.79,0,1,1,22.74,14.35L454,590.11l-16.66-16.76a1.124,1.124,0,0,0-1.59,1.59l15.55,15.64h-1.4a5.35,5.35,0,0,0-5.36,5.13,5.23,5.23,0,0,0,.95,3.18h-8.42L424.8,586.45a5.28,5.28,0,0,0-3.78-1.6h0a5.33,5.33,0,0,0-3.87,9l13.73,14.37a13.26,13.26,0,0,0,9.55,4.09h34.72a1.12,1.12,0,0,0,0-2.24Z" fill="#fff"/>
        <path id="Trazado_101195" data-name="Trazado 101195" d="M457.22,556.27h-6.48a1.13,1.13,0,0,0-1.12,1.13v5.76h-5.77a1.12,1.12,0,0,0-1.12,1.12v6.48a1.12,1.12,0,0,0,1.12,1.12h5.77v5.77a1.12,1.12,0,0,0,1.12,1.12h6.48a1.12,1.12,0,0,0,1.12-1.12v-5.77h5.77a1.12,1.12,0,0,0,1.12-1.12v-6.48a1.12,1.12,0,0,0-1.12-1.12h-5.77V557.4a1.13,1.13,0,0,0-1.12-1.13ZM463,565.4v4.24h-5.76a1.12,1.12,0,0,0-1.12,1.12v5.77h-4.24v-5.77a1.12,1.12,0,0,0-1.12-1.12H445V565.4h5.76a1.12,1.12,0,0,0,1.12-1.12v-5.76h4.24v5.76a1.12,1.12,0,0,0,1.12,1.12Z" fill="#fff"/>
      </g>
      <path id="Trazado_101196" data-name="Trazado 101196" d="M269.08,588.05h-.23l-30.47-5.88.45-2.34,28.75,5.55-8.71-45.1-32.44,4-4,32.45,11.65,2.24-.45,2.34-12.73-2.46a1.19,1.19,0,0,1-1-1.31l4.2-34.47a1.19,1.19,0,0,1,1-1l34.47-4.21a1.19,1.19,0,0,1,1.3,1l9.25,47.92a1.18,1.18,0,0,1-.94,1.39.849.849,0,0,1-.23,0Z" fill="#fff"/>
      <path id="Trazado_101197" data-name="Trazado 101197" d="M220.32,576.77,259,538.11l1.68,1.68L222,578.45Z" fill="#fff"/>
      <path id="Trazado_101198" data-name="Trazado 101198" d="M269.08,588.05a1.19,1.19,0,0,1-1.19-1.19,1,1,0,0,1,0-.3c.4-1.56,2.52-9.48,4.52-11.47a5.94,5.94,0,1,1,8.39,8.41c-2,2-9.9,4.11-11.47,4.52a1.43,1.43,0,0,1-.29,0Zm7.56-12.32a3.57,3.57,0,0,0-2.52,1c-1,1-2.38,5.08-3.34,8.39,3.31-1,7.41-2.37,8.39-3.34a3.57,3.57,0,0,0-2.53-6.09Z" fill="#fff"/>
      <path id="Trazado_101199" data-name="Trazado 101199" d="M261.51,600.37a5.95,5.95,0,0,1-4.2-10.15c2-2,9.9-4.1,11.47-4.51a1.18,1.18,0,0,1,1.45.85,1.22,1.22,0,0,1,0,.6c-.41,1.56-2.53,9.48-4.52,11.47a5.94,5.94,0,0,1-4.2,1.74Zm5.87-11.81c-3.31,1-7.42,2.37-8.39,3.35a3.56,3.56,0,1,0,5,5C265,596,266.42,591.87,267.38,588.56Z" fill="#fff"/>
      <path id="Trazado_101200" data-name="Trazado 101200" d="M291.3,619.79h-2.37c0-4.29-.68-4.4-6-5.2a77.857,77.857,0,0,1-9.79-2,8.32,8.32,0,0,1-5.49-3.73c-1.67-3-.51-6.86.61-10.59,1.26-4.17,2.44-8.1,0-10.59L224.52,544l1.68-1.68L269.92,586c3.49,3.49,2,8.52.64,13-1,3.41-2,6.63-.81,8.76a6.12,6.12,0,0,0,4,2.59,76.621,76.621,0,0,0,9.51,1.92C288.63,613.05,291.3,613.45,291.3,619.79Z" fill="#fff"/>
      <g id="Grupo_54095" data-name="Grupo 54095">
        <path id="Trazado_101201" data-name="Trazado 101201" d="M163.91,466.11a3.5,3.5,0,0,0-2.1-4.27L156.94,460a3.48,3.48,0,0,0-2.54,0v-4.19l1.3-1a7.52,7.52,0,0,0,3-5.29h.78a4.35,4.35,0,0,0,2.49-7.92V429.08a3.18,3.18,0,0,0-3.17-3.18H151a1.17,1.17,0,1,0,0,2.34h7.82a.84.84,0,0,1,.83.84v11.73h-.5a1,1,0,0,1-1-.71l-1.07-3.24a3.5,3.5,0,0,0-3.33-2.41H140.53a3.5,3.5,0,0,0-3.33,2.41l-1.07,3.24a1,1,0,0,1-1,.71h-.5v-3.64a8.94,8.94,0,0,1,8.93-8.93h2.72a1.17,1.17,0,0,0,0-2.34h-2.72a11.28,11.28,0,0,0-11.27,11.27v4.42a4.35,4.35,0,0,0,2.49,7.92h.78a7.52,7.52,0,0,0,3,5.29l1.3,1v2.62c-4.36-.43-8.6-.65-12.62-.65a86.511,86.511,0,0,0-12.63.86V455.8l1.31-1a7.6,7.6,0,0,0,3-5.29h.78a4.35,4.35,0,0,0,2.49-7.92v-4.42a11.1,11.1,0,0,0-11-11.27h-7.43a11.29,11.29,0,0,0-11.27,11.27v4.42a4.35,4.35,0,0,0,2.49,7.92h.78a7.6,7.6,0,0,0,3,5.29l1.31,1V460a3.48,3.48,0,0,0-2.54,0l-4.88,1.89a3.53,3.53,0,0,0-2.1,4.27,8.4,8.4,0,0,0-3.25,6.63v3.54a2.31,2.31,0,0,0,2.31,2.31h5.73a1.17,1.17,0,0,0,0-2.34h-5.7v-3.51a6.05,6.05,0,0,1,2.12-4.6,5.41,5.41,0,0,0,3.92,1.7,4.918,4.918,0,0,0,1.2-.14,10.731,10.731,0,0,0,2.83-1.1,5.249,5.249,0,0,0,2.22-2.4,7.34,7.34,0,0,0,5.38,2.07,7.17,7.17,0,0,0,6.73-3.92l7.08,2.74a6.1,6.1,0,0,1,3.87,5.65v3.51h-25a1.17,1.17,0,1,0,0,2.34h25a2.31,2.31,0,0,0,2.31-2.31v-3.54a8.54,8.54,0,0,0-.13-1.43h1.51a1.65,1.65,0,0,1,1.65,1.65v3.22a2.42,2.42,0,0,0,2.42,2.41h12.67a1.17,1.17,0,0,0,0-2.34H132.87a.08.08,0,0,1-.08-.07V473a4,4,0,0,0-4-4H126.5a8.47,8.47,0,0,0-4.45-4.06l-7.41-2.86V461a83.677,83.677,0,0,1,12.63-.89c4,0,8.26.23,12.62.67v1.58a4.23,4.23,0,0,0,.37,1.73,7.19,7.19,0,0,0,6.88,4.23,7.3,7.3,0,0,0,5.38-2.07,5.3,5.3,0,0,0,2.22,2.4,10.788,10.788,0,0,0,2.84,1.1,4.891,4.891,0,0,0,1.19.14,5.45,5.45,0,0,0,3.93-1.7,6,6,0,0,1,2.12,4.6v3.51h-14.6a1.17,1.17,0,1,0,0,2.34h14.64a2.3,2.3,0,0,0,2.3-2.31v-3.54a8.34,8.34,0,0,0-3.25-6.63Zm-44.16-18.94H119v-4h.74a2,2,0,0,1,0,4Zm-24.84-6.36v-3.64a9,9,0,0,1,8.93-8.93h7.4a8.77,8.77,0,0,1,8.66,8.93v3.64h-.5a1,1,0,0,1-1-.71l-1.06-3.23a3.52,3.52,0,0,0-3.35-2.42H100.8a3.52,3.52,0,0,0-3.35,2.42l-1.06,3.23a1,1,0,0,1-1,.71ZM93,445.16a2,2,0,0,1,2-2h.74v4H95A2,2,0,0,1,93,445.16Zm5.1,3.6v-7a3.36,3.36,0,0,0,.49-.94l1.06-3.23a1.2,1.2,0,0,1,1.13-.81H114a1.2,1.2,0,0,1,1.13.81l1.06,3.23a3.12,3.12,0,0,0,.49.94c0,.07,0,7,0,7a5.2,5.2,0,0,1-2.1,4.16l-4.1,3a5.13,5.13,0,0,1-6.14,0l-4.09-3a5.18,5.18,0,0,1-2.1-4.16Zm.52,17.8a8.2,8.2,0,0,1-2.23.87,3.05,3.05,0,0,1-3.51-1.89,1.17,1.17,0,0,1,.67-1.52l4.87-1.89a1.06,1.06,0,0,1,.43-.08,1.1,1.1,0,0,1,.47.1,1.21,1.21,0,0,1,.63.65,3,3,0,0,1-1.33,3.76Zm13.49-3.48a5.38,5.38,0,0,1-9.49,0,1.84,1.84,0,0,1-.17-.77v-4.82l.46.33a7.45,7.45,0,0,0,8.91,0l.45-.33v4.82a1.69,1.69,0,0,1-.16.77Zm47.34-19.94a2,2,0,0,1,0,4h-.74v-4Zm-26.7,2a2,2,0,0,1,2-2h.74v4h-.74a2,2,0,0,1-1.96-1.98Zm5.1,3.6v-7a3.54,3.54,0,0,0,.48-.95l1.07-3.24a1.17,1.17,0,0,1,1.11-.8h13.24a1.17,1.17,0,0,1,1.11.8l1.07,3.24a3.539,3.539,0,0,0,.48.95c0,.06,0,7,0,7a5.19,5.19,0,0,1-2.11,4.16l-4.09,3a5.13,5.13,0,0,1-6.14,0l-4.09-3a5.18,5.18,0,0,1-2.1-4.16Zm9.26,17.17a4.85,4.85,0,0,1-4.75-2.85,1.83,1.83,0,0,1-.16-.77v-4.82l.45.33a7.46,7.46,0,0,0,8.92,0l.45-.33v4.82a1.83,1.83,0,0,1-.16.77,4.84,4.84,0,0,1-4.71,2.87Zm11,1.5a8.2,8.2,0,0,1-2.23-.87,3.05,3.05,0,0,1-1.32-3.76,1.17,1.17,0,0,1,1.52-.67L161,464a1.15,1.15,0,0,1,.66.62,1.22,1.22,0,0,1,0,.9,3.06,3.06,0,0,1-3.54,1.91Z" fill="#fff"/>
        <path id="Trazado_101202" data-name="Trazado 101202" d="M147.15,452.53a4.82,4.82,0,0,0,4-2.16,1.17,1.17,0,0,0-1.94-1.3,2.52,2.52,0,0,1-4.2,0,1.17,1.17,0,1,0-1.94,1.3A4.85,4.85,0,0,0,147.15,452.53Z" fill="#fff"/>
        <path id="Trazado_101203" data-name="Trazado 101203" d="M107.4,452.53a4.82,4.82,0,0,0,4-2.16,1.17,1.17,0,0,0-1.94-1.3,2.51,2.51,0,0,1-4.19,0,1.193,1.193,0,0,0-2,1.3,4.87,4.87,0,0,0,4,2.16Z" fill="#fff"/>
      </g>
    </g>
  </g>
</svg>
