<svg id="cf1_paso_copia_4" data-name="cf1_paso copia 4" xmlns="http://www.w3.org/2000/svg" xmlns:xlink="http://www.w3.org/1999/xlink" width="160" height="160" viewBox="0 0 160 160">
  <defs>
    <clipPath id="clip-path">
      <path id="Trazado_101366" data-name="Trazado 101366" d="M80,20h0a60,60,0,0,1,60,60v60H80A60,60,0,0,1,20,80h0A60,60,0,0,1,80,20Z" transform="translate(160 160) rotate(180)" fill="none"/>
    </clipPath>
    <linearGradient id="linear-gradient" x1="75.104" y1="-28.805" x2="75.104" y2="-29.585" gradientUnits="objectBoundingBox">
      <stop offset="0.01" stop-color="#dff2f8"/>
      <stop offset="0.09" stop-color="#e9f6fa"/>
      <stop offset="0.27" stop-color="#f5fbfd"/>
      <stop offset="0.5" stop-color="#fdfeff"/>
      <stop offset="1" stop-color="#fff"/>
    </linearGradient>
  </defs>
  <g id="Capa_2" data-name="Capa 2">
    <rect id="Rect치ngulo_5267" data-name="Rect치ngulo 5267" width="120" height="120" transform="translate(0 20)" fill="none"/>
    <path id="Trazado_101334" data-name="Trazado 101334" d="M80,20h0a60,60,0,0,1,60,60v60H80A60,60,0,0,1,20,80h0A60,60,0,0,1,80,20Z" transform="translate(160 160) rotate(180)" fill="#419ca6"/>
    <rect id="Rect치ngulo_5268" data-name="Rect치ngulo 5268" width="160" height="160" fill="none"/>
    <g id="Grupo_54120" data-name="Grupo 54120" clip-path="url(#clip-path)">
      <g id="Grupo_54119" data-name="Grupo 54119">
        <path id="Trazado_101335" data-name="Trazado 101335" d="M77.74,64.75C79.26,48,70.43,46,70.43,46L71,70.33l-1.16,4L59.42,110.49C74.93,116,72.23,97.71,72.23,97.71l2.77-25c.07-.15.14-.31.22-.47.5-1.09,1.06-2.26,1.56-3.33,1-2,1.75-3.66,1.75-3.66Z" fill="#31757d"/>
        <path id="Trazado_101336" data-name="Trazado 101336" d="M105.14,140l-2.36,18.28c0,1.51,1.48,2.88,2.68,3.76a10.72,10.72,0,0,0,2.65,1.4l1,2.38h-2.62s-10.34,1.33-8.38-5.37c.57-2,.75-20.45.75-20.45Z" fill="#f2b997"/>
        <path id="Trazado_101337" data-name="Trazado 101337" d="M111.65,102.7c-.05.64-.11,1.29-.16,1.92-.57,4.72-1,9.38-1.23,14a287.711,287.711,0,0,0,.15,32.49c.09,1.73.21,3.45.32,5.15-6,2-12.54-2.83-15-3.77.4-13.23,3.74-37.2,4.9-45.18L63.11,117.5,67.35,102l.6-2.22,33.19-3.93,3-.36a6.69,6.69,0,0,1,7.46,7.23Z" fill="#31757d"/>
        <path id="Trazado_101338" data-name="Trazado 101338" d="M110.73,156.24c-6,2-12.54-2.83-15-3.77.4-13.23,3.74-37.2,4.9-45.18L63.11,117.5l4.1-16.14.34-.85.43,4a6.42,6.42,0,0,0,7.7,5.6l25.68-5.38,3.76-2.22-2.57,4.18s-9.89,43.61,7.86,44.35C110.5,152.82,110.62,154.54,110.73,156.24Z" fill="#31757d" opacity="0.5"/>
        <path id="Trazado_101339" data-name="Trazado 101339" d="M57,37.53l.21.38a25.821,25.821,0,0,0,2.7-.38c4.24-.82,5.85-2.31,5.85-2.31l1.09-.31,1.64-.47L77.68,33a1.88,1.88,0,0,0,1.17.25,1.86,1.86,0,0,0,1.63-2.06A1.9,1.9,0,0,0,79.9,30a1.66,1.66,0,0,0,.73-1.25c.35-2-3.6-5.62-6.17-7l-.37-.19C65.21,17,60,23.38,60,23.38l-.21.07a4.43,4.43,0,0,0-.52,0A3.52,3.52,0,0,0,57,29.29C54.35,31.88,56.34,36.23,57,37.53Z" fill="#f2884b"/>
        <path id="Trazado_101340" data-name="Trazado 101340" d="M69.85,37.36,77,36.68a76.59,76.59,0,0,0,1.75,15A8,8,0,0,0,80,54.42a40.261,40.261,0,0,0,3.18,3.91,5.92,5.92,0,0,1-5.71,9.75C71.39,66.88,62.49,52.28,69.85,37.36Z" fill="#f2884b"/>
        <path id="Trazado_101341" data-name="Trazado 101341" d="M77,57.44a34.14,34.14,0,0,1-3-6.59c-1-3.42-3.56-5.54-6.5-7.05-2.3-1.19-4.51-2.42-4.92-2.32C62.52,41.49,45,45.87,48.29,71c1.09,3.24,1.38,8.32,1.6,11.53a39.33,39.33,0,0,1-.43,6.3c-.12,1.34-1.64,4.66-3,5.44h0C50.81,97.6,58,100.57,68,99.76c1.09-9,.67-9.48,4.09-17.36a31,31,0,0,0,2.45-11.06,13.268,13.268,0,0,0,1.38-.72l.09-.05c1.84-1.3,3.48-3,3.88-4.45C80.67,63.1,78.06,59.34,77,57.44Z" fill="url(#linear-gradient)"/>
        <path id="Trazado_101342" data-name="Trazado 101342" d="M62.58,41.48s8.7,9.49,9.71,21.76c0,0,2.69-5.92-1.86-17.25Z" fill="#f2b997"/>
        <g id="Grupo_54113" data-name="Grupo 54113">
          <path id="Trazado_101343" data-name="Trazado 101343" d="M44.76,99.84a10.17,10.17,0,0,1,1.68-5.55,9.54,9.54,0,0,0-1.68,5.55Z" fill="#31757d"/>
          <path id="Trazado_101344" data-name="Trazado 101344" d="M60.11,97.71a54,54,0,0,0,6.59-14,37.73,37.73,0,0,0,1.21-5c.06-.28.06-1.55.31-1.77L46.44,94.29,60,97.69Z" fill="#d1dceb"/>
          <path id="Trazado_101345" data-name="Trazado 101345" d="M62.05,152.92A261.669,261.669,0,0,0,61,199.39c.09,1.73.2,3.45.31,5.15-6,2-12.54-2.83-15-3.77.48-16,5.29-47.85,5.29-47.85.48-3.39-.19-22.52-1.1-32.73-.17-1.91-.34-3.5-.52-4.62a4.431,4.431,0,0,0-.16-.87,1.323,1.323,0,0,0-.08-.33c-.07-.27-.15-.55-.23-.81s-.13-.44-.2-.66l-.09-.22a4.4,4.4,0,0,0-.18-.51c-1-2.68-2.46-5.3-3.38-8-.13-.37-.25-.72-.35-1.08l-.15-.56a2.819,2.819,0,0,0-.13-.54c-.04-.18-.07-.36-.1-.54s-.06-.37-.08-.56a3.288,3.288,0,0,0-.05-.54,4.71,4.71,0,0,1,0-.53h0a10.26,10.26,0,0,1,1.68-5.56L60,97.7h.07L68,99.76S64.05,129.36,62.05,152.92Z" fill="#31757d"/>
        </g>
        <path id="Trazado_101346" data-name="Trazado 101346" d="M61.29,204.54c-6,2-12.54-2.83-15-3.77.48-16,5.29-47.85,5.29-47.85.48-3.39-.19-22.52-1.1-32.73-.17-1.91-.34-3.5-.52-4.62a4.431,4.431,0,0,0-.16-.87,1.323,1.323,0,0,0-.08-.33c-.07-.27-.15-.55-.23-.81s-.13-.44-.2-.66l-.09-.22a4.4,4.4,0,0,0-.18-.51c-1-2.68-2.46-5.3-3.38-8-.13-.37-.25-.72-.35-1.08l-.15-.56a2.819,2.819,0,0,0-.13-.54c-.04-.18-.07-.36-.1-.54s-.06-.37-.08-.56a3.288,3.288,0,0,0-.05-.54,4.71,4.71,0,0,1,0-.53h0a10.26,10.26,0,0,1,1.68-5.56L60,97.7h.07a.41.41,0,0,1-.07.11c-.14.21-.29.43-.45.63a28.06,28.06,0,0,1-4.23,4.86,10.33,10.33,0,0,0-3.42,10c1.53,7.27,3.33,20.36,2.21,38.95H58l-3.84,2.3s-9.4,40.93,6.84,44.84C61.07,201.12,61.18,202.84,61.29,204.54Z" fill="#31757d" opacity="0.5"/>
        <path id="Trazado_101347" data-name="Trazado 101347" d="M56.33,98.55c-.39.5-.8,1-1.21,1.43a15.92,15.92,0,0,1-10.18,3.86h-8.4V99.56h0a6.49,6.49,0,0,1,1.05-3.31,11.92,11.92,0,0,1,4.12-3.47,48.13,48.13,0,0,0,4.49-2.71h0a8.106,8.106,0,0,0,.65-.51l.45-.41a6.19,6.19,0,0,0,.65-.7,5.44,5.44,0,0,0,.45-.62,4.53,4.53,0,0,0,.34-.61,3,3,0,0,0,.15-.31,1.16,1.16,0,0,0,.06-.15l.12-.35a6.84,6.84,0,0,0,.19-.81,1.919,1.919,0,0,0,0-.32,5.438,5.438,0,0,0,.05-.58,53.29,53.29,0,0,0-1.07-11.58q-.23-1.38-.39-2.7c-1.9-15.77,3.53-26.59,14.65-29-.94.2-2.08,2.92-2.27,3.67-.95,3.54,3.75,5.12,6.11,6.56a5,5,0,0,1,2.15,2.78C73.45,70.63,66.41,85.89,56.33,98.55Z" fill="#31757d"/>
        <path id="Trazado_101348" data-name="Trazado 101348" d="M74.25,37.75l-.62,2.24-1.04,3.72-1.8,6.47-7.86-8.32,1.9-6.77,3.23-1.35Z" fill="#f2b997"/>
        <path id="Trazado_101349" data-name="Trazado 101349" d="M73.63,40l-1,3.72-.11-2.61A3.83,3.83,0,0,1,71,38.83Z" fill="#f7d2ab" opacity="0.7"/>
        <path id="Trazado_101350" data-name="Trazado 101350" d="M72.11,24.64a.65.65,0,0,1,.78,0l1.92,1.52a4.09,4.09,0,0,1,1.33,2.89v.08a1.14,1.14,0,0,0,.44.86l2.85,2.2a.59.59,0,0,1,.23.46.61.61,0,0,1-.19.48l-1,.86-.13.57a.58.58,0,0,1,.54.88.53.53,0,0,1-.4.3.62.62,0,0,1,.13.73.53.53,0,0,1-.75.24l-.2.9s.08.38.17.93A2,2,0,0,1,77.58,40s-.8,1.65-4.09.55l-3-.81a4,4,0,0,1-2.6-3.27,1.36,1.36,0,0,0-.52-.87,6.16,6.16,0,0,1-1.51-2.46L69,32.42a9,9,0,0,1,.75,1.64l1-.61S68.78,27,72.11,24.64Z" fill="#f2b997"/>
        <path id="Trazado_101351" data-name="Trazado 101351" d="M74.22,31.93l1.48-.35c.41-.23.33-.62.11-.74a.24.24,0,0,0-.23,0Z" fill="#2e142d"/>
        <path id="Trazado_101352" data-name="Trazado 101352" d="M58.58,67l-5.39,8.82c-.18.29.27,1.76.3,2.08a18.14,18.14,0,0,1-.22,5.15c-1.55,8.12-13.56,10.83-9.7,20.76h-7V99.53a6.49,6.49,0,0,1,1.05-3.31,11.92,11.92,0,0,1,4.12-3.47,49.657,49.657,0,0,0,4.5-2.71,8.108,8.108,0,0,0,.65-.51,4.179,4.179,0,0,0,.45-.41,6.191,6.191,0,0,0,.65-.7,6.491,6.491,0,0,0,.45-.62,4.53,4.53,0,0,0,.34-.61,3,3,0,0,0,.15-.31,1.159,1.159,0,0,0,.06-.15,3.589,3.589,0,0,0,.12-.35,6.839,6.839,0,0,0,.19-.81,1.19,1.19,0,0,0,0-.32,5.439,5.439,0,0,0,.05-.58,53.29,53.29,0,0,0-1.07-11.58q-.23-1.38-.39-2.7L61.36,50.84S67,55.33,58.58,67Z" fill="#31757d" opacity="0.5"/>
        <g id="Grupo_54117" data-name="Grupo 54117">
          <path id="Trazado_101353" data-name="Trazado 101353" d="M49.22,121.86l.38-3.75a2.88,2.88,0,0,0-2.6-3.17l-6.54-.66a2.86,2.86,0,0,0-2.12.64,2.82,2.82,0,0,0-1.05,2l-.38,3.75,1.56.16.38-3.76a1.26,1.26,0,0,1,.48-.89,1.31,1.31,0,0,1,1-.29l6.54.66A1.32,1.32,0,0,1,48,118l-.38,3.76Z" fill="#ba8a7e"/>
          <g id="Grupo_54114" data-name="Grupo 54114">
            <path id="Trazado_101354" data-name="Trazado 101354" d="M64.46,134.4l-1.77,17.48a3.23,3.23,0,0,1-3.49,2.88L22.1,151a3.17,3.17,0,0,1-2.85-3.47L21,130Z" fill="#f26d3d"/>
            <path id="Trazado_101355" data-name="Trazado 101355" d="M22,120.53a3.21,3.21,0,0,1,3.48-2.88l37.09,3.79a3.18,3.18,0,0,1,2.87,3.47l-1,9.49L21,130Z" fill="#f2884b"/>
          </g>
          <g id="Grupo_54116" data-name="Grupo 54116">
            <path id="Trazado_101356" data-name="Trazado 101356" d="M39.77,132.63a2.37,2.37,0,1,0,4.71.48l.26-2.56a2.372,2.372,0,0,0-4.72-.47Z" fill="#674328"/>
            <path id="Trazado_101357" data-name="Trazado 101357" d="M40.3,132.69a2.372,2.372,0,1,0,4.72.47l.25-2.55a2.37,2.37,0,1,0-4.71-.48Z" fill="#674328"/>
            <g id="Grupo_54115" data-name="Grupo 54115">
              <path id="Trazado_101358" data-name="Trazado 101358" d="M42,130.78a.89.89,0,1,0,.972-.768A.89.89,0,0,0,42,130.78Z" fill="#fff"/>
              <path id="Trazado_101359" data-name="Trazado 101359" d="M42.45,131.39l.72.07L43,133a.36.36,0,0,1-.4.32.34.34,0,0,1-.25-.13.35.35,0,0,1-.08-.26Z" fill="#fff"/>
            </g>
          </g>
        </g>
        <path id="Trazado_101360" data-name="Trazado 101360" d="M69.23,36a.9.9,0,0,1-1.26,0c-1.36-1.15-2.89-2.38-1.97-4a1.83,1.83,0,0,1,1.37-.89,1.47,1.47,0,0,1,.67.14,1.94,1.94,0,0,1,1.11,1.1l.46,1.15a2.49,2.49,0,0,1-.33,2.5h0Z" fill="#f2b997"/>
        <g id="Grupo_54118" data-name="Grupo 54118">
          <path id="Trazado_101361" data-name="Trazado 101361" d="M46.7,115.24a5.12,5.12,0,0,1,.31,1.11.82.82,0,0,1-.82,1,.73.73,0,0,1-.59-.33,1,1,0,0,1-.89.49c-.3,0-.55-.34-.83-.84a.94.94,0,0,1-.29.43.85.85,0,0,1-1.2-.5.88.88,0,0,1-1.15.33c-.33-.21-.47-1-.65-1.64a15,15,0,0,1-.49-1.81,33.222,33.222,0,0,1,.34-3.8h0c-.18-1.12-1.11-9.69-1.85-16.62-.29-2.66-.54-5.08-.72-6.74a5.41,5.41,0,0,1,6.36-.14v23.5a7.14,7.14,0,0,0,1.13.86c.33.23.77.5,1.14.75a2.07,2.07,0,0,1,.74.78,14.27,14.27,0,0,1,.49,2.72C47.71,115.08,47,116,46.7,115.24Z" fill="#f2b997"/>
          <path id="Trazado_101362" data-name="Trazado 101362" d="M61.12,56.43a6.68,6.68,0,0,0,.76-6.21A4.73,4.73,0,0,0,58,46.8a6.48,6.48,0,0,0-7.46,3.83L37.8,81.2a6.49,6.49,0,0,0-.17,2.8s.09.87.24,2.28a5.41,5.41,0,0,1,6.36-.14V83.46Z" fill="#31757d"/>
        </g>
        <path id="Trazado_101363" data-name="Trazado 101363" d="M61.38,68.37a8.74,8.74,0,0,0,2.25-.57A8.6,8.6,0,0,0,66,66.37a3.65,3.65,0,0,0,5.38-3.64l-.64-5.53c2.09-6.15,2.71-13.84-3.83-22.29-.62-.81-1.32-1.63-2.08-2.46l-5.14,2.24L56.4,36.12a14.35,14.35,0,0,1,.6,1.41c1.16,2.91,3,9.72-2,14.37A9.75,9.75,0,0,0,51.92,57a6.44,6.44,0,0,0-.37,3,6.62,6.62,0,0,0,.36,1.49,8.68,8.68,0,0,0,9.47,6.88Z" fill="#f2884b"/>
        <path id="Trazado_101364" data-name="Trazado 101364" d="M61.38,68.37a8.74,8.74,0,0,0,2.25-.57c-9.53-3.53-4.3-13.11-4.3-13.11,6.08-10.13,1.81-9.89.61-17.16a22.19,22.19,0,0,1-.28-2.84c0-.55,0-1.14,0-1.76C60,20.56,70.48,21.05,74.09,21.59,65.21,17,60,23.38,60,23.38l-.21.07a4.43,4.43,0,0,0-.52,0A3.52,3.52,0,0,0,57,29.29c-2.66,2.59-.67,6.94,0,8.24,1.16,2.91,3,9.72-2,14.37A9.75,9.75,0,0,0,51.92,57a6.44,6.44,0,0,0-.37,3,6.62,6.62,0,0,0,.36,1.49,8.68,8.68,0,0,0,9.47,6.88Z" fill="#f5bba7"/>
        <path id="Trazado_101365" data-name="Trazado 101365" d="M44.23,86.18V87.5c-1.75-.15-5,.31-5.63,5.56-.29-2.66-.54-5.08-.72-6.74A5.41,5.41,0,0,1,44.23,86.18Z" fill="#f7d2ab" opacity="0.7"/>
      </g>
    </g>
  </g>
</svg>
