<svg id="Capa_2" data-name="Capa 2" xmlns="http://www.w3.org/2000/svg" xmlns:xlink="http://www.w3.org/1999/xlink" width="160" height="160" viewBox="0 0 160 160">
  <defs>
    <clipPath id="clip-path">
      <path id="Trazado_101333" data-name="Trazado 101333" d="M80,20h0a60,60,0,0,1,60,60v60H80A60,60,0,0,1,20,80h0A60,60,0,0,1,80,20Z" transform="translate(160 160) rotate(180)" fill="none"/>
    </clipPath>
  </defs>
  <rect id="Rectángulo_5264" data-name="Rectángulo 5264" width="120" height="120" transform="translate(0 20)" fill="none"/>
  <rect id="Rectángulo_5265" data-name="Rectángulo 5265" width="160" height="160" fill="none"/>
  <path id="Trazado_101309" data-name="Trazado 101309" d="M80,20h0a60,60,0,0,1,60,60v60H80A60,60,0,0,1,20,80h0A60,60,0,0,1,80,20Z" transform="translate(160 160) rotate(180)" fill="#419ca6"/>
  <g id="Grupo_54112" data-name="Grupo 54112" clip-path="url(#clip-path)">
    <g id="Grupo_54111" data-name="Grupo 54111">
      <path id="Trazado_101310" data-name="Trazado 101310" d="M36.47,232.11l-9.59-.89,1.13-37.14.58-19.33L18,129.77l23.04,4.56.23,5.69.25,6.31,1.21,30.11Z" fill="#12263f"/>
      <path id="Trazado_101311" data-name="Trazado 101311" d="M31.77,176.84,28,194.08l.58-19.33L18,129.77,41.27,140l.25,6.31c-2.15-.05-5.89.24-8.67,2.46a8.18,8.18,0,0,0-3.05,7.27l1.88,17.74,6.22,1.08Z" fill="#091320"/>
      <path id="Trazado_101312" data-name="Trazado 101312" d="M0,120.19s18-6.92,24.54,6.39L27,100.52Z" fill="#12263f"/>
      <path id="Trazado_101313" data-name="Trazado 101313" d="M47.09,117.66c.65-2.84,2.53-12.93,4.1-14.58,5.69-6,8-10,7.93-19.8a14.82,14.82,0,0,0-4.07-10.13l-.61,1.12L48.83,98.13l-.59,2.54-2.46,5.38-.16.34-3.79,8.27a17.27,17.27,0,0,1-1.06,2l-5.26,8.49c-2.77,2.4-4.67,4.75-3.86,6.22h0c.37.63,1.26,1.1,2.83,1.33C44.11,134.14,45.34,125.28,47.09,117.66Z" fill="#12263f"/>
      <path id="Trazado_101314" data-name="Trazado 101314" d="M78.78,126.55a7,7,0,0,1,6,8.15l-9.06,52.44-9.52-1.65c.83-6.34,1.35-12.75,1.79-18.79.82-11.56,1.28-21.68,2.77-27l-42.63-1.42c-6.18-.2-12.12-6.46-11.06-12.81a22.8,22.8,0,0,1,3.93-9.1l3.22.87L42.06,122Z" fill="#12263f"/>
      <path id="Trazado_101315" data-name="Trazado 101315" d="M74.06,138.53s-4.64,16.95-6,28.18h0c.82-11.56,1.28-21.68,2.77-27L28.2,138.29c-6.18-.2-12.12-6.46-11.06-12.81A22.8,22.8,0,0,1,21,116.37l3.22.87,2.43,2.93A16.17,16.17,0,0,0,25,123.82,7.12,7.12,0,0,0,31.2,133l40.95,3.47,6.23-2.93Z" fill="#091320"/>
      <path id="Trazado_101316" data-name="Trazado 101316" d="M114.87,60.5l3.85-1.67s2.19-.45,3.39-.72l.38-.09c.59-.16,1.3-.42,1.88-.64.88-.33,2.78-.69,2.11-2.1a1.659,1.659,0,0,0-.16-.21,1.15,1.15,0,0,0,.52-1.53,1.13,1.13,0,0,0-.66-.59.12.12,0,0,0-.08,0h-.17a1.48,1.48,0,0,0,.82-1.22,1.6,1.6,0,0,0-.71-1.2l4.9-2.36a.67.67,0,0,0,.32-.9v-.09A.94.94,0,0,0,130,46.7l-5.69,2.72v-.17a.77.77,0,0,0-1-.63l-1.9.67a9.36,9.36,0,0,0-1.49.24,1.43,1.43,0,0,0-1,.64c-.31.48-.61,1-.86,1.49-.87,1.5-1,2.52-1.43,3,0,0-2.31,1-4,1.86l1.34,2.43Z" fill="#f9d4e3"/>
      <g id="Grupo_54108" data-name="Grupo 54108">
        <rect id="Rectángulo_5266" data-name="Rectángulo 5266" width="3.01" height="6.31" transform="matrix(0.9, -0.435, 0.435, 0.9, 112.614, 55.68)" fill="#fff"/>
        <path id="Trazado_101317" data-name="Trazado 101317" d="M88.07,75.37a8.4,8.4,0,0,1-2.9.83L51.71,79.51a7.09,7.09,0,0,1-7.64-6.82V72.4a7.08,7.08,0,0,1,7.23-7.31l32.7.49L113.33,55l3,6.4Z" fill="#12263f"/>
      </g>
      <path id="Trazado_101318" data-name="Trazado 101318" d="M64.26,62.53,58.52,74.59l-1.7-2.07-3.46-4.19-2.18-2.21,3.15-7.47,5.39,1.12a10.41,10.41,0,0,1,4.54,2.76Z" fill="#f9d4e3"/>
      <path id="Trazado_101319" data-name="Trazado 101319" d="M31.84,121.82c-3.23-1.86-7-1.62-10.51-2.8a2.4,2.4,0,0,1-1.55-1.77,2.35,2.35,0,0,1,.66-2.23,9.4,9.4,0,0,0,2.72-5.33c.31-1.33.58-2.77.82-4.3.43-2.76.76-5.77,1.09-8.82.21-1.93.44-3.87.67-5.76.19-1.56.55-3.24.81-4.69.57-3.35,2.32-5.67,4-8.52a30.26,30.26,0,0,1,6-7.28,17.56,17.56,0,0,1,4.32-3.15c2.63-1.37,8.61-3.67,10.9-2.07,1.56,1.09,2.07,4.6,3,7a6.6,6.6,0,0,0,.76,1.48,9.65,9.65,0,0,1,1.72,3.72c.07.38.12.66.17,1.07s.08.72.1,1a2.289,2.289,0,0,1,0,.25c0,.63.06,1.28.06,1.94a28.36,28.36,0,0,1-.42,4.91l-.12.67a30.12,30.12,0,0,1-1.86,6.19c-.8,2-4.14,4.78-5.18,5.21-.62,1.31-2.43,4.46-2.68,6-.21,1.3-1.71,7.49-1.9,8.8-.44,2.76-1.63,5.8-2.19,8.91a1.78,1.78,0,0,1-1.85,1.46C38.86,123.6,34,123.53,31.84,121.82Z" fill="#fff"/>
      <path id="Trazado_101320" data-name="Trazado 101320" d="M40.22,100s-10.74,5.21-10.48,13.26c.25,7.79,2,4.76,2.1,8.55l-.85-.44-.43-.22a.84.84,0,0,0-.14-.06,9.352,9.352,0,0,0-1.41-.55,10,10,0,0,0-2.38-.39,19.38,19.38,0,0,1-5.3-1.15,2.414,2.414,0,0,1-.89-3.99,9.4,9.4,0,0,0,2.72-5.33c.31-1.33.58-2.77.82-4.3L50.83,83.13A20.27,20.27,0,0,1,40.22,100Z" fill="#f8e9f8"/>
      <path id="Trazado_101321" data-name="Trazado 101321" d="M-2.36,121.52c2.07-.55,3.4-1,5.11-1.56,1.28-.42,2.48-.83,3.59-1.25.29-.12.58-.22.84-.34,1.06-.41,2-.82,2.94-1.24,10.75-4.9,12.33-9.93,19.83-14.36,1.92-1.11,4-2,6-3l1.81-.89a34.919,34.919,0,0,0,4.5-2.77h0a23.579,23.579,0,0,0,2.08-1.65,9.261,9.261,0,0,0,.92-.85c5-4.78,6.63-10.47,6.36-17.36A61.871,61.871,0,0,0,49.79,64.4s-5,0-6.92.71a15.64,15.64,0,0,0-4.07,1.76,16,16,0,0,0-5.73,5.71L29.55,78l-1.13,1.75A26.89,26.89,0,0,0,25,87.4c-1.35,5-2.09,9.11-2.15,9.41h0s-.67.31-1.66.82-2.35,1.17-3.74,1.83c-.2.12-.43.21-.64.32-2,1-3.91,2-4.74,2.37a.48.48,0,0,0-.14.09h-.07c-.07,0-.18.12-.27.16l-1.72.8a22.911,22.911,0,0,0-3.53,1.84l-.72.49a24.762,24.762,0,0,0-2.63,2,13.5,13.5,0,0,0-1.67,1.8C-1.4,112.94-2.29,117-2.36,121.52Z" fill="#12263f"/>
      <path id="Trazado_101322" data-name="Trazado 101322" d="M52.28,63.32l-2.49,1.06,7.64,13.98,1.47-4.35Z" fill="#fff"/>
      <path id="Trazado_101323" data-name="Trazado 101323" d="M58.9,74.01l.67,4.11-2.14.24Z" fill="#f4e84d"/>
      <path id="Trazado_101324" data-name="Trazado 101324" d="M12,102.19c.83-.41,2.74-1.39,4.74-2.37.21-.11.44-.2.64-.32,1.39-.66,2.72-1.33,3.74-1.83s1.66-.82,1.66-.82h0c.06-.3.8-4.39,2.15-9.41a26.89,26.89,0,0,1,3.43-7.68L29.55,78l3.52-5.39A16,16,0,0,1,38.8,66.9l9.37,6.51c1.12,2.15.26,4.38-.87,6.06A10.05,10.05,0,0,1,43,83c-3.54,1.53-7.42,2.44-10.79,4.34-4.25,2.41-6,5.2-6.94,10l3.85,3.39L24,98.27Z" fill="#091320"/>
      <path id="Trazado_101325" data-name="Trazado 101325" d="M9,85.13a8.58,8.58,0,0,1,2.55-2.29L38,67.43a7.07,7.07,0,0,1,9.84,2.84l.13.25a7.09,7.09,0,0,1-3.34,9.72l-28,11.1L-4.74,115.67l-5.47-4.47Z" fill="#12263f"/>
      <path id="Trazado_101326" data-name="Trazado 101326" d="M49.78,64.38l-4.1,2.83,3.48,1.87-1.79.67S55,84.08,43.9,94.87C43.9,94.87,59,86.86,49.78,64.38Z" fill="#12263f"/>
      <g id="Grupo_54110" data-name="Grupo 54110">
        <g id="Grupo_54109" data-name="Grupo 54109">
          <path id="Trazado_101327" data-name="Trazado 101327" d="M67.54,51s1.47,2.91,1,5.28v1.05L69.76,60a.6.6,0,0,1-.55.83h-.67v.95L64.8,63.25l-3.21-1.86-1.91-4.2-2.3-7.4,4-1.42,4.36.88Z" fill="#f9d4e3"/>
          <path id="Trazado_101328" data-name="Trazado 101328" d="M48.77,55.19l-1.33-4.3a1.71,1.71,0,0,1,1.3-2.27,2.36,2.36,0,0,1,2.52-2.18s1.32-4,8.08-3.27l-.94,1.27a6.41,6.41,0,0,1,6.14-.15l-.73,1.06s3.51-1.46,4.69,1.9a3.6,3.6,0,0,1-1,3.7l-12.26-.12Z" fill="#12263f"/>
          <path id="Trazado_101329" data-name="Trazado 101329" d="M66.4,72a3.56,3.56,0,0,0,2.11-6.46h0v-.08l.13-4.6-3.8.7a3.09,3.09,0,0,1-3.6-2.49.77.77,0,0,1,0-.15.43.43,0,0,1,0-.11,5.49,5.49,0,0,1,1-4,2.12,2.12,0,0,0,.06-2.63,2.28,2.28,0,0,0-.46-.47h0a9.5,9.5,0,0,0-11.92.35c-.69.58-1.93,2.1-.67,4.69l1,1.26a10.42,10.42,0,0,1,2.11,4.6l.1.52,3.39-4L58,60.25l1.66.83s-1.25,3.54.5,6.35a4.73,4.73,0,0,0,2.91,2.07A3.53,3.53,0,0,0,66.4,72Z" fill="#091320"/>
        </g>
        <path id="Trazado_101330" data-name="Trazado 101330" d="M65,56.65h0c-.15-1.47.14-2.66.76-2.78s1.34.85,1.76,2.27l1.13-.23a7.61,7.61,0,0,0-.2-2.48.67.67,0,0,1,.35-.23c.72-.15,1.6,1.2,2,3s.08,3.39-.64,3.54a.74.74,0,0,1-.52-.13l-1-2.33v-.39l-.87.18c.29,1.7,0,3.16-.68,3.3s-1.53-1-1.88-2.78l-7.83,1.59-.19-.93Z" fill="#fff" opacity="0.7"/>
        <path id="Trazado_101331" data-name="Trazado 101331" d="M58.56,55.86a2.06,2.06,0,0,0-2.79-.15c-.66.55-1.31,1.58-.38,3.29,0,0,1.36,2.62,3.16,2.8,0,0,1.21.31,1.09-1.32l-.21-2.76A2.83,2.83,0,0,0,59,56.43a3.79,3.79,0,0,0-.44-.57Z" fill="#f9d4e3"/>
      </g>
      <path id="Trazado_101332" data-name="Trazado 101332" d="M51,125.29v-.46a4.161,4.161,0,0,1,0-.94,4.771,4.771,0,0,0,0-1,13.86,13.86,0,0,1,1.18-4.25,42.119,42.119,0,0,1,2.61-4.78c1-1.68,2.13-3.44,3.12-5.39.24-.5.52-1,.71-1.51l.6-1.47c.18-.51.35-1,.53-1.52s.29-1,.43-1.53a39,39,0,0,0,1.06-6,47.161,47.161,0,0,0,.16-5.64,48.458,48.458,0,0,0-.45-5c-.09-.77-.22-1.5-.35-2.19s-.28-1.34-.41-2-.3-1.17-.43-1.69-.28-1-.42-1.43-.29-.94-.42-1.3l-1.11.56q.1.48.21,1.08c.08.42.17.89.24,1.41s.16,1.07.22,1.67.14,1.23.17,1.91.09,1.38.1,2.11a45.749,45.749,0,0,1-.13,4.75,44.921,44.921,0,0,1-.75,5.18,35.051,35.051,0,0,1-1.58,5.28c-.18.43-.34.86-.53,1.29l-.6,1.25L54.43,105c-.25.44-.49.76-.73,1.15-1,1.53-2.23,3.06-3.46,4.63a46,46,0,0,0-3.57,5.06,21,21,0,0,0-2.41,6c-.09.53-.17,1-.26,1.56s-.08,1-.12,1.53v1.47l4.59,3.39Z" fill="#f2884b"/>
    </g>
  </g>
</svg>
