<svg id="cf1_paso_copia_2" data-name="cf1_paso copia 2" xmlns="http://www.w3.org/2000/svg" xmlns:xlink="http://www.w3.org/1999/xlink" width="160" height="160" viewBox="0 0 160 160">
  <defs>
    <clipPath id="clip-path">
      <path id="Trazado_101308" data-name="Trazado 101308" d="M80,20h0a60,60,0,0,1,60,60v60H80A60,60,0,0,1,20,80h0A60,60,0,0,1,80,20Z" transform="translate(160 160) rotate(180)" fill="none"/>
    </clipPath>
  </defs>
  <g id="Capa_2" data-name="Capa 2">
    <rect id="Rect치ngulo_5262" data-name="Rect치ngulo 5262" width="120" height="120" transform="translate(0 20)" fill="none"/>
    <path id="Trazado_101278" data-name="Trazado 101278" d="M80,20h0a60,60,0,0,1,60,60v60H80A60,60,0,0,1,20,80h0A60,60,0,0,1,80,20Z" transform="translate(160 160) rotate(180)" fill="#419ca6"/>
    <rect id="Rect치ngulo_5263" data-name="Rect치ngulo 5263" width="160" height="160" fill="none"/>
    <g id="Grupo_54107" data-name="Grupo 54107" clip-path="url(#clip-path)">
      <path id="Trazado_101279" data-name="Trazado 101279" d="M80.14,38.5V79.63H39.01v41.3H-2.29v41.35H-44.12v41.14H-85.25v41.3h-41.3v41.47h-41.48v41.08H-209.1v42.51h2.77V330.04h41.07V288.96h41.48V247.48h41.3V206.19h41.13V165.05H.48V123.7h41.3V82.4H82.91V41.27h39.75V38.5Z" fill="#fff"/>
      <g id="Grupo_54106" data-name="Grupo 54106">
        <path id="Trazado_101280" data-name="Trazado 101280" d="M55,150a2,2,0,0,0-.71-.86c-.36-.3-.78-.61-1.11-.86-.64-.51-1.4-.94-1.59-1.17l2.35-19.65.31-2.54.13-1.18H48.1v23.58a21.509,21.509,0,0,0-.6,3.56,13.15,13.15,0,0,0,.35,1.91c.14.65.22,1.51.54,1.75a.89.89,0,0,0,1.2-.25.87.87,0,0,0,1.2.61.77.77,0,0,0,.32-.43c.26.56.49.92.81.94a1.1,1.1,0,0,0,.95-.43.73.73,0,0,0,.59.38.85.85,0,0,0,.93-1,4.129,4.129,0,0,0-.11-.66c.23,0,.9.08,1-.9A15.09,15.09,0,0,0,55,150Z" fill="#f69772"/>
        <path id="Trazado_101281" data-name="Trazado 101281" d="M54.2,124.91l-.31,2.54c-1.64.17-4.78,1.1-5.79,5.5v-7.31Z" fill="#f69772" opacity="0.5"/>
        <path id="Trazado_101282" data-name="Trazado 101282" d="M115.11,45.5l.42-1.52c.38-1.28-.2-1.42-.2-1.42-.48-.31-1.08,1-1.08,1l-1.56,3.3a3.72,3.72,0,0,0-.47.86,2.45,2.45,0,0,0,.22,1.88C113.11,50.92,115.11,45.5,115.11,45.5Z" fill="#f4ba98"/>
        <path id="Trazado_101283" data-name="Trazado 101283" d="M121.65,41.12l.84-1.29a.2.2,0,0,0,0-.21.18.18,0,0,0-.18-.08l-1.52.27L105.62,50a.78.78,0,0,0-.23,1.09.8.8,0,0,0,1.1.22Z" fill="#14274c"/>
        <path id="Trazado_101284" data-name="Trazado 101284" d="M54.23,86.08S50.36,90,49.68,97.69L48.1,119.45v4.27h6.23L54.7,120l.49-3.5,1.35-9.36v-.19l.78-5.77S62,75.8,54.23,86.08Z" fill="#fff"/>
        <path id="Trazado_101285" data-name="Trazado 101285" d="M56.56,106.92v.19l-1.35,9.36A3.58,3.58,0,0,1,53.84,113c-.54-3.76,1.08-1.74-1.48-7.93a20.73,20.73,0,0,1-.67-12.49Z" fill="#dff2f8"/>
        <path id="Trazado_101286" data-name="Trazado 101286" d="M54.87,125.53a.38.38,0,0,1-.31.35,19.35,19.35,0,0,1-6.87.13.32.32,0,0,1-.28-.29l-.21-3.61a.39.39,0,0,1,.31-.4,13.76,13.76,0,0,1,7.26.09.38.38,0,0,1,.29.39Z" fill="#fff"/>
        <path id="Trazado_101287" data-name="Trazado 101287" d="M71,137.57l-8.2,46.62c-.2,1.11-.4,2.21-.62,3.3l-7.11,35.58-.8,4H47.72c.83-8.4,1.2-18.25,2.13-27a75.76,75.76,0,0,1,2.67-14.54c.14-.44.29-.88.46-1.29s.3-.81.47-1.2l2.29-37.81a17.94,17.94,0,0,1-.61-13.32,20.87,20.87,0,0,1,3.32-6.31l11.39,3.21Z" fill="#10272a"/>
        <path id="Trazado_101288" data-name="Trazado 101288" d="M66.43,145.77v2.94a9.37,9.37,0,0,0-8.92,8.13,237.218,237.218,0,0,0-2.28,25.32l3.58.16-2.06,1a5.94,5.94,0,0,0-2,1.19c-1.71,5.42-9.44,33.35.3,38.6l-.8,4H47.72c.83-8.4,1.2-18.25,2.13-27a75.759,75.759,0,0,1,2.67-14.54h0c.14-.43.29-.87.45-1.28s.3-.81.47-1.2l2.29-37.81a17.94,17.94,0,0,1-.61-13.32l5.38,1.15,1.69,4.86a1.3,1.3,0,0,0-.41,0Z" fill="#10272a" opacity="0.5"/>
        <g id="Grupo_54104" data-name="Grupo 54104">
          <path id="Trazado_101289" data-name="Trazado 101289" d="M76.49,62.45s1.15,3.85-1.59,6.14l-2-4Z" fill="#15284b"/>
          <path id="Trazado_101290" data-name="Trazado 101290" d="M76.66,69.06c.1,1.06-.28,2-.85,2s-1.12-.76-1.23-1.82.27-2,.85-2S76.55,68,76.66,69.06Z" fill="#fff"/>
          <g id="Grupo_54103" data-name="Grupo 54103">
            <path id="Trazado_101291" data-name="Trazado 101291" d="M76.12,71.05a18.5,18.5,0,0,0-.71-2.26,18.56,18.56,0,0,0-1.7-5.52,10.42,10.42,0,0,0-1.31-.81l-2.69,1.38-3.5,1.8-1.92,4.19-.11.25-1,2.31.07,8.23h7.24V78.35l.26-.12,2.69-1a1.07,1.07,0,0,0,1-1l.1-1.62a6.89,6.89,0,0,0,.68-2.64C75.67,71.81,76.38,71.68,76.12,71.05Z" fill="#f4ba98"/>
            <path id="Trazado_101292" data-name="Trazado 101292" d="M72.56,65.87v8.39a.9.9,0,0,0,.33.73.89.89,0,0,0,.77.16,2.4,2.4,0,0,0,.82-.58h0A1.49,1.49,0,0,1,74.81,76c-.09.47.32.89.37,1.36a1.68,1.68,0,0,1-.35,1.28,2.69,2.69,0,0,1-2.59.55,5,5,0,0,1-1.41-.46,1.29,1.29,0,0,1-.37-.28v-.06a1.33,1.33,0,0,1-.25-.41,2.92,2.92,0,0,1,0-2,23.91,23.91,0,0,0,1.09-4.49l.34-2.37a.58.58,0,0,0-.2-.31.59.59,0,0,0-.52-.07c-1.51.55-.92,3.49-1.59,4.57a2.71,2.71,0,0,1-.42.54,4.63,4.63,0,0,1-1.57,1,6,6,0,0,1-.93.31,6.919,6.919,0,0,1-1.41.19h-.73a3.59,3.59,0,0,1-1-.23c-1.28-.58-1.08-2.11-1.8-3.7a8.41,8.41,0,0,0-1.51-1.85,3.75,3.75,0,0,1,.54-7.46,3.08,3.08,0,0,1,.61.06,5.37,5.37,0,0,1,5.34-4.85,5.31,5.31,0,0,1,2,.39,5.1,5.1,0,1,1,4.17,8.15Z" fill="#12263f"/>
            <path id="Trazado_101293" data-name="Trazado 101293" d="M67.31,74.83v5.39H63.22V75.13c-1.28-.58-1.08-2.11-1.8-3.7a8.41,8.41,0,0,0-1.51-1.85S58.81,66.32,62,66a2.58,2.58,0,0,1,1.67.37,6.59,6.59,0,0,1,1.59,1.35C66.39,69,67.47,71.21,67.31,74.83Z" fill="#f4d3b0"/>
            <path id="Trazado_101294" data-name="Trazado 101294" d="M65.27,67.7a6.59,6.59,0,0,0-1.59-1.35A2.58,2.58,0,0,0,62,66c-3.2.34-2.1,3.6-2.1,3.6a8.41,8.41,0,0,1,1.51,1.85c.72,1.59.52,3.12,1.8,3.7a3.3,3.3,0,0,0,1,.22,5.879,5.879,0,0,0,.73,0,7.7,7.7,0,0,0,1.41-.19,6,6,0,0,0,.93-.31h0C67.47,71.21,66.39,69,65.27,67.7Z" fill="#15284b"/>
          </g>
          <path id="Trazado_101295" data-name="Trazado 101295" d="M76.13,68.69l-4.83.48a.31.31,0,0,0-.2.11.29.29,0,0,0-.06.22.3.3,0,0,0,.32.27l4.83-.49Z" fill="#fff"/>
        </g>
        <path id="Trazado_101296" data-name="Trazado 101296" d="M78.52,177.87c-1.37,14.54-3.16,30-4.74,45-.13,1.3-.27,2.61-.4,3.9H66.55a246.933,246.933,0,0,0,.3-26.75c-.13-5.58-.12-10.25.75-14.57.11-.58.24-1.14.39-1.69.06-.25.13-.49.2-.73l-1.25-15.44-.8-9.88-1-11.8a17.82,17.82,0,0,1-2.75-3.51,16.35,16.35,0,0,1-1.51-3.4,17,17,0,0,1-.34-9.33h19.9c.06.77.11,1.55.14,2.35C81.22,144.24,80.17,160.37,78.52,177.87Z" fill="#10272a"/>
        <path id="Trazado_101297" data-name="Trazado 101297" d="M73.78,222.89c-.13,1.3-.27,2.61-.4,3.9H66.55a246.933,246.933,0,0,0,.3-26.75c-.13-5.58-.12-10.25.75-14.57h0c.12-.57.24-1.14.38-1.69.06-.25.13-.49.2-.73l-1.25-15.44-.8-9.88-1-11.8a17.82,17.82,0,0,1-2.75-3.51,16.35,16.35,0,0,1-1.5-3.42c.58,1.26,2.93,5.54,7.29,5.79l2.8.08s-4.76,4.76-2.39,22.77l1.36,14.92H73.4a12.46,12.46,0,0,0-3.71,2.22C69.23,186.62,64.84,222.79,73.78,222.89Z" fill="#10272a" opacity="0.5"/>
        <path id="Trazado_101298" data-name="Trazado 101298" d="M60.78,81.29v.33c0,.76,13.32.51,13.21-.33h0a3.14,3.14,0,0,0-2.34-1.81H62.73a2.08,2.08,0,0,0-1.95,1.81Z" fill="#fff"/>
        <path id="Trazado_101299" data-name="Trazado 101299" d="M82.41,132.16c.15,2.1-1.21,2.68-2.55,2.76a4.89,4.89,0,0,1-2.91-.73c-1.08-.68-3.31-.75-5-.67a46.43,46.43,0,0,1-12.72-.14c-2.52-.46-4-.11-4.92-.72a2.3,2.3,0,0,1-1-2.58c1-3.45,3.72-11.56,3.76-12.59A23.36,23.36,0,0,0,55,106.74c-1.53-3.47-3.41-6.86-3.48-10.71-.07-4.25.56-9.79,4.89-12.14l4.5-2.46h.16c1.9-.82,4-.81,6.68-.87h.47a9.41,9.41,0,0,1,1.76,0C74.27,81,78.27,82.41,80.5,86a11,11,0,0,1,1.21,2.7c2.16,7.19-.16,13.54-1.35,20.59a47.241,47.241,0,0,0-.62,8.91,31,31,0,0,0,1.34,8.57,5.24,5.24,0,0,1,.22,3c.32.6.59,1.07.77,1.38A2.37,2.37,0,0,1,82.41,132.16Z" fill="#fff"/>
        <path id="Trazado_101300" data-name="Trazado 101300" d="M82.41,132.16c.15,2.1-1.21,2.68-2.55,2.76a4.89,4.89,0,0,1-2.91-.73c-1.08-.68-3.31-.75-5-.67a46.43,46.43,0,0,1-12.72-.14c11-1.67,11.44-9.78,11.44-9.78l1.79-17.31A7.4,7.4,0,0,0,69.91,100a23.558,23.558,0,0,1-2.07-2C64.19,90.79,69,84.14,69,84.14L80.5,86a11,11,0,0,1,1.21,2.7c2.16,7.19-.16,13.54-1.35,20.59a47.241,47.241,0,0,0-.62,8.91,31,31,0,0,0,1.34,8.57,5.24,5.24,0,0,1,.22,3c.32.6.59,1.07.77,1.38A2.37,2.37,0,0,1,82.41,132.16Z" fill="#dff2f8"/>
        <g id="Grupo_54105" data-name="Grupo 54105">
          <path id="Trazado_101301" data-name="Trazado 101301" d="M98.45,72.86,82.07,79.53c-5.84,0-8.94,2.22-11.2,3.57a5.39,5.39,0,0,0-2.59,5.17,6.51,6.51,0,0,0,.14,1h0a7.13,7.13,0,0,0,4.69,4.78l.32.11c2.64.81,4.68-.29,7-1.53,7.2-4,11.19-7.09,21-12.87a8.28,8.28,0,0,0,3.32-3.61l1.91-4-5.55-3.22Z" fill="#fff"/>
          <path id="Trazado_101302" data-name="Trazado 101302" d="M115.98,52.7l-5.83,12.24-2.88,6.04-.56,1.18-5.55-3.22.32-.47,1.94-2.8,9.94-14.38Z" fill="#f4ba98"/>
        </g>
        <path id="Trazado_101303" data-name="Trazado 101303" d="M91.19,76.26c2.31-.53,2.69.5,2.69.5,1.94,3.27-6.65,5.89-10.38,6.65s-2.77-.55-7,5.46-7.87,1-7.87,1c-.06-.17-.12-.36-.18-.56h0a6.51,6.51,0,0,1-.14-1,5.39,5.39,0,0,1,2.59-5.17c2.26-1.35,5.36-3.61,11.2-3.57Z" fill="#dff2f8" opacity="0.3"/>
        <path id="Trazado_101304" data-name="Trazado 101304" d="M110.15,64.94l-2.88,6-5.79-2.51,1.94-2.8C104.76,67.28,107.62,67.55,110.15,64.94Z" fill="#f4ba98" opacity="0.5"/>
        <path id="Trazado_101305" data-name="Trazado 101305" d="M101.47,67.17a.38.38,0,0,1,.44-.17,19.55,19.55,0,0,1,6.14,3.08.32.32,0,0,1,.11.39l-1.5,3.3a.38.38,0,0,1-.45.21,13.84,13.84,0,0,1-6.39-3.46.39.39,0,0,1-.08-.48Z" fill="#fff"/>
        <path id="Trazado_101306" data-name="Trazado 101306" d="M119.47,48.89a6.622,6.622,0,0,0-.43-.56,1.54,1.54,0,0,0-.85-1.76c.18-1.24-1.18-1.38-1.18-1.38l1-1.26c.86-1,.25-1.57.25-1.57a.72.72,0,0,0-.93.14l-4.59,5.12a1.78,1.78,0,0,0-.46,1.2,2.209,2.209,0,0,0,0,.28l.69,2.72-1.4,2.36,2.48,1.44,1.54-2.27a5.65,5.65,0,0,0,3-2C118.94,50.77,119.69,49.58,119.47,48.89Z" fill="#f4ba98"/>
        <path id="Trazado_101307" data-name="Trazado 101307" d="M119,48.33s.82.24.34,1.44Z" fill="#f4ba98"/>
      </g>
    </g>
  </g>
</svg>
