<svg xmlns="http://www.w3.org/2000/svg" width="140" height="140" viewBox="0 0 140 140">
  <g id="Grupo_77020" data-name="Grupo 77020" transform="translate(-411 -4980)">
    <g id="Capa_2" data-name="Capa 2" transform="translate(411 4980)">
      <rect id="Rect치ngulo_5302" data-name="Rect치ngulo 5302" width="120" height="100" transform="translate(0 20)" fill="none"/>
      <path id="Trazado_101511" data-name="Trazado 101511" d="M50,0h0a50,50,0,0,1,50,50v50H50A50,50,0,0,1,0,50H0A50,50,0,0,1,50,0Z" transform="translate(120 120) rotate(180)" fill="#419ca6"/>
      <rect id="Rect치ngulo_5303" data-name="Rect치ngulo 5303" width="140" height="140" fill="none"/>
      <g id="Grupo_54167" data-name="Grupo 54167" transform="translate(27.629 30.167)">
        <path id="Trazado_101512" data-name="Trazado 101512" d="M39,54.93a1.73,1.73,0,0,1-1.43-2.68c5.34-8,14.8-12.76,25.29-12.76a1.72,1.72,0,1,1,0,3.43c-9.34,0-17.73,4.21-22.43,11.24a1.7,1.7,0,0,1-1.43.77Z" transform="translate(-37.286 -39.485)" fill="#fff"/>
        <path id="Trazado_101513" data-name="Trazado 101513" d="M79.87,114.73a8.72,8.72,0,0,1-4.65-1.34c-8.66-5.47-28-20.22-32.43-31-5.61-13.56-3.39-25.48,6-31.89,9.1-6.24,22.46-5.33,31.13,1.91,8.67-7.24,22-8.15,31.13-1.91,9.34,6.41,11.56,18.33,6,31.89-4.45,10.74-23.77,25.49-32.43,31A8.72,8.72,0,0,1,79.87,114.73ZM62.75,49.79a21.35,21.35,0,0,0-12.07,3.59C42.66,58.88,41,69,46,81.11c3.73,9,20.75,22.85,31.09,29.37a5.3,5.3,0,0,0,5.63,0C93,104,110,90.12,113.77,81.11c5-12.12,3.31-22.23-4.71-27.73-8.24-5.65-20.54-4.5-28,2.61l-1.19,1.13L78.69,56a23.27,23.27,0,0,0-15.94-6.21Zm52.61,32Z" transform="translate(-37.286 -39.485)" fill="#fff"/>
      </g>
    </g>
  </g>
</svg>
