<svg xmlns="http://www.w3.org/2000/svg" width="140" height="140" viewBox="0 0 140 140">
  <g id="Grupo_77019" data-name="Grupo 77019" transform="translate(-411 -4766)">
    <g id="Capa_2" data-name="Capa 2" transform="translate(411 4766)">
      <rect id="Rect치ngulo_5300" data-name="Rect치ngulo 5300" width="120" height="100" transform="translate(0 20)" fill="none"/>
      <path id="Trazado_101510" data-name="Trazado 101510" d="M50,0h0a50,50,0,0,1,50,50v50H50A50,50,0,0,1,0,50H0A50,50,0,0,1,50,0Z" transform="translate(120 120) rotate(180)" fill="#419ca6"/>
      <rect id="Rect치ngulo_5301" data-name="Rect치ngulo 5301" width="140" height="140" fill="none"/>
      <g id="Page-1" transform="translate(31.964 30.785)">
        <g id="_010---Idea" data-name="010---Idea">
          <path id="Shape" d="M43.45,86.35a8.53,8.53,0,0,0,1.28.74c.53.27,1.42.73,1.49,1a2.24,2.24,0,0,1-.15,1.25,10.865,10.865,0,0,1-.54,1c-.45.8-1.21,2.14-.07,3.07.27.24.73.6,1.15.92a3.17,3.17,0,0,0-.41,1.78,1.75,1.75,0,0,0,.74,1.21,9.291,9.291,0,0,0,.85.53c.73.41,1,.61,1.11,1a3.36,3.36,0,0,1-.12,1.48,8.63,8.63,0,0,0-.19,1A7.36,7.36,0,0,0,49,104.7a4.6,4.6,0,0,0,4.36,3.36,4.281,4.281,0,0,0,1-.11,92.643,92.643,0,0,0,10.4-3.11c2.77,1.63,4.53,6.59,5,8.45a1.23,1.23,0,0,0,1.19.94l31-.09a1.23,1.23,0,0,0,1.18-1.6,9.56,9.56,0,0,0-1.25-2.34,12.152,12.152,0,0,1-.8-1.34,23.09,23.09,0,0,1-1.39-3.51,41.119,41.119,0,0,1-1.45-7.21,1.244,1.244,0,1,0-2.47.3,44.32,44.32,0,0,0,1.54,7.65,27.181,27.181,0,0,0,1.5,3.91,14,14,0,0,0,1,1.61l.08.12-28,.08a19.73,19.73,0,0,0-4.34-7.87l1.1-.39c.83-.29,1.45-.51,1.77-.61,5.29-1.67,7.93-4.08,7.86-7.15a1.23,1.23,0,0,0-.37-.87,1.18,1.18,0,0,0-.89-.33,1.22,1.22,0,0,0-1.2,1.26c0,1.27-1,3.12-6.14,4.74l-1.83.63c-.92.32-2.08.73-3.37,1.16h0a98,98,0,0,1-10.6,3.21,2.19,2.19,0,0,1-2.54-1.65,5,5,0,0,1-.29-2.2,7.45,7.45,0,0,1,.15-.77,5.41,5.41,0,0,0,.11-2.62A4.11,4.11,0,0,0,49,95.78l-.25-.15a4.58,4.58,0,0,1,.47-.76,1.23,1.23,0,0,0-.23-1.76c-.3-.22-1-.74-1.51-1.15l.19-.33c.19-.34.41-.74.63-1.19a4.68,4.68,0,0,0,.33-2.76c-.3-1.51-1.74-2.24-2.79-2.78a7.83,7.83,0,0,1-1-.59,4.85,4.85,0,0,1-.74-.6c0-.19.2-.64,1.14-1.78a50.2,50.2,0,0,0,5.64-9.17,3.75,3.75,0,0,0,.48-1.67A4.34,4.34,0,0,0,49.56,68c-.5-.46-1-.89-1-1.29a2.5,2.5,0,0,1,.19-.85c.2-.53.44-1,.67-1.56a18.16,18.16,0,0,0,1.21-3.25l.12-.53a30.67,30.67,0,0,1,1-3.64,21.14,21.14,0,0,1,4.42-7.23c2.36-2.49,6.07-4.26,11.05-5.25a82.27,82.27,0,0,1,11.57-1.67,26.93,26.93,0,0,1,5.81.33,1.23,1.23,0,0,0,1.4-1,1.25,1.25,0,0,0-1-1.43,29.37,29.37,0,0,0-6.35-.36A82.6,82.6,0,0,0,66.72,42c-5.56,1.11-9.6,3.06-12.36,6a23.59,23.59,0,0,0-5,8.07A33.12,33.12,0,0,0,48.32,60l-.12.52a16.4,16.4,0,0,1-1.06,2.81c-.24.56-.5,1.13-.72,1.71a4.17,4.17,0,0,0-.33,2.06,4.74,4.74,0,0,0,1.8,2.76c.6.55,1,.94,1,1.28a1.63,1.63,0,0,1-.21.53,46.55,46.55,0,0,1-5.4,8.78c-.89,1.09-1.82,2.35-1.62,3.62a3.74,3.74,0,0,0,1.79,2.28Z" transform="translate(-41.633 -40.129)" fill="#fff"/>
          <path id="Shape-2" data-name="Shape" d="M55.4,62.18l.12-.54a26.792,26.792,0,0,1,.83-3,16.22,16.22,0,0,1,3.38-5.54,12.89,12.89,0,0,1,5.68-3.13,1.228,1.228,0,1,0-.71-2.35,15.23,15.23,0,0,0-6.76,3.78A18.62,18.62,0,0,0,54,57.75a30,30,0,0,0-.92,3.34l-.12.54a1.24,1.24,0,0,0,.92,1.48,1.33,1.33,0,0,0,.28,0A1.24,1.24,0,0,0,55.4,62.18Z" transform="translate(-41.633 -40.129)" fill="#fff"/>
          <circle id="Oval" cx="1.23" cy="1.23" r="1.23" transform="translate(9.867 24.781)" fill="#fff"/>
          <path id="Shape-3" data-name="Shape" d="M74.92,65.16a16.91,16.91,0,0,0,4.17,11.46,21.59,21.59,0,0,0,2.84,2.47c1.8,1.39,3.51,2.72,4,4.58A3.68,3.68,0,0,0,83.6,87.1v2.47A3.69,3.69,0,0,0,86,93v.23a4.94,4.94,0,0,0,9.87,0V93a3.69,3.69,0,0,0,2.46-3.47V87.1A3.68,3.68,0,0,0,96,83.67c.45-1.85,2.16-3.19,4-4.58a22.161,22.161,0,0,0,2.83-2.47A16.86,16.86,0,0,0,107,65.16a16.03,16.03,0,0,0-32.06,0Zm12.33,2.21H86a1.23,1.23,0,1,1,1.23-1.23Zm4.94,16H89.72V69.84h2.47ZM91,95.73a2.46,2.46,0,0,1-2.46-2.46h4.93A2.46,2.46,0,0,1,91,95.73Zm4.94-6.16A1.24,1.24,0,0,1,94.7,90.8H87.3A1.23,1.23,0,0,1,86,89.57V87.1a1.23,1.23,0,0,1,1.23-1.23h7.4a1.24,1.24,0,0,1,1.24,1.23Zm8.63-24.37A14.47,14.47,0,0,1,101,75a20.58,20.58,0,0,1-2.51,2.16,17.47,17.47,0,0,0-3.83,3.65V69.84H95.9a3.7,3.7,0,1,0-3.7-3.7v1.23H89.72V66.14a3.7,3.7,0,1,0-3.7,3.7h1.23V80.78a17.37,17.37,0,0,0-3.81-3.65A18.449,18.449,0,0,1,80.93,75a14.38,14.38,0,0,1-3.54-9.77c.12-7.51,6.33-13.86,13.56-13.86s13.45,6.32,13.57,13.83ZM94.7,67.37V66.14a1.24,1.24,0,1,1,1.24,1.23Z" transform="translate(-41.633 -40.129)" fill="#fff"/>
          <path id="Shape-4" data-name="Shape" d="M110.68,66.14h3.7a1.24,1.24,0,0,0,0-2.47h-3.7a1.24,1.24,0,0,0,0,2.47Z" transform="translate(-41.633 -40.129)" fill="#fff"/>
          <path id="Shape-5" data-name="Shape" d="M104.9,52.19a1.27,1.27,0,0,0,.88-.36l2.61-2.62a1.23,1.23,0,1,0-1.74-1.74L104,50.08a1.25,1.25,0,0,0-.27,1.35,1.23,1.23,0,0,0,1.17.76Z" transform="translate(-41.633 -40.129)" fill="#fff"/>
          <path id="Shape-6" data-name="Shape" d="M91,46.41a1.24,1.24,0,0,0,1.24-1.23v-3.7a1.24,1.24,0,1,0-2.47,0v3.7A1.23,1.23,0,0,0,91,46.41Z" transform="translate(-41.633 -40.129)" fill="#fff"/>
          <path id="Shape-7" data-name="Shape" d="M77.88,51.83a1.24,1.24,0,0,0,0-1.75l-2.62-2.61a1.25,1.25,0,0,0-1.2-.34,1.23,1.23,0,0,0-.88.88,1.25,1.25,0,0,0,.34,1.2l2.61,2.62a1.24,1.24,0,0,0,.87.36,1.27,1.27,0,0,0,.88-.36Z" transform="translate(-41.633 -40.129)" fill="#fff"/>
          <path id="Shape-8" data-name="Shape" d="M67.53,63.67a1.24,1.24,0,1,0,0,2.47h3.69a1.24,1.24,0,1,0,0-2.47Z" transform="translate(-41.633 -40.129)" fill="#fff"/>
        </g>
      </g>
    </g>
  </g>
</svg>
