<svg id="Capa_2" data-name="Capa 2" xmlns="http://www.w3.org/2000/svg" width="120" height="120" viewBox="0 0 120 120">
  <rect id="Rectángulo_5255" data-name="Rectángulo 5255" width="120" height="120" fill="none"/>
  <path id="Trazado_101224" data-name="Trazado 101224" d="M60,10h0a50,50,0,0,1,50,50v50H60A50,50,0,0,1,10,60h0A50,50,0,0,1,60,10Z" transform="translate(120 120) rotate(180)" fill="#043f45"/>
  <path id="Trazado_101225" data-name="Trazado 101225" d="M69.79,83.29,50.64,64.14A3.072,3.072,0,1,1,55,59.81l-4.93-4.94a3.05,3.05,0,0,1-.9-2.17,2.77,2.77,0,0,1,0-.49,3.06,3.06,0,0,1,.86-1.68,3.064,3.064,0,0,1,4.04-.25L52.2,48.41a3.07,3.07,0,0,1-.9-2.17,2.07,2.07,0,0,1,0-.5,3,3,0,0,1,.85-1.67,3.07,3.07,0,0,1,4.34,0l2.15,2.15a3.09,3.09,0,0,1-.86-2.66,3,3,0,0,1,.86-1.68,3.07,3.07,0,0,1,4.34,0L75.49,54.33h0a5.6,5.6,0,0,1,7.94,0l5.8,5.8A6,6,0,0,1,91,64.29v3.63a6.43,6.43,0,0,0,1.88,4.53l1.29,1.29-14.8,14.8-1.65-1.65A6.48,6.48,0,0,0,73.61,85a6,6,0,0,1-3.82-1.71Z" fill="#fecbaa"/>
  <path id="Trazado_101226" data-name="Trazado 101226" d="M78.42,89.5l16.8-16.8a1.42,1.42,0,0,1,2,0l6,6a1.42,1.42,0,0,1,0,2L86.42,97.5a1.43,1.43,0,0,1-2,0l-6-6a1.41,1.41,0,0,1,0-2Z" fill="#f2884b"/>
  <path id="Trazado_101227" data-name="Trazado 101227" d="M95.67,80.24a1.26,1.26,0,1,0-.373-.895,1.27,1.27,0,0,0,.373.895Z" fill="#facfb7"/>
  <path id="Trazado_101228" data-name="Trazado 101228" d="M79.77,58.61l-4.28-4.28h0a5.58,5.58,0,0,1,2.17-1.35l3.88,3.88a1.273,1.273,0,1,1-1.8,1.8Z" fill="#ffae85"/>
  <path id="Trazado_101229" data-name="Trazado 101229" d="M53.16,83.29,72.31,64.14a3.072,3.072,0,1,0-4.35-4.34l4.94-4.93a3.07,3.07,0,0,0,.9-2.17,3.888,3.888,0,0,0,0-.49,3.06,3.06,0,0,0-4.91-1.93l1.88-1.88a3.07,3.07,0,0,0,.9-2.17,2.739,2.739,0,0,0,0-.5,3.07,3.07,0,0,0-.86-1.67,3,3,0,0,0-1.68-.86,3.09,3.09,0,0,0-2.66.86l-2.15,2.15a3.068,3.068,0,0,0,0-4.34,3.07,3.07,0,0,0-4.34,0L47.47,54.33h0a5.58,5.58,0,0,0-7.93,0l-5.81,5.8A6,6,0,0,0,32,64.29v3.63a6.45,6.45,0,0,1-1.88,4.53l-1.3,1.29,14.81,14.8,1.65-1.65A6.39,6.39,0,0,1,49.34,85a6,6,0,0,0,3.82-1.71Z" fill="#fecbaa"/>
  <path id="Trazado_101230" data-name="Trazado 101230" d="M44.54,89.5,27.74,72.7a1.43,1.43,0,0,0-2,0l-6,6a1.42,1.42,0,0,0,0,2l16.8,16.8a1.4,1.4,0,0,0,2,0l6-6a1.43,1.43,0,0,0,0-2Z" fill="#77cfd9"/>
  <path id="Trazado_101231" data-name="Trazado 101231" d="M38.8,91.76a1.27,1.27,0,1,0-1.79,0,1.27,1.27,0,0,0,1.79,0Z" fill="#89eaf5"/>
  <path id="Trazado_101232" data-name="Trazado 101232" d="M43.18,58.61l4.29-4.28h0a5.62,5.62,0,0,0-2.16-1.35l-3.88,3.89a1.27,1.27,0,1,0,1.79,1.79Z" fill="#ffae85"/>
  <path id="Trazado_101233" data-name="Trazado 101233" d="M73.73,37.4V64.48a3.07,3.07,0,0,1-6.14,0v7a3.1,3.1,0,0,1-.89,2.18,3.68,3.68,0,0,1-.38.31,3,3,0,0,1-3.57,0,3.09,3.09,0,0,1-1.26-2.12V74.5a3.11,3.11,0,0,1-.9,2.18,3.792,3.792,0,0,1-.38.32,3.07,3.07,0,0,1-4.86-2.5v-3a3.084,3.084,0,0,1-3.06,3.08,3.07,3.07,0,0,1-3.07-3.08V53.85h-.06a5.45,5.45,0,0,1-2.48-.58,5.6,5.6,0,0,1-3.13-5V40a5.94,5.94,0,0,1,1.74-4.2l2.56-2.57a6.43,6.43,0,0,0,1.88-4.53V26.91H70.66v2.34a6.43,6.43,0,0,0,1.59,4.22A6,6,0,0,1,73.73,37.4Z" fill="#fedfc5"/>
  <path id="Trazado_101234" data-name="Trazado 101234" d="M72.32,59.8a3.09,3.09,0,0,0-4.35,0l4.94-4.93a3.07,3.07,0,0,0,.9-2.17,3.888,3.888,0,0,0,0-.49,3.06,3.06,0,0,0-4.91-1.93l1.88-1.88a3.07,3.07,0,0,0,.9-2.17,2.739,2.739,0,0,0,0-.5,3.07,3.07,0,0,0-.86-1.67,3,3,0,0,0-1.68-.86,3.09,3.09,0,0,0-2.66.86l-2.15,2.15a3.07,3.07,0,1,0-4.34-4.34L47.47,54.33h0a5.62,5.62,0,0,0-2.16-1.35,5.76,5.76,0,0,0-2.91-.18,8,8,0,0,0,3.19,2.81,6.87,6.87,0,0,0,1.13.46V71.45A5.6,5.6,0,0,0,53.38,77a5.58,5.58,0,0,0,1.75,2,5.42,5.42,0,0,0,1.51.78L72.31,64.14a3.08,3.08,0,0,0,.01-4.34Z" fill="#ffae85"/>
  <path id="Trazado_101235" data-name="Trazado 101235" d="M76.27,64.48V53.65a4.911,4.911,0,0,0-.75.63h0L63,41.88a3.07,3.07,0,0,0-4.34,0,3,3,0,0,0-.86,1.68,3.09,3.09,0,0,0,.86,2.66l-2.15-2.15a3.07,3.07,0,0,0-4.34,0,3,3,0,0,0-.85,1.67,2.731,2.731,0,0,0,0,.5,3.08,3.08,0,0,0,.91,2.17l1.87,1.87a3.05,3.05,0,0,0-4.9,1.93,2.77,2.77,0,0,0,0,.49,3.05,3.05,0,0,0,.9,2.17L55,59.81a3.07,3.07,0,1,0-4.34,4.33L63.47,77a5.36,5.36,0,0,0,1.06.1A5.6,5.6,0,0,0,67.81,76a5.43,5.43,0,0,0,.68-.59,5.55,5.55,0,0,0,1.65-4V70.07a4.409,4.409,0,0,0,.52,0A5.62,5.62,0,0,0,76.27,64.48Z" fill="#ffae85"/>
  <path id="Trazado_101236" data-name="Trazado 101236" d="M73.73,37.4V64.48a3.07,3.07,0,0,1-3.07,3.07h-.14A3,3,0,0,1,68.87,67h0a3.09,3.09,0,0,1-1.27-2.49v7a3.1,3.1,0,0,1-.89,2.18,3.682,3.682,0,0,1-.38.31,3,3,0,0,1-3.57,0,3.09,3.09,0,0,1-1.26-2.12v2.65a3.11,3.11,0,0,1-.9,2.18,3.791,3.791,0,0,1-.38.32,3.07,3.07,0,0,1-4.86-2.5v-3a3.084,3.084,0,0,1-3.06,3.08,3.07,3.07,0,0,1-3.07-3.08V53.85h-.06a5.45,5.45,0,0,1-2.48-.58,5.6,5.6,0,0,1-3.13-5V40a5.94,5.94,0,0,1,1.74-4.2l2.56-2.57a6.45,6.45,0,0,0,1.88-4.53V26.91H70.66v2.34a6.06,6.06,0,0,0,.2,1.58,6.41,6.41,0,0,0,1.39,2.64A6,6,0,0,1,73.73,37.4Z" fill="#fedfc5"/>
  <path id="Trazado_101237" data-name="Trazado 101237" d="M73.73,37.4V64.48a3.07,3.07,0,0,1-3.07,3.07h-.14A3,3,0,0,1,68.87,67V40.9a3.71,3.71,0,0,0-.1-.72A11.8,11.8,0,0,0,57,30.63H49.44a6.37,6.37,0,0,0,.29-1.89V26.91H70.66v2.34a6.06,6.06,0,0,0,.2,1.58,6.41,6.41,0,0,0,1.39,2.64A6,6,0,0,1,73.73,37.4Z" fill="#fecbaa"/>
  <path id="Trazado_101238" data-name="Trazado 101238" d="M72,26.91H48.26a1.43,1.43,0,0,1-1.42-1.42V17a1.43,1.43,0,0,1,1.42-1.42H72A1.43,1.43,0,0,1,73.44,17v8.46A1.43,1.43,0,0,1,72,26.91Z" fill="#419ca6"/>
  <path id="Trazado_101239" data-name="Trazado 101239" d="M53.56,21.26a1.27,1.27,0,1,0-1.27,1.27A1.27,1.27,0,0,0,53.56,21.26Z" fill="#67b0b8"/>
  <g id="Grupo_54099" data-name="Grupo 54099">
    <path id="Trazado_101240" data-name="Trazado 101240" d="M68.87,50.31V67a3.07,3.07,0,0,1-1.28-2.49v7a3.1,3.1,0,0,1-.89,2.18,2.849,2.849,0,0,1-.38.31V50.31a1.28,1.28,0,0,1,2.55,0Z" fill="#fecbaa"/>
    <path id="Trazado_101241" data-name="Trazado 101241" d="M62.75,50.31V74a3.09,3.09,0,0,1-1.26-2.12v2.65a3.11,3.11,0,0,1-.9,2.18,3.789,3.789,0,0,1-.38.32V50.31a1.27,1.27,0,0,1,2.54,0Z" fill="#fecbaa"/>
    <path id="Trazado_101242" data-name="Trazado 101242" d="M56.62,50.31V77a3.08,3.08,0,0,1-1.27-2.49v-3A3,3,0,0,1,54.08,74V50.31a1.27,1.27,0,0,1,2.54,0Z" fill="#fecbaa"/>
    <path id="Trazado_101243" data-name="Trazado 101243" d="M49.22,47.79v6.06h-.06a5.45,5.45,0,0,1-2.48-.58V47.79a1.27,1.27,0,0,1,2.54,0Z" fill="#fecbaa"/>
  </g>
</svg>
