<svg id="Capa_2" data-name="Capa 2" xmlns="http://www.w3.org/2000/svg" width="140" height="140" viewBox="0 0 140 140">
  <rect id="Rect치ngulo_5298" data-name="Rect치ngulo 5298" width="120" height="100" transform="translate(0 20)" fill="none"/>
  <path id="Trazado_101505" data-name="Trazado 101505" d="M50,0h0a50,50,0,0,1,50,50v50H50A50,50,0,0,1,0,50H0A50,50,0,0,1,50,0Z" transform="translate(120 120) rotate(180)" fill="#419ca6"/>
  <rect id="Rect치ngulo_5299" data-name="Rect치ngulo 5299" width="140" height="140" fill="none"/>
  <g id="Grupo_54166" data-name="Grupo 54166" transform="translate(34.729 29.853)">
    <path id="Trazado_101506" data-name="Trazado 101506" d="M88.27,46.21A8.27,8.27,0,1,0,80,54.48a8.27,8.27,0,0,0,8.27-8.27ZM80,51.73a5.52,5.52,0,1,1,5.51-5.52A5.52,5.52,0,0,1,80,51.73Z" transform="translate(-44.73 -37.94)" fill="#fff"/>
    <path id="Trazado_101507" data-name="Trazado 101507" d="M92.4,72.4V66.89a12.4,12.4,0,0,0-24.8,0V72.4A1.37,1.37,0,0,0,69,73.78H91a1.37,1.37,0,0,0,1.4-1.38ZM89.65,71H70.35V66.89a9.65,9.65,0,0,1,19.3,0Z" transform="translate(-44.73 -37.94)" fill="#fff"/>
    <path id="Trazado_101508" data-name="Trazado 101508" d="M54.62,92l6.64,3.31v7.42a1.37,1.37,0,0,0,1.37,1.38H77.24a1.38,1.38,0,0,0,1.38-1.38V85.19a8.58,8.58,0,0,0-7.36-8.61c-.11,0-5.32-.41-7.84-2.93l-3.78-3.77a5.48,5.48,0,0,0-3.9-1.62v-11a5.51,5.51,0,1,0-11,0V76a17.93,17.93,0,0,0,9.9,16ZM47.47,57.24a2.76,2.76,0,1,1,5.52,0V69a5.55,5.55,0,0,0-2.76,4.78,5.43,5.43,0,0,0,1.62,3.89l7,7.06a1.393,1.393,0,1,0,2-1.94L53.8,75.73a2.71,2.71,0,0,1-.81-2,2.77,2.77,0,0,1,1.83-2.6h0a2.74,2.74,0,0,1,2.86.65l3.78,3.77C64,78.17,67.78,78.89,71,79.32h0a5.8,5.8,0,0,1,4.9,5.87v16.15H64V94.45a1.37,1.37,0,0,0-.76-1.23l-7.4-3.7A15.1,15.1,0,0,1,47.47,76Z" transform="translate(-44.73 -37.94)" fill="#fff"/>
    <circle id="Elipse_4068" data-name="Elipse 4068" cx="1.38" cy="1.38" r="1.38" transform="translate(61.87 49.34)" fill="#fff"/>
    <path id="Trazado_101509" data-name="Trazado 101509" d="M109.77,51.73a5.51,5.51,0,0,0-5.51,5.51v11a5.48,5.48,0,0,0-3.9,1.62l-3.77,3.77c-2.2,2.2-5.77,2.57-7.85,2.93a8.58,8.58,0,0,0-7.36,8.61V102.7a1.38,1.38,0,0,0,1.38,1.38H97.37a1.37,1.37,0,0,0,1.37-1.38V95.3l4.51-2.25A1.384,1.384,0,1,0,102,90.58l-5.27,2.64A1.37,1.37,0,0,0,96,94.45v6.89H84.13V85.19A5.8,5.8,0,0,1,89,79.32h0c3.22-.43,6.92-1.15,9.48-3.72l3.78-3.77a2.73,2.73,0,0,1,2.86-.65h0a2.77,2.77,0,0,1,1.83,2.6,2.71,2.71,0,0,1-.81,2l-7,7.06a1.38,1.38,0,0,0,1.95,1.94l7.05-7a5.47,5.47,0,0,0,1.62-3.9A5.55,5.55,0,0,0,107,69V57.24a2.76,2.76,0,0,1,5.52,0V76a15.14,15.14,0,0,1-1.85,7.24,1.383,1.383,0,0,0,2.43,1.32A18,18,0,0,0,115.28,76V57.24a5.51,5.51,0,0,0-5.51-5.51Z" transform="translate(-44.73 -37.94)" fill="#fff"/>
  </g>
</svg>
