<svg xmlns="http://www.w3.org/2000/svg" width="174" height="174" viewBox="0 0 174 174">
  <g id="Grupo_77014" data-name="Grupo 77014" transform="translate(-406 -1925)">
    <g id="Capa_2" data-name="Capa 2" transform="translate(406 1925)">
      <rect id="Rectángulo_5281" data-name="Rectángulo 5281" width="174" height="174" fill="none"/>
      <path id="Trazado_101455" data-name="Trazado 101455" d="M72.5,0h0A72.5,72.5,0,0,1,145,72.5V145H72.5A72.5,72.5,0,0,1,0,72.5H0A72.5,72.5,0,0,1,72.5,0Z" transform="translate(14.5 159.5) rotate(-90)" fill="#f2884b"/>
      <path id="Trazado_101456" data-name="Trazado 101456" d="M108.123,96.688,83.951,87.509v-5.8A23.65,23.65,0,0,0,96.827,65.643h2.349a6.38,6.38,0,0,0,6.365-6.366V55.986a6.365,6.365,0,0,0-2.088-4.713v-7.6a1.74,1.74,0,0,0-1.8-1.653h-37.6a1.725,1.725,0,0,0,0,3.451H93.9v14.92a20.1,20.1,0,0,1-40.194,0V45.4H56.01a1.725,1.725,0,0,0,0-3.451H45.947a1.74,1.74,0,0,0-1.725,1.725v7.6a6.365,6.365,0,0,0-2.088,4.712v3.248A6.38,6.38,0,0,0,48.5,65.6h2.349A23.649,23.649,0,0,0,63.724,81.665v5.8L39.48,96.688a15.718,15.718,0,0,0-10.15,14.631v6.1a1.726,1.726,0,0,0,1.725,1.726h54.81a1.726,1.726,0,0,0,0-3.451H47.7V110.52a1.726,1.726,0,0,0-3.451,0v5.235H32.825v-4.437A12.252,12.252,0,0,1,40.7,99.906l25.36-9.584A1.783,1.783,0,0,0,67.175,88.7V82.9a23.418,23.418,0,0,0,13.253,0v5.8a1.783,1.783,0,0,0,1.116,1.624l25.36,9.585a12.252,12.252,0,0,1,7.874,11.412v4.437h-11.4V110.52a1.726,1.726,0,0,0-3.451,0v5.235H93.9a1.726,1.726,0,1,0,0,3.451H116.5a1.725,1.725,0,0,0,1.726-1.783v-6.1a15.718,15.718,0,0,0-10.15-14.631Zm-6.1-37.453a2.9,2.9,0,0,1-2.9,2.9H97.277V53.057h1.769a2.9,2.9,0,0,1,2.9,2.9v3.248ZM99.9,49.664a7.886,7.886,0,0,0-.826,0h-1.74V45.4H99.9ZM47.7,45.4h2.6V49.62H48.5a7.888,7.888,0,0,0-.826,0Zm.826,16.747a2.9,2.9,0,0,1-2.9-2.9V55.986a2.9,2.9,0,0,1,2.9-2.9H50.3v9.092Z" transform="translate(13.199 18.877)" fill="#fff"/>
      <path id="Trazado_101457" data-name="Trazado 101457" d="M81.815,82.93h-11.6a1.755,1.755,0,0,0-.769.174l-3.871,1.943L61.7,83.119a1.58,1.58,0,0,0-.769-.189h-11.6a1.726,1.726,0,1,0,0,3.451H60.53l4.277,2.132a1.667,1.667,0,0,0,1.537,0l4.278-2.132H81.815a1.726,1.726,0,1,0,0-3.451Z" transform="translate(21.424 37.318)" fill="#fff"/>
      <path id="Trazado_101458" data-name="Trazado 101458" d="M52.382,37.185a1.712,1.712,0,0,0,2.436-2.407l-3.553-3.553A7.946,7.946,0,1,1,62.5,19.988l1.856,1.856a1.711,1.711,0,0,0,2.436,0l1.856-1.856a7.946,7.946,0,0,1,11.9,10.484,6.409,6.409,0,0,0-4.031,1.523,6.487,6.487,0,0,0-8.874,9.454l.986.986-3.06,3.016-5-5.046a1.726,1.726,0,0,0-2.436,2.436L64.4,49.1a1.74,1.74,0,0,0,1.218.508,1.711,1.711,0,0,0,1.218-.508l4.234-4.234L75.307,49.1a1.74,1.74,0,0,0,1.218.508,1.711,1.711,0,0,0,1.218-.508L85.4,41.448a6.5,6.5,0,0,0,0-9.164,6.743,6.743,0,0,0-1.262-.986A11.4,11.4,0,0,0,66.215,17.465l-.638.638-.653-.638A11.4,11.4,0,0,0,48.83,33.575ZM82.919,39.07l-6.394,6.38L70.1,39.012a3.076,3.076,0,1,1,4.35-4.35l.913.914a1.74,1.74,0,0,0,2.436,0l.914-.913a3,3,0,0,1,2.146-.9,3.045,3.045,0,0,1,2.16,5.191Z" transform="translate(20.625 6.315)" fill="#fff"/>
    </g>
  </g>
</svg>
