<svg id="Capa_2" data-name="Capa 2" xmlns="http://www.w3.org/2000/svg" width="120" height="120" viewBox="0 0 120 120">
  <rect id="Rectángulo_5254" data-name="Rectángulo 5254" width="120" height="120" fill="none"/>
  <path id="Trazado_101206" data-name="Trazado 101206" d="M60,10h0a50,50,0,0,1,50,50v50H60A50,50,0,0,1,10,60h0A50,50,0,0,1,60,10Z" transform="translate(120 120) rotate(180)" fill="#043f45"/>
  <g id="Icons">
    <g id="Grupo_54098" data-name="Grupo 54098">
      <path id="Trazado_101207" data-name="Trazado 101207" d="M64.13,79.89V62H58.18V79.89H49.24v6H73.07v-6Z" fill="#89eaf5"/>
      <path id="Trazado_101208" data-name="Trazado 101208" d="M49.24,44.15v-6H34.35a3,3,0,0,0-3,3v6A14.89,14.89,0,0,0,46.26,62h3V56h-3a8.93,8.93,0,0,1-8.93-8.93v-3Z" fill="#89eaf5"/>
      <path id="Trazado_101209" data-name="Trazado 101209" d="M34.35,47.13v-6a3,3,0,0,1,3-3h-3a3,3,0,0,0-3,3v6A14.89,14.89,0,0,0,46.26,62h3A14.89,14.89,0,0,1,34.35,47.13Z" fill="#77cfd9"/>
      <path id="Trazado_101210" data-name="Trazado 101210" d="M73.07,44.15v-6H88a3,3,0,0,1,3,3v6A14.89,14.89,0,0,1,76.05,62h-3V56h3A8.93,8.93,0,0,0,85,47.13v-3Z" fill="#89eaf5"/>
      <path id="Trazado_101211" data-name="Trazado 101211" d="M88,47.13v-3H85v3a8.93,8.93,0,0,1-8.93,8.93h3A8.93,8.93,0,0,0,88,47.13Z" fill="#77cfd9"/>
      <path id="Trazado_101212" data-name="Trazado 101212" d="M28.39,88.83H46.26v8.93H28.39Z" fill="#fff"/>
      <path id="Trazado_101213" data-name="Trazado 101213" d="M28.39,88.83h6v8.93h-6Z" fill="#bababa"/>
      <path id="Trazado_101214" data-name="Trazado 101214" d="M76,88.83H93.91v8.93H76Z" fill="#fff"/>
      <path id="Trazado_101215" data-name="Trazado 101215" d="M76,88.83h6v8.93H76Z" fill="#bababa"/>
      <path id="Trazado_101216" data-name="Trazado 101216" d="M102.84,50.11h-.45a3,3,0,0,0-2.93,2.49L97.52,64.21a11.93,11.93,0,0,1-3.33,6.47l-3.25,3.25,2.35-4.7a5.94,5.94,0,0,0,.62-2.66v-1a1.49,1.49,0,0,0-2.54-1l-8.86,8.86A12,12,0,0,0,79,81.85v7H90.94V86a7.42,7.42,0,0,1,2.18-5.26l6.24-6.24a11.93,11.93,0,0,0,3.49-8.5c0-6.17,0-15.92,0-15.92Z" fill="#f0c8a0"/>
      <path id="Trazado_101217" data-name="Trazado 101217" d="M19.46,50.11h.45a3,3,0,0,1,2.94,2.49l1.93,11.61a11.93,11.93,0,0,0,3.33,6.47l3.26,3.25L29,69.23a5.82,5.82,0,0,1-.63-2.66v-1a1.49,1.49,0,0,1,2.54-1l8.86,8.86a11.91,11.91,0,0,1,3.49,8.43v7H31.37V86a7.46,7.46,0,0,0-2.18-5.26L23,74.45A11.85,11.85,0,0,1,19.46,66Z" fill="#f0c8a0"/>
      <path id="Trazado_101218" data-name="Trazado 101218" d="M49.24,79.89h6v6h-6Z" fill="#77cfd9"/>
      <path id="Trazado_101219" data-name="Trazado 101219" d="M74.79,32.24a14.88,14.88,0,0,1-27.28,0H43.28V56.06a17.87,17.87,0,1,0,35.74,0V32.24Z" fill="#89eaf5"/>
      <path id="Trazado_101220" data-name="Trazado 101220" d="M49.24,56.06V35.18a14.93,14.93,0,0,1-1.73-2.94H43.28V56.06A17.87,17.87,0,0,0,61.15,73.93a18.251,18.251,0,0,0,3-.26A17.86,17.86,0,0,1,49.24,56.06Z" fill="#77cfd9"/>
      <path id="Trazado_101221" data-name="Trazado 101221" d="M61.15,38.19A11.91,11.91,0,1,1,73.07,26.28,11.91,11.91,0,0,1,61.15,38.19Z" fill="#f2884b"/>
      <path id="Trazado_101222" data-name="Trazado 101222" d="M52.22,26.28A11.91,11.91,0,0,1,62.64,14.47a12.16,12.16,0,0,0-1.49-.1,11.91,11.91,0,0,0,0,23.82,12.16,12.16,0,0,0,1.49-.1A11.91,11.91,0,0,1,52.22,26.28Z" fill="#f26d3d"/>
      <path id="Trazado_101223" data-name="Trazado 101223" d="M54.89,24.87l4.33-.63,1.93-3.92,1.94,3.92,4.33.63-3.13,3.06L65,32.24l-3.87-2-3.87,2L58,27.93Z" fill="#f0f0f0"/>
    </g>
  </g>
</svg>
