<svg xmlns="http://www.w3.org/2000/svg" width="174" height="174" viewBox="0 0 174 174">
  <g id="Grupo_77015" data-name="Grupo 77015" transform="translate(-1020 -1925)">
    <g id="Capa_2" data-name="Capa 2" transform="translate(1020 1925)">
      <rect id="Rectángulo_5280" data-name="Rectángulo 5280" width="174" height="174" fill="none"/>
      <path id="Trazado_101453" data-name="Trazado 101453" d="M72.5,0h0A72.5,72.5,0,0,1,145,72.5V145H72.5A72.5,72.5,0,0,1,0,72.5H0A72.5,72.5,0,0,1,72.5,0Z" transform="translate(159.5 159.5) rotate(180)" fill="#f2884b"/>
      <path id="Trazado_101454" data-name="Trazado 101454" d="M129.214,92.869,116.28,87.693l-.189-.073c8.918-2.03,13.151-5.423,13.34-5.583a1.667,1.667,0,0,0,.595-1.45,211.406,211.406,0,0,1-1.871-26.1,22.4,22.4,0,1,0-44.79,0c0,3.379-.145,7.511-.406,11.426l-3.6,1.667L68.778,62.289h-.1a17.98,17.98,0,0,0,.957-4.611,5.409,5.409,0,0,0,1.943-9.28V37.363a9.178,9.178,0,0,0-4.046-7.569A7.25,7.25,0,0,0,60.513,24.4H45.419A14.877,14.877,0,0,0,30.571,39.248v9.106a5.408,5.408,0,0,0,1.958,9.28,18.633,18.633,0,0,0,7.5,13.543V75.73l-13.659,4.1a7.25,7.25,0,0,0-5.206,6.989v18.415a1.653,1.653,0,0,0,1.653,1.653h.232v19.1a1.653,1.653,0,0,0,3.306,0v-19.1h6.177v19.1a1.653,1.653,0,0,0,3.306,0V97.524a7.25,7.25,0,0,0-1.305-4.1l-2.813-4.234a1.647,1.647,0,1,0-2.74,1.827l2.813,4.234a4.06,4.06,0,0,1,.739,2.277v6.046H24.452V86.823a3.958,3.958,0,0,1,2.9-3.828l5.67-1.7A18.618,18.618,0,0,0,59.9,93.42a5.409,5.409,0,0,0,4.35,2.218h.232v.232a14.848,14.848,0,0,0,7.54,12.92v2.7a.217.217,0,0,1-.16.217l-6.119,2.016a7.25,7.25,0,0,0-5,6.931V126a1.653,1.653,0,0,0,3.306,0v-5.365a3.973,3.973,0,0,1,2.726-3.8l1.813-.609a12.963,12.963,0,0,0,21.547,0l1.813.609a3.987,3.987,0,0,1,2.74,3.8v5.351a1.653,1.653,0,1,0,3.291,0v-5.351a7.25,7.25,0,0,0-4.988-6.916l-6.162-2.059a.218.218,0,0,1-.16-.217v-2.712a14.95,14.95,0,0,0,6.989-8.9,16.733,16.733,0,0,0,28.028-6.409l6.293,2.523a3.973,3.973,0,0,1,2.523,3.712v7.729h-6.119v-2.131a1.653,1.653,0,0,0-3.306,0v20.735a1.653,1.653,0,0,0,3.306,0V110.661h4.234v15.327a1.653,1.653,0,0,0,3.306,0V110.661h.232a1.653,1.653,0,0,0,1.16-.479,1.6,1.6,0,0,0,.493-1.16V99.641a7.25,7.25,0,0,0-4.6-6.771ZM86.671,54.343a19.1,19.1,0,1,1,38.179,0,216.278,216.278,0,0,0,1.769,25.622,35.047,35.047,0,0,1-11.6,4.495V81.82a17.315,17.315,0,0,0,2.509-1.7,18.589,18.589,0,0,0,6.931-14.5c0-9.323-6.757-10.672-13.268-11.962-4.161-.826-8.453-1.682-11.876-4.35a1.624,1.624,0,0,0-1.74-.2,1.667,1.667,0,0,0-.928,1.45s0,4.35-6.293,5.931a1.653,1.653,0,0,0,.8,3.2c5.206-1.3,7.323-4.219,8.193-6.409a34.5,34.5,0,0,0,11.194,3.625c6.974,1.45,10.614,2.407,10.614,8.7a15.834,15.834,0,0,1-.377,3.408,15.327,15.327,0,0,1-23.853,9.048A18.531,18.531,0,0,0,92.4,71.1V63.767a1.653,1.653,0,0,0-2.393-1.45L86.454,64.1C86.57,60.636,86.671,57.373,86.671,54.343Zm2.407,12.093V72.41l-5.96-2.987Zm-19.314,0,5.974,2.987L69.764,72.41ZM60.745,84.5v1.566a5.423,5.423,0,0,0-1.885,4.089,15.2,15.2,0,0,1-7.772,2.117,15.37,15.37,0,0,1-14.95-11.9l4.075-1.218a11.078,11.078,0,0,0,20.691,2.9,19.227,19.227,0,0,0-.16,2.45Zm-17.4-7.54V73.12a18.546,18.546,0,0,0,15.559,0v3.828a7.787,7.787,0,0,1-15.559,0Zm7.786-5.423a15.341,15.341,0,0,1-15.37-15.312,1.653,1.653,0,0,0-1.653-1.653,2.132,2.132,0,0,1,0-4.249h3.77a1.639,1.639,0,0,0,1.566-1.117l1.45-4.553c3.785-.087,15.544-.624,22.171-3.93a1.653,1.653,0,1,0-1.45-2.9c-7.1,3.538-21.75,3.6-21.9,3.6a1.653,1.653,0,0,0-1.566,1.117L36.7,47.078H33.877v-7.83a11.6,11.6,0,0,1,11.6-11.6H60.513a3.958,3.958,0,0,1,3.915,3.422,1.7,1.7,0,0,0,.826,1.174,5.916,5.916,0,0,1,3.016,5.1V47.02h-2.1a1.653,1.653,0,1,0,0,3.292h1.885a2.131,2.131,0,0,1,0,4.248A1.653,1.653,0,0,0,66.4,56.213,15.341,15.341,0,0,1,51.088,71.54ZM62.21,76.963v-5.8a18.749,18.749,0,0,0,4.234-4.35v4.35a18.444,18.444,0,0,0-4.292,6.308c0-.2.014-.348.014-.508ZM86.845,115.17a9.643,9.643,0,0,1-14.95,0l1.044-.348a3.524,3.524,0,0,0,2.422-3.35v-1.32a14.8,14.8,0,0,0,8,0v1.319a3.523,3.523,0,0,0,2.421,3.35Zm5.713-22.9a1.653,1.653,0,0,0-1.653,1.653v1.885a11.6,11.6,0,1,1-23.084,0V93.928a1.653,1.653,0,0,0-1.653-1.653H64.283a2.117,2.117,0,0,1-2.117-2.117,2.059,2.059,0,0,1,1.059-1.812,1.711,1.711,0,0,0,.392-.334c4.075-.116,17.3-.885,26-5.8a1.665,1.665,0,0,0-1.639-2.9c-7.612,4.35-19.575,5.22-23.925,5.394v-.188a15.283,15.283,0,0,1,2.61-8.5,1.552,1.552,0,0,0,2.131.522L79.363,71.25l10.57,5.293a1.552,1.552,0,0,0,2.132-.522,15.3,15.3,0,0,1,2.624,8.54v2.407a1.667,1.667,0,0,0,.812,1.45,2.074,2.074,0,0,1,1.073,1.813,2.117,2.117,0,0,1-2.131,2.117Zm13.21,9.44a13.456,13.456,0,0,1-11.281-6.133,5.409,5.409,0,0,0,3.494-9.512V84.5a17.784,17.784,0,0,0-.1-1.972,18.56,18.56,0,0,0,13.775.768V85.72a5.379,5.379,0,0,0,3.408,5.031l3.552,1.45a13.427,13.427,0,0,1-12.847,9.512Z" transform="translate(9.522 10.98)" fill="#fff"/>
    </g>
  </g>
</svg>
