<svg xmlns="http://www.w3.org/2000/svg" width="600" height="600" viewBox="0 0 600 600">
  <g id="Grupo_77011" data-name="Grupo 77011" transform="translate(-500 -6468)">
    <g id="Grupo_77010" data-name="Grupo 77010">
      <g id="Capa_2" data-name="Capa 2" transform="translate(500 6468)">
        <rect id="Rectángulo_5203" data-name="Rectángulo 5203" width="600" height="600" fill="#fff"/>
        <g id="Grupo_53984" data-name="Grupo 53984">
          <path id="Trazado_100687" data-name="Trazado 100687" d="M247.45,135.46,74.31,437.84c-23.11,40.37,6,90.64,52.55,90.64H473.14c46.52,0,75.67-50.27,52.55-90.64L352.55,135.46C329.29,94.84,270.71,94.84,247.45,135.46Z" fill="#419ca6"/>
          <path id="Trazado_100688" data-name="Trazado 100688" d="M247.45,135.46l-1.69-1L72.61,436.87a62,62,0,0,0-8.35,31,63.21,63.21,0,0,0,17.61,43.54,61.7,61.7,0,0,0,45,19.06H473.14a61.7,61.7,0,0,0,45-19.06,63.19,63.19,0,0,0,17.61-43.54,62,62,0,0,0-8.35-31L354.25,134.49a62.1,62.1,0,0,0-23.71-23.59,63.26,63.26,0,0,0-61.08,0,62,62,0,0,0-23.7,23.59l1.69,1,1.7,1a58.11,58.11,0,0,1,22.22-22.11,59.36,59.36,0,0,1,57.26,0,58.11,58.11,0,0,1,22.22,22.11L524,438.81a58.12,58.12,0,0,1,7.84,29,59.29,59.29,0,0,1-16.53,40.83,57.76,57.76,0,0,1-42.16,17.86H126.86A57.76,57.76,0,0,1,84.7,508.67a59.29,59.29,0,0,1-16.53-40.83,58.12,58.12,0,0,1,7.84-29L249.15,136.43Z" fill="#fff"/>
          <path id="Trazado_100689" data-name="Trazado 100689" d="M231.67,354h2a27.51,27.51,0,1,1-.05,0h-3.91A70.29,70.29,0,1,0,300,283.7,70.288,70.288,0,0,0,229.71,354Z" fill="#fff"/>
          <path id="Trazado_100690" data-name="Trazado 100690" d="M525.69,437.84,352.55,135.46c-23.26-40.62-81.84-40.62-105.1,0L175.58,261a112,112,0,0,0-8,14.09c-.59,1.23-1.15,2.48-1.69,3.73l-.42,1c-.57,1.37-1.12,2.77-1.64,4.17l-.42,1.14c-.51,1.41-1,2.82-1.44,4.25-.12.37-.23.73-.34,1.1-.45,1.48-.88,3-1.27,4.48-.07.26-.13.52-.19.77-.38,1.5-.73,3-1,4.52l-.12.52c-.32,1.61-.61,3.24-.87,4.87a5.2,5.2,0,0,1-.14.88c-.24,1.6-.44,3.22-.61,4.84l-.09.93c-.17,1.65-.29,3.31-.38,5v.69c-.09,1.77-.14,3.55-.14,5.34s0,3.59.14,5.37v.62c.09,1.66.22,3.31.38,4.95a8.68,8.68,0,0,0,.1,1c.16,1.56.36,3.1.59,4.64.06.41.12.81.19,1.22.23,1.47.49,2.93.78,4.39.09.46.19.92.29,1.38q.41,1.89.87,3.75c.16.63.32,1.26.49,1.89.28,1,.56,2,.86,3,.24.81.49,1.61.75,2.42s.62,1.85.94,2.77c.25.69.49,1.38.75,2.07.4,1.07.82,2.12,1.25,3.17.3.74.61,1.47.93,2.2q.66,1.51,1.35,3h0a112.5,112.5,0,0,0,183.4,29.57c16.64-17.52-25.83-77.43-25.38-115.92,7,10.22,42.88,15.63,60.85,40.62,17.19,23.9,16.7,67.34,16.7,80.21,0,67.87-53.81,122.89-120.19,122.89H473.14C519.66,528.48,548.81,478.21,525.69,437.84Z" fill="#12263f"/>
          <path id="Trazado_100691" data-name="Trazado 100691" d="M525.69,437.84l1.7-1L354.25,134.49a62.1,62.1,0,0,0-23.71-23.59,63.26,63.26,0,0,0-61.08,0,62,62,0,0,0-23.7,23.59L173.89,260l1.69,1L174,259.89a114.092,114.092,0,0,0-8.13,14.34c-.6,1.26-1.17,2.52-1.72,3.8l-.42,1c-.59,1.41-1.14,2.82-1.67,4.24-.14.38-.29.77-.43,1.17q-.78,2.14-1.47,4.32c-.12.38-.23.76-.34,1.12-.46,1.5-.9,3-1.3,4.56-.07.29-.13.55-.19.78-.38,1.52-.74,3.05-1.06,4.6a2.927,2.927,0,0,1-.12.53c-.33,1.65-.62,3.3-.88,5a6.052,6.052,0,0,1-.14.89c-.25,1.63-.45,3.28-.63,4.93l-.09.94q-.26,2.52-.39,5.07h0v.71c-.08,1.79-.14,3.6-.14,5.43s.06,3.66.14,5.46v.63c.09,1.7.22,3.38.38,5a8.68,8.68,0,0,0,.1,1c.17,1.59.37,3.16.6,4.73.06.41.13.83.19,1.23.24,1.5.5,3,.8,4.47.1.49.2,1,.3,1.4h0c.27,1.28.56,2.56.88,3.83.16.65.33,1.29.5,1.92.28,1,.57,2.06.88,3.08.24.82.5,1.64.76,2.46s.63,1.89,1,2.82c.24.69.49,1.4.76,2.11.4,1.09.83,2.16,1.27,3.23.31.75.62,1.49.95,2.24.44,1,.9,2,1.37,3l3.73,7.92V371.1h-2l-1.77.83A114.46,114.46,0,0,0,352.27,402a15.13,15.13,0,0,0,3.4-5.89,23.869,23.869,0,0,0,1-7.22c0-6.55-1.9-14.23-4.67-22.68-4.16-12.65-10.33-27-15.44-41.15s-9.15-28.11-9.14-39.73v-.56h-1.95l-1.62,1.11a17.23,17.23,0,0,0,4.4,4.15,82,82,0,0,0,12,6.34c7,3.23,15.33,6.8,23.28,11.56s15.55,10.7,21.23,18.6c7.83,10.85,12,26.25,14.09,40.83a249.292,249.292,0,0,1,2.24,35.85v2.39a121.93,121.93,0,0,1-34.65,85.53,116.58,116.58,0,0,1-83.58,35.41v3.91H473.14a61.7,61.7,0,0,0,45-19.06,63.19,63.19,0,0,0,17.61-43.54,62,62,0,0,0-8.35-31l-1.7,1-1.7,1a58.119,58.119,0,0,1,7.84,29,59.29,59.29,0,0,1-16.53,40.83,57.76,57.76,0,0,1-42.16,17.86H282.83v3.91a120.46,120.46,0,0,0,86.38-36.58A125.87,125.87,0,0,0,405,405.59V403.2a254.8,254.8,0,0,0-2.27-36.42c-2.18-14.89-6.36-30.8-14.79-42.54-9.32-12.95-23.1-20.67-35.27-26.48-6.09-2.9-11.8-5.31-16.34-7.61a49,49,0,0,1-5.82-3.34,13.4,13.4,0,0,1-3.4-3.16l-3.44-5-.13,6v.65c0,8.34,1.88,17.44,4.65,26.83,4.16,14.08,10.35,28.81,15.48,42.29,2.56,6.74,4.86,13.17,6.5,19a59.189,59.189,0,0,1,2.63,15.43,20,20,0,0,1-.82,6,11.05,11.05,0,0,1-2.51,4.37,110.53,110.53,0,0,1-180.21-29.06l-3.72-7.91V371h1.95l1.77-.84c-.45-1-.89-1.95-1.33-2.94-.31-.71-.61-1.43-.91-2.16-.43-1-.84-2.07-1.23-3.12-.25-.66-.49-1.34-.73-2q-.48-1.35-.93-2.73c-.25-.78-.49-1.58-.73-2.37-.3-1-.58-2-.85-3-.17-.62-.33-1.24-.48-1.85-.31-1.22-.59-2.45-.85-3.69h0c-.1-.48-.21-.93-.29-1.36-.29-1.42-.54-2.86-.77-4.31-.07-.41-.13-.8-.19-1.2-.22-1.51-.42-3-.58-4.56,0-.31-.06-.63-.09-1-.16-1.61-.29-3.23-.37-4.86v-.61c-.08-1.76-.13-3.52-.13-5.28s.05-3.5.13-5.25v-.68h0c.09-1.64.21-3.27.37-4.9l.09-.91c.17-1.6.37-3.19.61-4.76a5.685,5.685,0,0,1,.14-.86c.25-1.61.53-3.21.85-4.79a4.024,4.024,0,0,1,.11-.51c.31-1.49.66-3,1-4.44.07-.28.13-.54.18-.76.39-1.47.81-2.94,1.25-4.4q.18-.56.33-1.08c.45-1.4.92-2.79,1.42-4.17.13-.37.27-.74.41-1.13.52-1.38,1.06-2.75,1.62-4.1l.41-.93c.53-1.24,1.08-2.46,1.65-3.67a111.463,111.463,0,0,1,7.85-13.85v-.05l71.9-125.58a58.11,58.11,0,0,1,22.22-22.11,59.36,59.36,0,0,1,57.26,0,58.11,58.11,0,0,1,22.22,22.11L524,438.81Z" fill="#fff"/>
          <path id="Trazado_100692" data-name="Trazado 100692" d="M399,437.05c-13.59,52.63-60.46,91.43-116.2,91.43H473.14c46.52,0,75.67-50.27,52.55-90.64L446.35,299.27l-10.06-16.41a111.67,111.67,0,0,0-95.14-53.11C298,229.75,259.29,253.44,242,290c-8.64,18.25-9.17,44.27,5.16,44.27s63.75-49,76.5-44.27C370,307.07,403,352.38,403,405.59a125.393,125.393,0,0,1-4,31.46" fill="#f2884b"/>
          <path id="Trazado_100693" data-name="Trazado 100693" d="M397.14,436.57A121.24,121.24,0,0,1,355.51,501a116,116,0,0,1-72.68,25.56v3.91H473.14a61.7,61.7,0,0,0,45-19.06,63.19,63.19,0,0,0,17.61-43.54,62,62,0,0,0-8.35-31L448,298.26l-10-16.43h0a113.61,113.61,0,0,0-96.8-54c-43.83,0-83.27,24.08-100.9,61.34a66.35,66.35,0,0,0-6.31,27.05c0,5.3.85,10.1,2.93,13.8A12.43,12.43,0,0,0,241,334.5a11.32,11.32,0,0,0,6.14,1.7,18.29,18.29,0,0,0,7.34-2.1c4.74-2.24,10.46-6,16.69-10.45,9.32-6.64,19.72-14.73,29-21.14a126.17,126.17,0,0,1,12.72-7.92,37.62,37.62,0,0,1,5.07-2.24,12,12,0,0,1,3.7-.74,3.8,3.8,0,0,1,1.3.19c45.5,16.82,78.06,61.4,78.06,113.79a123.941,123.941,0,0,1-3.92,31l3.79,1a127.842,127.842,0,0,0,4-32c0-54-33.58-100.08-80.61-117.46a7.74,7.74,0,0,0-2.66-.44,20.3,20.3,0,0,0-7.82,2.09c-5,2.24-10.91,6-17.25,10.45-9.49,6.64-19.89,14.75-29,21.16a136.759,136.759,0,0,1-12.35,7.93,36.58,36.58,0,0,1-4.79,2.23,10,10,0,0,1-3.31.73,7.31,7.31,0,0,1-4.05-1.09,10.15,10.15,0,0,1-3.9-5.48,29.42,29.42,0,0,1-1.38-9.53,62.66,62.66,0,0,1,5.93-25.38c16.92-35.79,55-59.1,97.37-59.1a109.7,109.7,0,0,1,93.47,52.19h0l10.05,16.41L524,438.81a58.12,58.12,0,0,1,7.84,29,59.29,59.29,0,0,1-16.53,40.83,57.76,57.76,0,0,1-42.16,17.86H282.83v3.91A120,120,0,0,0,358,504a125.22,125.22,0,0,0,43-66.49l-3.79-1Z" fill="#fff"/>
          <circle id="Elipse_4061" data-name="Elipse 4061" cx="68.33" cy="68.33" r="68.33" transform="translate(210.721 390.971) rotate(-67.5)" fill="#fff"/>
          <path id="Trazado_100694" data-name="Trazado 100694" d="M231.67,354h2a27.51,27.51,0,1,1-.05,0h-3.91A70.29,70.29,0,1,0,300,283.7,70.288,70.288,0,0,0,229.71,354Z" fill="#fff"/>
          <g id="Grupo_53976" data-name="Grupo 53976">
            <path id="Trazado_100695" data-name="Trazado 100695" d="M236.6,35.77h-5.37v14.9H229V35.77h-5.36V34H236.6Z" fill="#12263f"/>
            <path id="Trazado_100696" data-name="Trazado 100696" d="M243.89,40.17a5.7,5.7,0,0,0-1-.08A2.79,2.79,0,0,0,240,41.86v8.81h-2.13V38.26H240V39.7a3.32,3.32,0,0,1,3-1.7,2.27,2.27,0,0,1,.94.16Z" fill="#12263f"/>
            <path id="Trazado_100697" data-name="Trazado 100697" d="M245.85,35a1.28,1.28,0,0,1,.32-.87,1.39,1.39,0,0,1,1.87,0,1.23,1.23,0,0,1,.32.87,1.18,1.18,0,0,1-.32.86,1.42,1.42,0,0,1-1.87,0,1.22,1.22,0,0,1-.32-.86Zm2.3,15.7H246V38.26h2.12Z" fill="#12263f"/>
            <path id="Trazado_100698" data-name="Trazado 100698" d="M259.2,50.67a4.6,4.6,0,0,1-.3-1.31,4.7,4.7,0,0,1-3.53,1.54,4.39,4.39,0,0,1-3-1,3.36,3.36,0,0,1-1.17-2.63,3.52,3.52,0,0,1,1.47-3,7,7,0,0,1,4.15-1.07h2.06v-1a2.36,2.36,0,0,0-.67-1.77,2.65,2.65,0,0,0-2-.66,3,3,0,0,0-1.9.58,1.69,1.69,0,0,0-.77,1.38h-2.13a2.92,2.92,0,0,1,.66-1.79,4.38,4.38,0,0,1,1.79-1.37,6,6,0,0,1,2.48-.51,4.88,4.88,0,0,1,3.36,1.08,3.86,3.86,0,0,1,1.26,3v5.71a7,7,0,0,0,.44,2.72v.18Zm-3.52-1.62a3.72,3.72,0,0,0,1.89-.51,3.16,3.16,0,0,0,1.3-1.34V44.65h-1.66q-3.9,0-3.9,2.28a1.93,1.93,0,0,0,.66,1.56,2.55,2.55,0,0,0,1.71.56Zm2-16h2.57l-3.07,3.37h-1.71Z" fill="#12263f"/>
            <path id="Trazado_100699" data-name="Trazado 100699" d="M266.32,38.26l.07,1.56A4.54,4.54,0,0,1,270.11,38q3.93,0,4,4.44v8.2H272V42.46a2.81,2.81,0,0,0-.61-2,2.45,2.45,0,0,0-1.87-.65,3.13,3.13,0,0,0-1.82.55,3.73,3.73,0,0,0-1.21,1.45v8.84h-2.12V38.26Z" fill="#12263f"/>
            <path id="Trazado_100700" data-name="Trazado 100700" d="M276.77,44.36a7.3,7.3,0,0,1,1.34-4.61,4.62,4.62,0,0,1,7.1-.11l.1-1.38h1.94V50.37a5.06,5.06,0,0,1-1.42,3.8A5.32,5.32,0,0,1,282,55.56a6.28,6.28,0,0,1-2.63-.58,4.5,4.5,0,0,1-2-1.57l1.1-1.27a4.15,4.15,0,0,0,3.34,1.68,3.24,3.24,0,0,0,2.41-.87,3.32,3.32,0,0,0,.87-2.45V49.43a4.37,4.37,0,0,1-3.48,1.47,4.23,4.23,0,0,1-3.52-1.75,7.68,7.68,0,0,1-1.32-4.79Zm2.13.24a5.6,5.6,0,0,0,.86,3.3,2.81,2.81,0,0,0,2.41,1.2,3.12,3.12,0,0,0,2.95-1.82V41.61a3.16,3.16,0,0,0-2.92-1.78A2.82,2.82,0,0,0,279.78,41,6,6,0,0,0,278.9,44.6Z" fill="#12263f"/>
            <path id="Trazado_100701" data-name="Trazado 100701" d="M298.11,49.44a4.46,4.46,0,0,1-3.63,1.46,3.83,3.83,0,0,1-3-1.15,4.92,4.92,0,0,1-1-3.41V38.26h2.12v8c0,1.88.76,2.82,2.29,2.82a3.19,3.19,0,0,0,3.24-1.81v-9h2.12v12.4h-2Z" fill="#12263f"/>
            <path id="Trazado_100702" data-name="Trazado 100702" d="M305.7,50.67h-2.12V33.06h2.12Z" fill="#12263f"/>
            <path id="Trazado_100703" data-name="Trazado 100703" d="M308.54,44.35a7.45,7.45,0,0,1,.71-3.28,5.41,5.41,0,0,1,2-2.25,5.48,5.48,0,0,1,2.92-.79,5.25,5.25,0,0,1,4.1,1.76,6.76,6.76,0,0,1,1.56,4.67v.14a7.46,7.46,0,0,1-.69,3.26,5.22,5.22,0,0,1-2,2.24,5.49,5.49,0,0,1-3,.8,5.23,5.23,0,0,1-4.09-1.75,6.74,6.74,0,0,1-1.56-4.65Zm2.13.25a5.3,5.3,0,0,0,1,3.32,3.24,3.24,0,0,0,5.13,0,5.83,5.83,0,0,0,.95-3.55,5.29,5.29,0,0,0-1-3.31,3.23,3.23,0,0,0-5.11,0A5.75,5.75,0,0,0,310.67,44.6Z" fill="#12263f"/>
            <path id="Trazado_100704" data-name="Trazado 100704" d="M327.79,44.36a7.28,7.28,0,0,1,1.35-4.59,4.61,4.61,0,0,1,7-.25V33.06h2.12V50.67h-1.95l-.1-1.33a4.32,4.32,0,0,1-3.54,1.56,4.25,4.25,0,0,1-3.52-1.77,7.3,7.3,0,0,1-1.36-4.61Zm2.12.24a5.54,5.54,0,0,0,.87,3.31,2.85,2.85,0,0,0,2.41,1.19,3.09,3.09,0,0,0,2.95-1.81v-5.7a3.12,3.12,0,0,0-2.92-1.76A2.87,2.87,0,0,0,330.78,41,6.05,6.05,0,0,0,329.91,44.6Z" fill="#12263f"/>
            <path id="Trazado_100705" data-name="Trazado 100705" d="M346.7,50.9a5.39,5.39,0,0,1-4.1-1.66,6.12,6.12,0,0,1-1.6-4.43v-.39a7.47,7.47,0,0,1,.71-3.3,5.59,5.59,0,0,1,2-2.27,5,5,0,0,1,2.75-.82,4.65,4.65,0,0,1,3.76,1.6,6.91,6.91,0,0,1,1.34,4.56v.88h-8.4a4.37,4.37,0,0,0,1.07,3,3.37,3.37,0,0,0,2.61,1.13,3.64,3.64,0,0,0,1.9-.46,4.8,4.8,0,0,0,1.37-1.22l1.29,1a5.21,5.21,0,0,1-4.7,2.38Zm-.26-11.12a2.84,2.84,0,0,0-2.16.93,4.57,4.57,0,0,0-1.08,2.62h6.22v-.16a4,4,0,0,0-.87-2.5,2.64,2.64,0,0,0-2.11-.89Z" fill="#12263f"/>
            <path id="Trazado_100706" data-name="Trazado 100706" d="M362.11,50.67H360V33.06h2.12Z" fill="#12263f"/>
            <path id="Trazado_100707" data-name="Trazado 100707" d="M373.17,50.67a4.6,4.6,0,0,1-.3-1.31,4.7,4.7,0,0,1-3.53,1.54,4.39,4.39,0,0,1-3-1,3.37,3.37,0,0,1-1.18-2.63,3.5,3.5,0,0,1,1.48-3,7,7,0,0,1,4.14-1.07h2.07v-1a2.36,2.36,0,0,0-.67-1.77,2.65,2.65,0,0,0-2-.66,3,3,0,0,0-1.9.58,1.69,1.69,0,0,0-.77,1.38h-2.13a3,3,0,0,1,.65-1.79,4.45,4.45,0,0,1,1.79-1.37,6,6,0,0,1,2.49-.51,4.88,4.88,0,0,1,3.36,1.08,3.86,3.86,0,0,1,1.26,3v5.71a7,7,0,0,0,.43,2.72v.18Zm-3.52-1.62a3.75,3.75,0,0,0,1.89-.51,3.16,3.16,0,0,0,1.3-1.34V44.65h-1.67q-3.89,0-3.89,2.28a1.93,1.93,0,0,0,.66,1.56A2.52,2.52,0,0,0,369.65,49.05Z" fill="#12263f"/>
          </g>
          <g id="Grupo_53977" data-name="Grupo 53977">
            <path id="Trazado_100708" data-name="Trazado 100708" d="M224.38,68.35a6.79,6.79,0,0,0-1-.08,2.79,2.79,0,0,0-2.83,1.78v8.8h-2.12V66.45h2.06v1.43a3.29,3.29,0,0,1,3-1.66,2.15,2.15,0,0,1,.94.16Z" fill="#12263f"/>
            <path id="Trazado_100709" data-name="Trazado 100709" d="M231.26,79.08a5.42,5.42,0,0,1-4.1-1.65A6.16,6.16,0,0,1,225.58,73v-.4a7.4,7.4,0,0,1,.7-3.29,5.47,5.47,0,0,1,2-2.27,5,5,0,0,1,2.75-.82,4.65,4.65,0,0,1,3.76,1.59,6.88,6.88,0,0,1,1.34,4.57v.88h-8.4a4.37,4.37,0,0,0,1.07,3,3.34,3.34,0,0,0,2.61,1.13,3.64,3.64,0,0,0,1.9-.46,4.76,4.76,0,0,0,1.37-1.21l1.29,1a5.2,5.2,0,0,1-4.71,2.36ZM231,68a2.83,2.83,0,0,0-2.16.94,4.47,4.47,0,0,0-1.07,2.62H234v-.17a4,4,0,0,0-.87-2.5A2.67,2.67,0,0,0,231,68Z" fill="#12263f"/>
            <path id="Trazado_100710" data-name="Trazado 100710" d="M245.78,75.56a1.53,1.53,0,0,0-.65-1.33,6.15,6.15,0,0,0-2.26-.82,10.72,10.72,0,0,1-2.55-.83,3.64,3.64,0,0,1-1.4-1.14,2.8,2.8,0,0,1-.45-1.59,3.24,3.24,0,0,1,1.29-2.58,5,5,0,0,1,3.29-1,5.19,5.19,0,0,1,3.43,1.09,3.45,3.45,0,0,1,1.31,2.78h-2.13a1.92,1.92,0,0,0-.74-1.5,2.8,2.8,0,0,0-1.87-.63,3,3,0,0,0-1.81.5,1.61,1.61,0,0,0-.65,1.32,1.29,1.29,0,0,0,.6,1.16,7.62,7.62,0,0,0,2.2.75,11.11,11.11,0,0,1,2.58.85,3.76,3.76,0,0,1,1.46,1.18,3,3,0,0,1,.47,1.69,3.17,3.17,0,0,1-1.33,2.67,5.54,5.54,0,0,1-3.45,1,6.32,6.32,0,0,1-2.64-.52,4.3,4.3,0,0,1-1.79-1.48,3.55,3.55,0,0,1-.65-2h2.12a2.22,2.22,0,0,0,.86,1.69,3.34,3.34,0,0,0,2.1.62,3.45,3.45,0,0,0,1.93-.48,1.5,1.5,0,0,0,.73-1.4Z" fill="#12263f"/>
            <path id="Trazado_100711" data-name="Trazado 100711" d="M261.15,72.79a7.37,7.37,0,0,1-1.3,4.56,4.13,4.13,0,0,1-3.51,1.73,4.53,4.53,0,0,1-3.55-1.43v6h-2.12V66.45h1.94l.1,1.37a4.36,4.36,0,0,1,3.6-1.6,4.24,4.24,0,0,1,3.54,1.68,7.58,7.58,0,0,1,1.3,4.69ZM259,72.55a5.47,5.47,0,0,0-.9-3.32A2.86,2.86,0,0,0,255.68,68a3.11,3.11,0,0,0-2.89,1.71v5.93a3.11,3.11,0,0,0,2.91,1.69,2.86,2.86,0,0,0,2.43-1.21,6,6,0,0,0,.87-3.57Z" fill="#12263f"/>
            <path id="Trazado_100712" data-name="Trazado 100712" d="M263.28,72.54a7.29,7.29,0,0,1,.72-3.28A5.583,5.583,0,0,1,273,68a6.73,6.73,0,0,1,1.57,4.67v.15a7.28,7.28,0,0,1-.7,3.25,5.21,5.21,0,0,1-2,2.24,5.45,5.45,0,0,1-3,.8,5.2,5.2,0,0,1-4.09-1.75,6.69,6.69,0,0,1-1.57-4.64Zm2.14.25a5.29,5.29,0,0,0,.95,3.31,3.25,3.25,0,0,0,5.13,0,5.78,5.78,0,0,0,1-3.55,5.33,5.33,0,0,0-1-3.31A3.09,3.09,0,0,0,268.91,68a3.05,3.05,0,0,0-2.53,1.25,5.78,5.78,0,0,0-.96,3.54Z" fill="#12263f"/>
            <path id="Trazado_100713" data-name="Trazado 100713" d="M279.25,66.45l.06,1.56A4.51,4.51,0,0,1,283,66.22q3.93,0,4,4.44v8.19h-2.12V70.64a2.88,2.88,0,0,0-.62-2,2.43,2.43,0,0,0-1.87-.64,3,3,0,0,0-1.81.55A3.8,3.8,0,0,0,279.36,70v8.84h-2.12V66.45Z" fill="#12263f"/>
            <path id="Trazado_100714" data-name="Trazado 100714" d="M297.42,75.56a1.53,1.53,0,0,0-.65-1.33,6.15,6.15,0,0,0-2.26-.82,10.72,10.72,0,0,1-2.55-.83,3.64,3.64,0,0,1-1.4-1.14,2.8,2.8,0,0,1-.45-1.59,3.26,3.26,0,0,1,1.28-2.58,5.08,5.08,0,0,1,3.3-1,5.19,5.19,0,0,1,3.43,1.09,3.45,3.45,0,0,1,1.31,2.78H297.3a1.92,1.92,0,0,0-.74-1.5,2.8,2.8,0,0,0-1.87-.63,3,3,0,0,0-1.81.5,1.58,1.58,0,0,0-.65,1.32,1.29,1.29,0,0,0,.6,1.16,7.62,7.62,0,0,0,2.2.75,11.11,11.11,0,0,1,2.58.85,3.76,3.76,0,0,1,1.46,1.18,3,3,0,0,1,.47,1.69,3.17,3.17,0,0,1-1.33,2.67,5.54,5.54,0,0,1-3.45,1,6.32,6.32,0,0,1-2.64-.52,4.3,4.3,0,0,1-1.79-1.48,3.55,3.55,0,0,1-.65-2h2.12a2.22,2.22,0,0,0,.86,1.69,3.34,3.34,0,0,0,2.1.62,3.45,3.45,0,0,0,1.93-.48A1.5,1.5,0,0,0,297.42,75.56Z" fill="#12263f"/>
            <path id="Trazado_100715" data-name="Trazado 100715" d="M310,78.85a4.6,4.6,0,0,1-.3-1.3,4.74,4.74,0,0,1-3.53,1.53,4.37,4.37,0,0,1-3-1A3.36,3.36,0,0,1,302,75.41a3.5,3.5,0,0,1,1.48-3,7,7,0,0,1,4.14-1.07h2.07v-1a2.38,2.38,0,0,0-.67-1.77,2.67,2.67,0,0,0-2-.66,3.08,3.08,0,0,0-1.9.57,1.66,1.66,0,0,0-.77,1.39H302.2a2.94,2.94,0,0,1,.66-1.8,4.63,4.63,0,0,1,1.79-1.37,6.12,6.12,0,0,1,2.49-.5,4.91,4.91,0,0,1,3.36,1.07,3.86,3.86,0,0,1,1.26,2.95V76a7,7,0,0,0,.43,2.72v.18Zm-3.52-1.61a3.69,3.69,0,0,0,1.89-.52,3.1,3.1,0,0,0,1.3-1.34V72.83H308q-3.9,0-3.9,2.29a2,2,0,0,0,.67,1.56,2.57,2.57,0,0,0,1.68.56Z" fill="#12263f"/>
            <path id="Trazado_100716" data-name="Trazado 100716" d="M325.59,72.79a7.4,7.4,0,0,1-1.31,4.57,4.17,4.17,0,0,1-3.51,1.72,4.3,4.3,0,0,1-3.63-1.66L317,78.85h-1.95V61.24h2.12v6.57a4.32,4.32,0,0,1,3.55-1.59,4.21,4.21,0,0,1,3.55,1.71,7.57,7.57,0,0,1,1.29,4.67Zm-2.12-.24a5.72,5.72,0,0,0-.84-3.35,2.77,2.77,0,0,0-2.41-1.2,3.13,3.13,0,0,0-3,2v5.36a3.21,3.21,0,0,0,3,2,2.76,2.76,0,0,0,2.38-1.18A6.11,6.11,0,0,0,323.47,72.55Z" fill="#12263f"/>
            <path id="Trazado_100717" data-name="Trazado 100717" d="M328.27,63.16a1.29,1.29,0,0,1,.32-.88,1.2,1.2,0,0,1,.93-.35,1.22,1.22,0,0,1,.94.35,1.24,1.24,0,0,1,.32.88,1.19,1.19,0,0,1-.32.86,1.26,1.26,0,0,1-.94.34,1.14,1.14,0,0,1-1.25-1.2Zm2.29,15.69h-2.12V66.45h2.12Z" fill="#12263f"/>
            <path id="Trazado_100718" data-name="Trazado 100718" d="M336.26,78.85h-2.12V61.24h2.12Z" fill="#12263f"/>
            <path id="Trazado_100719" data-name="Trazado 100719" d="M339.67,63.16a1.28,1.28,0,0,1,.31-.88,1.44,1.44,0,0,1,1.88,0,1.29,1.29,0,0,1,.32.88,1.24,1.24,0,0,1-.32.86A1.47,1.47,0,0,1,340,64,1.23,1.23,0,0,1,339.67,63.16ZM342,78.85h-2.12V66.45H342Z" fill="#12263f"/>
            <path id="Trazado_100720" data-name="Trazado 100720" d="M344.84,72.55a7.29,7.29,0,0,1,1.35-4.6,4.62,4.62,0,0,1,7-.24V61.24h2.12V78.85h-1.95l-.1-1.33a4.32,4.32,0,0,1-3.54,1.56,4.24,4.24,0,0,1-3.52-1.76,7.34,7.34,0,0,1-1.36-4.61Zm2.12.24a5.48,5.48,0,0,0,.87,3.3,2.82,2.82,0,0,0,2.41,1.19,3.09,3.09,0,0,0,2.95-1.81v-5.7A3.11,3.11,0,0,0,350.27,68a2.86,2.86,0,0,0-2.44,1.2,6.06,6.06,0,0,0-.83,3.59Z" fill="#12263f"/>
            <path id="Trazado_100721" data-name="Trazado 100721" d="M366.26,78.85a4.34,4.34,0,0,1-.29-1.3,4.76,4.76,0,0,1-3.54,1.53,4.4,4.4,0,0,1-3-1,3.38,3.38,0,0,1-1.17-2.64,3.52,3.52,0,0,1,1.47-3,7,7,0,0,1,4.15-1.07h2.06v-1a2.38,2.38,0,0,0-.66-1.77,2.7,2.7,0,0,0-2-.66,3.1,3.1,0,0,0-1.9.57,1.69,1.69,0,0,0-.77,1.39H358.5a2.94,2.94,0,0,1,.66-1.8A4.56,4.56,0,0,1,361,66.72a6.1,6.1,0,0,1,2.48-.5,4.88,4.88,0,0,1,3.36,1.07,3.86,3.86,0,0,1,1.26,2.95V76a7,7,0,0,0,.44,2.72v.18Zm-3.52-1.61a3.7,3.7,0,0,0,1.9-.52,3.13,3.13,0,0,0,1.29-1.34V72.83h-1.66q-3.9,0-3.9,2.29a2,2,0,0,0,.66,1.56A2.61,2.61,0,0,0,362.74,77.24Z" fill="#12263f"/>
            <path id="Trazado_100722" data-name="Trazado 100722" d="M370.86,72.55a7.24,7.24,0,0,1,1.36-4.6,4.61,4.61,0,0,1,7-.24V61.24h2.12V78.85h-1.95l-.1-1.33a4.32,4.32,0,0,1-3.54,1.56,4.24,4.24,0,0,1-3.52-1.76,7.34,7.34,0,0,1-1.36-4.61Zm2.12.24a5.42,5.42,0,0,0,.88,3.3,2.79,2.79,0,0,0,2.4,1.19,3.09,3.09,0,0,0,2.95-1.81v-5.7A3.11,3.11,0,0,0,376.29,68a2.83,2.83,0,0,0-2.43,1.2,6,6,0,0,0-.86,3.59Z" fill="#12263f"/>
          </g>
          <g id="Grupo_53978" data-name="Grupo 53978">
            <path id="Trazado_100723" data-name="Trazado 100723" d="M276.57,562.34h-7L268,566.71h-2.27L272.11,550H274l6.39,16.69h-2.26Zm-6.33-1.8h5.68l-2.84-7.81Z" fill="#12263f"/>
            <path id="Trazado_100724" data-name="Trazado 100724" d="M287.32,565.21a3,3,0,0,0,2-.69,2.4,2.4,0,0,0,.94-1.72h2a3.86,3.86,0,0,1-.73,2,4.86,4.86,0,0,1-1.81,1.54,5.229,5.229,0,0,1-2.39.57,5.1,5.1,0,0,1-4-1.69,6.73,6.73,0,0,1-1.5-4.63v-.35a7.36,7.36,0,0,1,.67-3.22,5,5,0,0,1,1.91-2.19,5.4,5.4,0,0,1,2.94-.78,5,5,0,0,1,3.47,1.25,4.45,4.45,0,0,1,1.47,3.24h-2a2.92,2.92,0,0,0-.91-2,2.86,2.86,0,0,0-2-.77A3,3,0,0,0,284.8,557a5.5,5.5,0,0,0-.89,3.37v.4a5.33,5.33,0,0,0,.89,3.3,3,3,0,0,0,2.52,1.14Z" fill="#12263f"/>
            <path id="Trazado_100725" data-name="Trazado 100725" d="M297.51,551.3v3h2.32V556h-2.32v7.7a1.76,1.76,0,0,0,.31,1.12,1.31,1.31,0,0,0,1.06.37,5.212,5.212,0,0,0,1-.13v1.71a6.261,6.261,0,0,1-1.63.22,2.64,2.64,0,0,1-2.15-.86,3.68,3.68,0,0,1-.72-2.44V556h-2.26v-1.64h2.26v-3Z" fill="#12263f"/>
            <path id="Trazado_100726" data-name="Trazado 100726" d="M310,565.49a4.52,4.52,0,0,1-3.64,1.45,3.85,3.85,0,0,1-3-1.15,5,5,0,0,1-1.05-3.41v-8.07h2.12v8c0,1.88.77,2.82,2.3,2.82a3.16,3.16,0,0,0,3.23-1.81v-9H312v12.4h-2Z" fill="#12263f"/>
            <path id="Trazado_100727" data-name="Trazado 100727" d="M322.92,566.71a4,4,0,0,1-.3-1.3,4.76,4.76,0,0,1-3.54,1.53,4.36,4.36,0,0,1-3-1,3.36,3.36,0,0,1-1.18-2.64,3.52,3.52,0,0,1,1.47-3,7,7,0,0,1,4.15-1.07h2.06v-1a2.4,2.4,0,0,0-.66-1.78,2.68,2.68,0,0,0-2-.65,3.11,3.11,0,0,0-1.91.57,1.69,1.69,0,0,0-.77,1.39h-2.13a2.94,2.94,0,0,1,.66-1.8,4.54,4.54,0,0,1,1.79-1.37,5.938,5.938,0,0,1,2.48-.5,4.88,4.88,0,0,1,3.36,1.07,3.86,3.86,0,0,1,1.26,3v5.71a7,7,0,0,0,.44,2.72v.18Zm-3.53-1.61a3.7,3.7,0,0,0,1.9-.52,3.13,3.13,0,0,0,1.29-1.34v-2.55h-1.66q-3.9,0-3.9,2.29a1.93,1.93,0,0,0,.67,1.56,2.56,2.56,0,0,0,1.7.56Z" fill="#12263f"/>
            <path id="Trazado_100728" data-name="Trazado 100728" d="M334,556.21a6.79,6.79,0,0,0-1-.08,2.79,2.79,0,0,0-2.83,1.78v8.8H328v-12.4h2.06v1.43a3.29,3.29,0,0,1,3-1.66,2.149,2.149,0,0,1,.94.16Z" fill="#12263f"/>
          </g>
          <g id="Grupo_53979" data-name="Grupo 53979">
            <path id="Trazado_100729" data-name="Trazado 100729" d="M264.09,206.88v6.54h-2.2v-16.7h6.16a6.19,6.19,0,0,1,4.29,1.4,4.74,4.74,0,0,1,1.56,3.71,4.69,4.69,0,0,1-1.52,3.74,6.47,6.47,0,0,1-4.36,1.31Zm0-1.8h4a4,4,0,0,0,2.7-.83,3,3,0,0,0,.94-2.41,3.15,3.15,0,0,0-.94-2.39,3.75,3.75,0,0,0-2.58-.93h-4.08Z" fill="#fff"/>
            <path id="Trazado_100730" data-name="Trazado 100730" d="M281.38,213.65a5.43,5.43,0,0,1-4.11-1.66,6.16,6.16,0,0,1-1.58-4.43v-.39a7.47,7.47,0,0,1,.71-3.3,5.52,5.52,0,0,1,2-2.27,5,5,0,0,1,2.75-.82,4.64,4.64,0,0,1,3.76,1.6,6.91,6.91,0,0,1,1.34,4.56v.88h-8.41a4.4,4.4,0,0,0,1.08,3,3.36,3.36,0,0,0,2.6,1.13,3.78,3.78,0,0,0,1.91-.46,4.76,4.76,0,0,0,1.36-1.22l1.3,1a5.21,5.21,0,0,1-4.71,2.38Zm-.26-11.12a2.84,2.84,0,0,0-2.16.93,4.57,4.57,0,0,0-1.08,2.62h6.22v-.16a4.06,4.06,0,0,0-.87-2.51,2.68,2.68,0,0,0-2.11-.88Z" fill="#fff"/>
            <path id="Trazado_100731" data-name="Trazado 100731" d="M294.67,202.92a5.667,5.667,0,0,0-1-.09,2.8,2.8,0,0,0-2.83,1.78v8.81h-2.13V201h2.07v1.43a3.32,3.32,0,0,1,3-1.66,2.27,2.27,0,0,1,.94.16Z" fill="#fff"/>
            <path id="Trazado_100732" data-name="Trazado 100732" d="M303.85,210.13a1.58,1.58,0,0,0-.65-1.34,6.41,6.41,0,0,0-2.26-.82,10.709,10.709,0,0,1-2.56-.82A3.66,3.66,0,0,1,297,206a2.741,2.741,0,0,1-.45-1.58,3.21,3.21,0,0,1,1.29-2.58,5,5,0,0,1,3.3-1.06,5.23,5.23,0,0,1,3.42,1.09,3.49,3.49,0,0,1,1.31,2.79h-2.13a1.92,1.92,0,0,0-.74-1.5,2.76,2.76,0,0,0-1.86-.63,2.9,2.9,0,0,0-1.82.5,1.61,1.61,0,0,0-.65,1.32,1.28,1.28,0,0,0,.61,1.16,7.27,7.27,0,0,0,2.2.74,11.68,11.68,0,0,1,2.57.85,3.79,3.79,0,0,1,1.46,1.19A2.88,2.88,0,0,1,306,210a3.2,3.2,0,0,1-1.33,2.67,5.65,5.65,0,0,1-3.45,1,6.251,6.251,0,0,1-2.64-.53,4.25,4.25,0,0,1-1.8-1.47,3.57,3.57,0,0,1-.64-2.05h2.12a2.16,2.16,0,0,0,.85,1.69,3.29,3.29,0,0,0,2.11.63,3.47,3.47,0,0,0,1.93-.49,1.51,1.51,0,0,0,.7-1.32Z" fill="#fff"/>
            <path id="Trazado_100733" data-name="Trazado 100733" d="M308.17,207.1a7.32,7.32,0,0,1,.72-3.28,5.33,5.33,0,0,1,2-2.25,5.5,5.5,0,0,1,2.92-.79,5.23,5.23,0,0,1,4.1,1.76,6.75,6.75,0,0,1,1.57,4.66v.15a7.42,7.42,0,0,1-.7,3.25,5.29,5.29,0,0,1-2,2.25,5.55,5.55,0,0,1-3,.8,5.2,5.2,0,0,1-4.08-1.76,6.67,6.67,0,0,1-1.57-4.64Zm2.13.25a5.32,5.32,0,0,0,1,3.32,3.24,3.24,0,0,0,5.13,0,5.76,5.76,0,0,0,.95-3.55,5.29,5.29,0,0,0-1-3.31,3.07,3.07,0,0,0-2.57-1.26,3,3,0,0,0-2.53,1.25,5.68,5.68,0,0,0-.98,3.55Z" fill="#fff"/>
            <path id="Trazado_100734" data-name="Trazado 100734" d="M324.13,201l.07,1.56a4.54,4.54,0,0,1,3.72-1.79q3.93,0,4,4.44v8.2H329.8V205.2a2.84,2.84,0,0,0-.61-2,2.5,2.5,0,0,0-1.88-.64,3.12,3.12,0,0,0-1.81.55,3.73,3.73,0,0,0-1.21,1.45v8.84h-2.12V201Z" fill="#fff"/>
            <path id="Trazado_100735" data-name="Trazado 100735" d="M342.74,213.42a4.341,4.341,0,0,1-.29-1.31,4.74,4.74,0,0,1-3.54,1.54,4.41,4.41,0,0,1-3-1,3.36,3.36,0,0,1-1.17-2.63,3.51,3.51,0,0,1,1.47-3,6.92,6.92,0,0,1,4.15-1.07h2.06v-1a2.39,2.39,0,0,0-.66-1.77,2.69,2.69,0,0,0-2-.66,3.11,3.11,0,0,0-1.91.57,1.72,1.72,0,0,0-.77,1.39H335a2.9,2.9,0,0,1,.66-1.79,4.45,4.45,0,0,1,1.79-1.37,6,6,0,0,1,2.48-.51,4.93,4.93,0,0,1,3.36,1.07,3.88,3.88,0,0,1,1.26,3v5.71a7,7,0,0,0,.44,2.72v.18Zm-3.52-1.62a3.79,3.79,0,0,0,1.9-.51,3.16,3.16,0,0,0,1.29-1.35V207.4h-1.66q-3.9,0-3.9,2.28a1.9,1.9,0,0,0,.67,1.56,2.51,2.51,0,0,0,1.7.56Z" fill="#fff"/>
          </g>
          <g id="Grupo_53980" data-name="Grupo 53980">
            <path id="Trazado_100736" data-name="Trazado 100736" d="M127,504.67v6.54h-2.2v-16.7h6.16a6.21,6.21,0,0,1,4.29,1.4,5.3,5.3,0,0,1,0,7.45,6.52,6.52,0,0,1-4.36,1.31Zm0-1.8h4a4,4,0,0,0,2.7-.83,3,3,0,0,0,.94-2.41,3.13,3.13,0,0,0-.94-2.39,3.66,3.66,0,0,0-2.58-.93H127Z" fill="#fff"/>
            <path id="Trazado_100737" data-name="Trazado 100737" d="M145.25,500.7a6.761,6.761,0,0,0-1-.08,2.81,2.81,0,0,0-2.84,1.78v8.81h-2.12V498.8h2.07v1.43a3.3,3.3,0,0,1,3-1.66,2.12,2.12,0,0,1,.94.16Z" fill="#fff"/>
            <path id="Trazado_100738" data-name="Trazado 100738" d="M146.43,504.89a7.28,7.28,0,0,1,.71-3.28,5.594,5.594,0,0,1,9.02-1.25,6.78,6.78,0,0,1,1.56,4.67v.15a7.42,7.42,0,0,1-.69,3.25,5.29,5.29,0,0,1-2,2.24,5.43,5.43,0,0,1-3,.81,5.22,5.22,0,0,1-4.09-1.76,6.73,6.73,0,0,1-1.56-4.64Zm2.13.25a5.32,5.32,0,0,0,1,3.32,3.24,3.24,0,0,0,5.13,0,5.85,5.85,0,0,0,.95-3.55,5.29,5.29,0,0,0-1-3.31,3.221,3.221,0,0,0-5.11-.02,5.8,5.8,0,0,0-.97,3.56Z" fill="#fff"/>
            <path id="Trazado_100739" data-name="Trazado 100739" d="M164.28,508.1l2.89-9.3h2.27l-5,14.32q-1.15,3.11-3.68,3.1h-.4l-.79-.14v-1.72h.57a2.82,2.82,0,0,0,1.68-.43,3.24,3.24,0,0,0,1-1.6l.47-1.26-4.43-12.27h2.32Z" fill="#fff"/>
            <path id="Trazado_100740" data-name="Trazado 100740" d="M176.34,511.44a5.46,5.46,0,0,1-4.11-1.66,6.16,6.16,0,0,1-1.58-4.43V505a7.61,7.61,0,0,1,.7-3.3,5.55,5.55,0,0,1,2-2.27,4.911,4.911,0,0,1,2.74-.82,4.67,4.67,0,0,1,3.77,1.59,7,7,0,0,1,1.34,4.57v.88h-8.41a4.46,4.46,0,0,0,1.07,3,3.4,3.4,0,0,0,2.61,1.13,3.78,3.78,0,0,0,1.91-.46,4.761,4.761,0,0,0,1.36-1.22l1.3,1a5.21,5.21,0,0,1-4.7,2.34Zm-.27-11.13a2.81,2.81,0,0,0-2.15.94,4.54,4.54,0,0,0-1.08,2.62h6.22v-.16a4.1,4.1,0,0,0-.88-2.51,2.67,2.67,0,0,0-2.11-.89Z" fill="#fff"/>
            <path id="Trazado_100741" data-name="Trazado 100741" d="M188.61,509.71a3,3,0,0,0,2-.69,2.4,2.4,0,0,0,.94-1.72h2a3.89,3.89,0,0,1-.73,2,4.919,4.919,0,0,1-1.81,1.53,5.49,5.49,0,0,1-6.42-1.11,6.73,6.73,0,0,1-1.5-4.63v-.36a7.36,7.36,0,0,1,.67-3.22,5.09,5.09,0,0,1,1.9-2.19,5.46,5.46,0,0,1,2.95-.78,5,5,0,0,1,3.47,1.25,4.47,4.47,0,0,1,1.47,3.25h-2a2.88,2.88,0,0,0-.91-2,2.82,2.82,0,0,0-2-.78,3,3,0,0,0-2.51,1.17,5.45,5.45,0,0,0-.89,3.36v.4a5.39,5.39,0,0,0,.89,3.31,3,3,0,0,0,2.48,1.21Z" fill="#fff"/>
            <path id="Trazado_100742" data-name="Trazado 100742" d="M198.8,495.79v3h2.32v1.64H198.8v7.7a1.76,1.76,0,0,0,.31,1.12,1.31,1.31,0,0,0,1.06.38,5.389,5.389,0,0,0,1-.14v1.71a6.279,6.279,0,0,1-1.63.23,2.67,2.67,0,0,1-2.15-.86,3.73,3.73,0,0,1-.72-2.45v-7.69h-2.26V498.8h2.26v-3Z" fill="#fff"/>
            <path id="Trazado_100743" data-name="Trazado 100743" d="M202.82,504.89a7.29,7.29,0,0,1,.72-3.28,5.594,5.594,0,0,1,9.02-1.25,6.78,6.78,0,0,1,1.56,4.67v.15a7.42,7.42,0,0,1-.69,3.25,5.29,5.29,0,0,1-2,2.24,5.46,5.46,0,0,1-3,.81,5.22,5.22,0,0,1-4.09-1.76,6.74,6.74,0,0,1-1.57-4.64Zm2.14.25a5.38,5.38,0,0,0,.95,3.32,3.25,3.25,0,0,0,5.14,0,5.85,5.85,0,0,0,.95-3.55,5.29,5.29,0,0,0-1-3.31,3.221,3.221,0,0,0-5.11-.02,5.8,5.8,0,0,0-.89,3.56Z" fill="#fff"/>
          </g>
          <g id="Grupo_53981" data-name="Grupo 53981">
            <path id="Trazado_100744" data-name="Trazado 100744" d="M403.85,503.76a10.18,10.18,0,0,1-4.12-2,3.81,3.81,0,0,1-1.29-2.93,4,4,0,0,1,1.57-3.26,6.27,6.27,0,0,1,4.1-1.29,6.76,6.76,0,0,1,3.07.67,5,5,0,0,1,2.09,1.83,4.72,4.72,0,0,1,.74,2.56h-2.22a3.07,3.07,0,0,0-1-2.39,3.92,3.92,0,0,0-2.72-.87,4,4,0,0,0-2.54.72,2.38,2.38,0,0,0-.91,2,2.15,2.15,0,0,0,.87,1.73,8.46,8.46,0,0,0,2.94,1.29,14,14,0,0,1,3.26,1.3,4.85,4.85,0,0,1,1.74,1.64A4.2,4.2,0,0,1,410,507a3.93,3.93,0,0,1-1.58,3.26,6.79,6.79,0,0,1-4.23,1.22,7.81,7.81,0,0,1-3.21-.66,5.34,5.34,0,0,1-2.3-1.81,4.38,4.38,0,0,1-.81-2.6h2.21a2.9,2.9,0,0,0,1.12,2.39,4.75,4.75,0,0,0,3,.88,4.35,4.35,0,0,0,2.67-.71,2.32,2.32,0,0,0,.93-1.94,2.28,2.28,0,0,0-.86-1.9A9.859,9.859,0,0,0,403.85,503.76Z" fill="#fff"/>
            <path id="Trazado_100745" data-name="Trazado 100745" d="M412.54,495.51a1.24,1.24,0,0,1,.32-.87,1.39,1.39,0,0,1,1.87,0,1.28,1.28,0,0,1-1.87,1.73,1.24,1.24,0,0,1-.32-.86Zm2.3,15.7h-2.13V498.8h2.13Z" fill="#fff"/>
            <path id="Trazado_100746" data-name="Trazado 100746" d="M421.11,495.79v3h2.32v1.64h-2.32v7.7a1.7,1.7,0,0,0,.31,1.12,1.29,1.29,0,0,0,1.05.38,5.29,5.29,0,0,0,1-.14v1.71a6.279,6.279,0,0,1-1.63.23,2.65,2.65,0,0,1-2.14-.86,3.73,3.73,0,0,1-.72-2.45v-7.69h-2.26V498.8H419v-3Z" fill="#fff"/>
            <path id="Trazado_100747" data-name="Trazado 100747" d="M433.56,510a4.49,4.49,0,0,1-3.63,1.46,3.85,3.85,0,0,1-3-1.16,4.89,4.89,0,0,1-1.05-3.41V498.8H428v8c0,1.88.76,2.82,2.29,2.82a3.19,3.19,0,0,0,3.24-1.82v-9h2.12v12.41h-2Z" fill="#fff"/>
            <path id="Trazado_100748" data-name="Trazado 100748" d="M446.51,511.21a4.691,4.691,0,0,1-.3-1.31,4.74,4.74,0,0,1-3.53,1.54,4.39,4.39,0,0,1-3-1,3.37,3.37,0,0,1-1.18-2.63,3.49,3.49,0,0,1,1.48-3,6.89,6.89,0,0,1,4.14-1.08h2.07v-1a2.36,2.36,0,0,0-.67-1.77,2.65,2.65,0,0,0-2-.66,3.08,3.08,0,0,0-1.9.57,1.7,1.7,0,0,0-.77,1.39h-2.13a2.94,2.94,0,0,1,.66-1.8,4.52,4.52,0,0,1,1.78-1.37,6.191,6.191,0,0,1,2.49-.5,4.93,4.93,0,0,1,3.36,1.07,3.88,3.88,0,0,1,1.26,3v5.71a7,7,0,0,0,.43,2.71v.19ZM443,509.59a3.661,3.661,0,0,0,1.89-.52,3.1,3.1,0,0,0,1.3-1.34v-2.54h-1.67q-3.88,0-3.89,2.28a2,2,0,0,0,.66,1.56,2.57,2.57,0,0,0,1.71.56Z" fill="#fff"/>
            <path id="Trazado_100749" data-name="Trazado 100749" d="M456.6,509.71a3.07,3.07,0,0,0,2-.69,2.43,2.43,0,0,0,.94-1.72h2a3.89,3.89,0,0,1-.73,2,4.77,4.77,0,0,1-1.81,1.53,5.49,5.49,0,0,1-6.42-1.11,6.73,6.73,0,0,1-1.5-4.63v-.36a7.5,7.5,0,0,1,.67-3.22,5,5,0,0,1,1.91-2.19,5.419,5.419,0,0,1,2.94-.78,5,5,0,0,1,3.47,1.25,4.47,4.47,0,0,1,1.47,3.25h-2a2.92,2.92,0,0,0-.91-2,2.85,2.85,0,0,0-2-.78,3,3,0,0,0-2.51,1.17,5.45,5.45,0,0,0-.88,3.36v.4a5.39,5.39,0,0,0,.88,3.31,3,3,0,0,0,2.48,1.21Z" fill="#fff"/>
            <path id="Trazado_100750" data-name="Trazado 100750" d="M463.93,495.51a1.24,1.24,0,0,1,.31-.87,1.41,1.41,0,0,1,1.88,0,1.33,1.33,0,0,1,0,1.73,1.25,1.25,0,0,1-2.19-.86Zm2.29,15.7H464.1V498.8h2.12Z" fill="#fff"/>
            <path id="Trazado_100751" data-name="Trazado 100751" d="M469.06,504.89a7.279,7.279,0,0,1,.71-3.28,5.594,5.594,0,0,1,9.02-1.25,6.78,6.78,0,0,1,1.56,4.67v.15a7.419,7.419,0,0,1-.69,3.25,5.29,5.29,0,0,1-2,2.24,5.43,5.43,0,0,1-3,.81,5.22,5.22,0,0,1-4.09-1.76,6.73,6.73,0,0,1-1.56-4.64Zm2.13.25a5.32,5.32,0,0,0,1,3.32,3.24,3.24,0,0,0,5.13,0,5.85,5.85,0,0,0,1-3.55,5.29,5.29,0,0,0-1-3.31,3.221,3.221,0,0,0-5.11-.02,5.8,5.8,0,0,0-1.02,3.56Zm4.46-11.55h2.57L475.15,497h-1.71Z" fill="#fff"/>
            <path id="Trazado_100752" data-name="Trazado 100752" d="M485,498.8l.07,1.56a4.52,4.52,0,0,1,3.71-1.79q3.94,0,4,4.44v8.2h-2.12V503a2.89,2.89,0,0,0-.61-2,2.46,2.46,0,0,0-1.88-.64,3,3,0,0,0-1.81.55,3.75,3.75,0,0,0-1.22,1.45v8.84H483V498.8Z" fill="#fff"/>
          </g>
          <g id="Grupo_53982" data-name="Grupo 53982">
            <path id="Trazado_100753" data-name="Trazado 100753" d="M114,313.05l5.63,3.31-1.11,1.9-14.39-8.47,3.12-5.31a6.17,6.17,0,0,1,3.38-3,4.74,4.74,0,0,1,4,.54,4.67,4.67,0,0,1,2.46,3.21,6.44,6.44,0,0,1-1.08,4.41Zm-1.55-.92,2-3.41a3.94,3.94,0,0,0,.66-2.75,3,3,0,0,0-1.6-2,3.17,3.17,0,0,0-2.54-.41,3.76,3.76,0,0,0-2.11,1.76l-2.07,3.52Z" fill="#12263f"/>
            <path id="Trazado_100754" data-name="Trazado 100754" d="M128.61,301.57a5.41,5.41,0,0,1-3.51,2.7,6.12,6.12,0,0,1-4.62-.88l-.34-.2a7.439,7.439,0,0,1-2.49-2.28,5.51,5.51,0,0,1-1-2.85,4.88,4.88,0,0,1,.68-2.78,4.67,4.67,0,0,1,3.28-2.44,7,7,0,0,1,4.62,1.16l.76.45-4.26,7.24a4.37,4.37,0,0,0,3.1.58,3.36,3.36,0,0,0,2.29-1.67,3.74,3.74,0,0,0,.57-1.88,4.91,4.91,0,0,0-.35-1.79l1.52-.61a5.22,5.22,0,0,1-.25,5.25Zm-9.72-5.41a2.82,2.82,0,0,0-.29,2.33,4.51,4.51,0,0,0,1.71,2.26l3.15-5.36-.14-.08a4,4,0,0,0-2.6-.52,2.69,2.69,0,0,0-1.83,1.37Z" fill="#12263f"/>
            <path id="Trazado_100755" data-name="Trazado 100755" d="M122.43,287.15l1.38.73a4.53,4.53,0,0,1,.34-4.11q2-3.39,5.84-1.17l7.07,4.16L136,288.59l-7.08-4.17a2.86,2.86,0,0,0-2-.47,2.43,2.43,0,0,0-1.5,1.29,3.06,3.06,0,0,0-.45,1.84,7.327,7.327,0,0,0,.63,1.78l7.62,4.48-1.07,1.83-10.7-6.29Z" fill="#12263f"/>
            <path id="Trazado_100756" data-name="Trazado 100756" d="M139.5,276.1a1.55,1.55,0,0,0-1.5-.1,6.31,6.31,0,0,0-1.86,1.54,10.41,10.41,0,0,1-2,1.78,3.68,3.68,0,0,1-1.69.63,2.73,2.73,0,0,1-1.6-.42,3.22,3.22,0,0,1-1.57-2.41,5,5,0,0,1,.77-3.38,5.19,5.19,0,0,1,2.67-2.4,3.47,3.47,0,0,1,3.07.28l-1.08,1.84a1.87,1.87,0,0,0-1.67-.12,2.75,2.75,0,0,0-1.49,1.28,2.92,2.92,0,0,0-.49,1.82,1.57,1.57,0,0,0,.81,1.23,1.29,1.29,0,0,0,1.31.06A7.47,7.47,0,0,0,135,276.2a11.411,11.411,0,0,1,2-1.79,3.77,3.77,0,0,1,1.76-.66,2.89,2.89,0,0,1,1.7.45,3.17,3.17,0,0,1,1.63,2.5,5.61,5.61,0,0,1-.89,3.48,6.18,6.18,0,0,1-1.79,2,4.28,4.28,0,0,1-2.18.8,3.58,3.58,0,0,1-2.09-.48l1.07-1.83a2.17,2.17,0,0,0,1.89.12,3.24,3.24,0,0,0,1.61-1.5,3.48,3.48,0,0,0,.56-1.91,1.53,1.53,0,0,0-.77-1.28Z" fill="#12263f"/>
            <path id="Trazado_100757" data-name="Trazado 100757" d="M148.7,267a4.209,4.209,0,0,1-1.27-.41,4.78,4.78,0,0,1-.47,3.83,4.37,4.37,0,0,1-2.42,2.06,3.35,3.35,0,0,1-2.87-.32,3.47,3.47,0,0,1-1.84-2.79,7,7,0,0,1,1.17-4.12l1.05-1.78-.84-.49a2.36,2.36,0,0,0-1.86-.33,2.66,2.66,0,0,0-1.57,1.36,3.1,3.1,0,0,0-.47,1.93,1.7,1.7,0,0,0,.81,1.37L137,269.1a2.9,2.9,0,0,1-1.22-1.47,4.6,4.6,0,0,1-.27-2.24,6.13,6.13,0,0,1,.82-2.4,5,5,0,0,1,2.63-2.35,3.86,3.86,0,0,1,3.19.41l4.92,2.9a7.12,7.12,0,0,0,2.56,1l.16.09Zm-3.18,2.21a3.72,3.72,0,0,0,.52-1.89,3.16,3.16,0,0,0-.5-1.8l-2.19-1.29-.85,1.44q-2,3.36,0,4.51a1.93,1.93,0,0,0,1.68.22,2.53,2.53,0,0,0,1.34-1.23Z" fill="#12263f"/>
            <path id="Trazado_100758" data-name="Trazado 100758" d="M145.28,252.05a6.5,6.5,0,0,0-.6.86,2.81,2.81,0,0,0,.1,3.35l7.59,4.46-1.07,1.83-10.7-6.29,1.05-1.78,1.25.7a3.32,3.32,0,0,1,.07-3.4,2.36,2.36,0,0,1,.61-.73Z" fill="#12263f"/>
          </g>
          <g id="Grupo_53983" data-name="Grupo 53983">
            <path id="Trazado_100759" data-name="Trazado 100759" d="M465.77,284.46a10.35,10.35,0,0,1-.45-4.56,3.82,3.82,0,0,1,1.82-2.64,4.06,4.06,0,0,1,3.61-.36,6.22,6.22,0,0,1,3.24,2.82,6.77,6.77,0,0,1,1,3,5,5,0,0,1-.47,2.74,4.73,4.73,0,0,1-1.79,2l-1.16-1.89a3.07,3.07,0,0,0,1.53-2.07,3.92,3.92,0,0,0-.68-2.77,4,4,0,0,0-1.94-1.79,2.38,2.38,0,0,0-2.18.27,2.16,2.16,0,0,0-1,1.64,8.56,8.56,0,0,0,.44,3.19,13.488,13.488,0,0,1,.61,3.45,5,5,0,0,1-.49,2.35,4.22,4.22,0,0,1-1.59,1.64,3.88,3.88,0,0,1-3.6.35,6.76,6.76,0,0,1-3.26-3,8,8,0,0,1-1.12-3.08,5.47,5.47,0,0,1,.34-2.91,4.44,4.44,0,0,1,1.79-2.05l1.16,1.89a2.88,2.88,0,0,0-1.45,2.2,4.74,4.74,0,0,0,.82,3,4.31,4.31,0,0,0,2,1.9,2.34,2.34,0,0,0,2.14-.22,2.27,2.27,0,0,0,1.17-1.73A9.912,9.912,0,0,0,465.77,284.46Z" fill="#12263f"/>
            <path id="Trazado_100760" data-name="Trazado 100760" d="M466.48,300.26a5.43,5.43,0,0,1-.74-4.37,6.14,6.14,0,0,1,2.95-3.67l.33-.2a7.45,7.45,0,0,1,3.18-1.13,5.55,5.55,0,0,1,3,.49,5,5,0,0,1,2.14,1.92,4.62,4.62,0,0,1,.61,4,6.93,6.93,0,0,1-3.18,3.53l-.75.46-4.41-7.16a4.43,4.43,0,0,0-2,2.47,3.38,3.38,0,0,0,.4,2.81,3.739,3.739,0,0,0,1.39,1.38,4.89,4.89,0,0,0,1.75.53L471,303a5.21,5.21,0,0,1-4.52-2.74Zm9.34-6.05a2.84,2.84,0,0,0-1.93-1.35,4.49,4.49,0,0,0-2.8.46l3.26,5.29.14-.08a4,4,0,0,0,1.67-2.06,2.64,2.64,0,0,0-.34-2.26Z" fill="#12263f"/>
            <path id="Trazado_100761" data-name="Trazado 100761" d="M482.11,301.56l-1.29.88a4.53,4.53,0,0,1,3.47,2.23c1.37,2.23.81,4.13-1.7,5.7l-7,4.3-1.11-1.81,7-4.3a2.91,2.91,0,0,0,1.37-1.56,2.48,2.48,0,0,0-.44-1.94,3.06,3.06,0,0,0-1.42-1.25,3.76,3.76,0,0,0-1.86-.28l-7.54,4.63-1.11-1.81,10.57-6.5Z" fill="#12263f"/>
            <path id="Trazado_100762" data-name="Trazado 100762" d="M491.92,311.77l-2.56,1.58,1.21,2-1.4.86-1.21-2-6.56,4a1.73,1.73,0,0,0-.8.85,1.31,1.31,0,0,0,.24,1.09,4.9,4.9,0,0,0,.64.79l-1.45.9a6.159,6.159,0,0,1-1-1.27,2.62,2.62,0,0,1-.39-2.28,3.69,3.69,0,0,1,1.7-1.89l6.56-4-1.19-1.93,1.4-.86,1.19,1.93,2.5-1.54Z" fill="#12263f"/>
            <path id="Trazado_100763" data-name="Trazado 100763" d="M482.5,325.89l-1.11-1.81L492,317.59l1.11,1.81Zm12.18-10.17a1.22,1.22,0,0,1,.9-.19,1.18,1.18,0,0,1,.8.61,1.23,1.23,0,0,1,.19,1,1.3,1.3,0,0,1-.58.73,1.17,1.17,0,0,1-.9.17,1.23,1.23,0,0,1-.79-.62,1.14,1.14,0,0,1,.38-1.69Z" fill="#12263f"/>
            <path id="Trazado_100764" data-name="Trazado 100764" d="M496.37,328.39a5.9,5.9,0,0,0-.48-.93,2.8,2.8,0,0,0-3-1.48l-7.5,4.61-1.11-1.81,10.57-6.49,1.08,1.76-1.2.78a3.27,3.27,0,0,1,3,1.65,2.09,2.09,0,0,1,.36.88Z" fill="#12263f"/>
          </g>
          <path id="Trazado_100765" data-name="Trazado 100765" d="M303.28,357.17H296l-2.84,16.3h-9l7.74-44.53h14.74q7.4,0,11.39,3.49c2.66,2.32,3.84,5.56,3.53,9.69q-.64,9.18-9.79,12.76L318.08,373v.49h-9.54Zm-6-7.43,6.67.06a9.35,9.35,0,0,0,5.85-1.91,7.57,7.57,0,0,0,2.77-5,5.78,5.78,0,0,0-.95-4.65,5.64,5.64,0,0,0-4.37-1.8H299.6Z" fill="#12263f"/>
          <path id="Trazado_100766" data-name="Trazado 100766" d="M310.07,131.27a7,7,0,1,0-7,7,7,7,0,0,0,7-7Zm-7,4.65a4.637,4.637,0,1,1,.03,0Z" fill="#fff"/>
          <path id="Trazado_100767" data-name="Trazado 100767" d="M313.56,153.35V148.7a10.46,10.46,0,1,0-20.92,0v4.65a1.16,1.16,0,0,0,1.16,1.16h18.6a1.16,1.16,0,0,0,1.16-1.16Zm-2.32-1.16H295V148.7a8.14,8.14,0,1,1,16.28,0Z" fill="#fff"/>
          <path id="Trazado_100768" data-name="Trazado 100768" d="M281.7,169.87l5.59,2.8v6.25a1.16,1.16,0,0,0,1.16,1.16h12.32a1.16,1.16,0,0,0,1.17-1.16V164.13a7.22,7.22,0,0,0-6.21-7.25c-.09,0-4.49-.35-6.62-2.47l-3.18-3.18a4.63,4.63,0,0,0-3.29-1.37v-9.29a4.65,4.65,0,1,0-9.3,0v15.78A15.13,15.13,0,0,0,281.7,169.87Zm-6-29.3a2.33,2.33,0,1,1,4.65,0v9.92a4.63,4.63,0,0,0-1,7.31l5.95,5.95a1.16,1.16,0,0,0,1.64-1.64l-5.95-6a2.33,2.33,0,0,1,.87-3.84h0a2.33,2.33,0,0,1,2.42.55l3.18,3.18c2.17,2.17,5.33,2.78,8,3.14h0a4.87,4.87,0,0,1,4.13,4.94v13.63h-10V172a1.16,1.16,0,0,0-.65-1l-6.23-3.12a12.72,12.72,0,0,1-7.07-11.44Z" fill="#fff"/>
          <path id="Trazado_100769" data-name="Trazado 100769" d="M326.69,165.9a1.17,1.17,0,1,1-1.16,1.17,1.17,1.17,0,0,1,1.16-1.17Z" fill="#fff"/>
          <path id="Trazado_100770" data-name="Trazado 100770" d="M328.2,135.92a4.65,4.65,0,0,0-4.64,4.65v9.29a4.61,4.61,0,0,0-3.29,1.37l-3.18,3.18c-1.86,1.85-4.87,2.16-6.62,2.47a7.22,7.22,0,0,0-6.21,7.25v14.79a1.16,1.16,0,0,0,1.16,1.16h12.32a1.16,1.16,0,0,0,1.17-1.16v-6.25l3.8-1.91a1.16,1.16,0,1,0-1-2.07l-4.45,2.22a1.17,1.17,0,0,0-.64,1v5.81h-10V164.13a4.87,4.87,0,0,1,4.13-4.94h0c2.71-.37,5.83-1,8-3.14l3.18-3.18a2.33,2.33,0,0,1,2.42-.55h0a2.33,2.33,0,0,1,.87,3.84l-5.95,6a1.16,1.16,0,0,0,1.64,1.64l5.95-5.95a4.65,4.65,0,0,0-1-7.31v-9.92a2.33,2.33,0,1,1,4.65,0V156.4a12.9,12.9,0,0,1-1.55,6.11,1.16,1.16,0,1,0,2,1.11,15.15,15.15,0,0,0,1.83-7.22V140.57a4.65,4.65,0,0,0-4.59-4.65Z" fill="#fff"/>
          <path id="Trazado_100771" data-name="Trazado 100771" d="M143,458.93a7.52,7.52,0,0,0,1.06.62c.44.22,1.18.6,1.23.86a1.7,1.7,0,0,1-.12,1c-.15.32-.31.6-.44.84-.38.66-1,1.77-.06,2.54a9.658,9.658,0,0,0,1,.77,2.5,2.5,0,0,0-.33,1.47,1.47,1.47,0,0,0,.6,1,7.448,7.448,0,0,0,.71.43c.6.35.84.51.92.83a2.8,2.8,0,0,1-.11,1.22c-.06.27-.11.55-.15.82a6,6,0,0,0,.34,2.75,3.82,3.82,0,0,0,3.6,2.78,3.86,3.86,0,0,0,.84-.09,75.892,75.892,0,0,0,8.6-2.58c2.3,1.35,3.75,5.45,4.13,7a1,1,0,0,0,1,.78l25.6-.08a1,1,0,0,0,.83-.41,1.05,1.05,0,0,0,.15-.91,8.07,8.07,0,0,0-1-1.94,11,11,0,0,1-.66-1.1,20.579,20.579,0,0,1-1.15-2.9,35.671,35.671,0,0,1-1.2-6,1,1,0,0,0-.6-.85,1.05,1.05,0,0,0-1,.13,1,1,0,0,0-.38,1,36.67,36.67,0,0,0,1.27,6.32,21,21,0,0,0,1.27,3.19,10,10,0,0,0,.79,1.34l.07.1-23.14.07a16.39,16.39,0,0,0-3.59-6.52l.92-.32,1.46-.5c4.37-1.38,6.56-3.37,6.5-5.92a1,1,0,0,0-.31-.72.94.94,0,0,0-.73-.27,1,1,0,0,0-1,1c0,1.05-.83,2.58-5.07,3.92l-1.52.52-2.78,1h0a81.2,81.2,0,0,1-8.77,2.65,1.81,1.81,0,0,1-2.1-1.36,4,4,0,0,1-.24-1.82,4.522,4.522,0,0,1,.12-.64,4.43,4.43,0,0,0,.09-2.17,3.4,3.4,0,0,0-1.89-2.09l-.21-.12a4.12,4.12,0,0,1,.39-.63,1,1,0,0,0-.19-1.45c-.25-.18-.83-.62-1.25-1l.15-.27c.16-.28.35-.61.53-1a3.87,3.87,0,0,0,.27-2.28c-.25-1.24-1.44-1.85-2.31-2.3a7,7,0,0,1-.84-.48,4.917,4.917,0,0,1-.61-.5c0-.16.17-.53.94-1.48a40.452,40.452,0,0,0,4.67-7.58,3.06,3.06,0,0,0,.4-1.38,3.57,3.57,0,0,0-1.49-2.55c-.42-.38-.8-.74-.85-1.07a1.88,1.88,0,0,1,.16-.7c.17-.43.36-.86.55-1.29a15.559,15.559,0,0,0,1-2.69l.1-.44a28.525,28.525,0,0,1,.83-3,17.51,17.51,0,0,1,3.67-6c2-2.06,5-3.52,9.14-4.34a67.066,67.066,0,0,1,9.57-1.38,21.4,21.4,0,0,1,4.8.27,1.015,1.015,0,1,0,.35-2,24.39,24.39,0,0,0-5.26-.3,68.278,68.278,0,0,0-9.86,1.42c-4.6.92-7.95,2.53-10.23,4.94a19.64,19.64,0,0,0-4.09,6.67,26.7,26.7,0,0,0-.9,3.26l-.11.43a13.079,13.079,0,0,1-.87,2.33c-.2.46-.41.93-.6,1.41a3.53,3.53,0,0,0-.27,1.7,3.9,3.9,0,0,0,1.49,2.28c.5.46.83.78.83,1.06a2.2,2.2,0,0,1-.17.45,39.8,39.8,0,0,1-4.47,7.26c-.74.9-1.51,1.94-1.35,3a3.12,3.12,0,0,0,1.33,1.99Z" fill="#fff"/>
          <path id="Trazado_100772" data-name="Trazado 100772" d="M152.88,438.94l.11-.45a19.79,19.79,0,0,1,.68-2.51,13.24,13.24,0,0,1,2.8-4.59,10.57,10.57,0,0,1,4.7-2.58,1.028,1.028,0,1,0-.59-1.97A12.59,12.59,0,0,0,155,430a15.309,15.309,0,0,0-3.22,5.29A23.435,23.435,0,0,0,151,438l-.1.44a1,1,0,0,0,.76,1.22h.23A1,1,0,0,0,152.88,438.94Z" fill="#fff"/>
          <circle id="Elipse_4062" data-name="Elipse 4062" cx="1.02" cy="1.02" r="1.02" transform="translate(149.65 441.19)" fill="#fff"/>
          <path id="Trazado_100773" data-name="Trazado 100773" d="M169,441.41a14,14,0,0,0,3.44,9.47,17.538,17.538,0,0,0,2.35,2c1.49,1.16,2.9,2.26,3.28,3.79a3.06,3.06,0,0,0-1.93,2.84v2a3.05,3.05,0,0,0,2,2.88v.18a4.08,4.08,0,1,0,8.16,0v-.18a3.07,3.07,0,0,0,2-2.88v-2a3.07,3.07,0,0,0-1.94-2.84c.37-1.53,1.79-2.63,3.28-3.79a17.537,17.537,0,0,0,2.35-2,14,14,0,0,0,3.45-9.47,13.26,13.26,0,1,0-26.52,0Zm10.2,1.82h-1a1,1,0,1,1,1-1Zm4.08,13.26h-2V445.27h2Zm-1,10.2a2,2,0,0,1-2-2h4.08a2,2,0,0,1-2.06,2Zm4.08-5.1a1,1,0,0,1-1,1h-6.12a1,1,0,0,1-1-1v-2a1,1,0,0,1,1-1h6.12a1,1,0,0,1,1,1Zm7.14-20.15a12,12,0,0,1-2.92,8.08,16.916,16.916,0,0,1-2.08,1.79,14.15,14.15,0,0,0-3.16,3v-9.06h1a3.06,3.06,0,1,0-3.06-3.06v1h-2v-1a3.06,3.06,0,1,0-3.06,3.06h1v9.06a14.6,14.6,0,0,0-3.16-3,16.92,16.92,0,0,1-2.08-1.79,11.92,11.92,0,0,1-2.92-8.08c.1-6.22,5.23-11.47,11.22-11.47s11.14,5.25,11.24,11.47Zm-8.16,1.79v-1a1,1,0,1,1,1,1Z" fill="#fff"/>
          <path id="Trazado_100774" data-name="Trazado 100774" d="M198.62,442.21h3.06a1,1,0,1,0,0-2h-3.06a1,1,0,0,0,0,2Z" fill="#fff"/>
          <path id="Trazado_100775" data-name="Trazado 100775" d="M193.84,430.67a1,1,0,0,0,.72-.3l2.16-2.16a1.023,1.023,0,1,0-1.44-1.45l-2.16,2.16a1,1,0,0,0,.72,1.74Z" fill="#fff"/>
          <path id="Trazado_100776" data-name="Trazado 100776" d="M182.3,425.89a1,1,0,0,0,1-1v-3.06a1,1,0,1,0-2,0v3.06A1,1,0,0,0,182.3,425.89Z" fill="#fff"/>
          <path id="Trazado_100777" data-name="Trazado 100777" d="M171.48,430.37a1,1,0,0,0,0-1.44l-2.17-2.16a1.023,1.023,0,1,0-1.45,1.44l2.16,2.16a1.038,1.038,0,0,0,1.46,0Z" fill="#fff"/>
          <path id="Trazado_100778" data-name="Trazado 100778" d="M162.91,440.17a1,1,0,1,0,0,2H166a1,1,0,0,0,0-2Z" fill="#fff"/>
          <path id="Trazado_100779" data-name="Trazado 100779" d="M415.56,439.65a1.27,1.27,0,0,1-.72-.22,1.3,1.3,0,0,1-.36-1.81c4-6.07,11.23-9.69,19.2-9.69a1.31,1.31,0,0,1,0,2.61c-7.1,0-13.46,3.19-17,8.53a1.31,1.31,0,0,1-1.12.58Z" fill="#fff"/>
          <path id="Trazado_100780" data-name="Trazado 100780" d="M446.63,485.06a6.66,6.66,0,0,1-3.53-1c-6.58-4.15-21.25-15.36-24.63-23.51-4.26-10.3-2.58-19.35,4.52-24.22,6.9-4.74,17.05-4.05,23.64,1.45,6.58-5.5,16.73-6.19,23.64-1.45,7.09,4.87,8.78,13.92,4.51,24.22-3.37,8.15-18,19.36-24.62,23.51a6.66,6.66,0,0,1-3.53,1Zm-13-49.31a16.2,16.2,0,0,0-9.17,2.72c-6.09,4.18-7.39,11.86-3.58,21.07,2.84,6.84,15.76,17.35,23.61,22.3a4,4,0,0,0,4.28,0c7.84-4.95,20.77-15.46,23.6-22.3,3.82-9.21,2.51-16.89-3.58-21.07-6.25-4.29-15.59-3.41-21.26,2l-.9.85-.9-.85a17.64,17.64,0,0,0-12.1-4.72ZM473.58,460Z" fill="#fff"/>
        </g>
      </g>
    </g>
  </g>
</svg>
